G75*
G70*
%OFA0B0*%
%FSLAX24Y24*%
%IPPOS*%
%LPD*%
%AMOC8*
5,1,8,0,0,1.08239X$1,22.5*
%
%ADD10OC8,0.0515*%
%ADD11C,0.0645*%
%ADD12C,0.0160*%
%ADD13C,0.0400*%
D10*
X009562Y002035D03*
X010112Y001485D03*
X010112Y002585D03*
X012612Y002585D03*
X012612Y001485D03*
D11*
X005795Y002435D02*
X005150Y002435D01*
X005150Y003435D02*
X005795Y003435D01*
X005795Y004435D02*
X005150Y004435D01*
X005150Y005435D02*
X005795Y005435D01*
D12*
X006321Y001237D02*
X003070Y001237D01*
X003142Y001362D01*
X003220Y001654D01*
X003220Y001957D01*
X003142Y002249D01*
X002990Y002511D01*
X002776Y002725D01*
X002514Y002876D01*
X002222Y002955D01*
X001919Y002955D01*
X001627Y002876D01*
X001407Y002749D01*
X001407Y005130D01*
X001643Y004994D01*
X001935Y004916D01*
X002238Y004916D01*
X002530Y004994D01*
X002792Y005146D01*
X003006Y005360D01*
X003158Y005622D01*
X003236Y005914D01*
X003236Y006217D01*
X003158Y006509D01*
X003016Y006753D01*
X015767Y006753D01*
X015767Y003386D01*
X015608Y003467D01*
X015608Y003467D01*
X015142Y003541D01*
X015142Y003541D01*
X014677Y003467D01*
X014677Y003467D01*
X014257Y003253D01*
X014257Y003253D01*
X013924Y002920D01*
X013711Y002501D01*
X013637Y002035D01*
X013637Y002035D01*
X013711Y001570D01*
X013711Y001570D01*
X013880Y001237D01*
X012983Y001237D01*
X013050Y001304D01*
X013050Y001485D01*
X012613Y001485D01*
X012613Y001486D01*
X012613Y001923D01*
X012794Y001923D01*
X013050Y001667D01*
X013050Y001486D01*
X012613Y001486D01*
X012612Y001486D01*
X012612Y001923D01*
X012431Y001923D01*
X012175Y001667D01*
X012175Y001486D01*
X012612Y001486D01*
X012612Y001485D01*
X012175Y001485D01*
X012175Y001304D01*
X012242Y001237D01*
X010627Y001237D01*
X011354Y001964D01*
X011354Y001964D01*
X011444Y002054D01*
X011444Y002054D01*
X012115Y002725D01*
X012115Y002379D01*
X012406Y002088D01*
X012818Y002088D01*
X013110Y002379D01*
X013110Y002791D01*
X012818Y003083D01*
X012600Y003083D01*
X012672Y003112D01*
X012795Y003236D01*
X012862Y003398D01*
X012862Y003573D01*
X012795Y003735D01*
X012672Y003858D01*
X012510Y003925D01*
X012335Y003925D01*
X012173Y003858D01*
X012049Y003735D01*
X011982Y003573D01*
X011982Y003498D01*
X011172Y002688D01*
X008304Y005557D01*
X008186Y005605D01*
X008059Y005605D01*
X006333Y005605D01*
X006272Y005754D01*
X006114Y005912D01*
X005907Y005998D01*
X005038Y005998D01*
X004831Y005912D01*
X004673Y005754D01*
X004587Y005547D01*
X004587Y005323D01*
X004673Y005117D01*
X004831Y004958D01*
X004965Y004903D01*
X004865Y004861D01*
X004724Y004720D01*
X004647Y004535D01*
X004647Y004463D01*
X005445Y004463D01*
X005445Y004408D01*
X005445Y003938D01*
X005445Y003463D01*
X005500Y003463D01*
X005500Y003938D01*
X005500Y004408D01*
X006297Y004408D01*
X006297Y004335D01*
X006221Y004151D01*
X006080Y004009D01*
X005901Y003935D01*
X006080Y003861D01*
X006221Y003720D01*
X006297Y003535D01*
X006297Y003463D01*
X005500Y003463D01*
X005500Y003408D01*
X006297Y003408D01*
X006297Y003335D01*
X006221Y003151D01*
X006080Y003009D01*
X005979Y002968D01*
X006114Y002912D01*
X006272Y002754D01*
X006276Y002745D01*
X006365Y002920D01*
X006698Y003253D01*
X007117Y003467D01*
X007582Y003540D01*
X008047Y003467D01*
X008047Y003467D01*
X008467Y003253D01*
X008800Y002920D01*
X009014Y002500D01*
X009065Y002177D01*
X009065Y002241D01*
X009356Y002533D01*
X009675Y002533D01*
X009675Y002585D01*
X010112Y002585D01*
X010112Y002586D01*
X009675Y002586D01*
X009675Y002767D01*
X009931Y003023D01*
X009932Y003023D01*
X007990Y004965D01*
X006120Y004965D01*
X006114Y004958D01*
X005979Y004903D01*
X006080Y004861D01*
X006221Y004720D01*
X006297Y004535D01*
X006297Y004463D01*
X005500Y004463D01*
X005500Y004408D01*
X005445Y004408D01*
X004647Y004408D01*
X004647Y004335D01*
X004724Y004151D01*
X004865Y004009D01*
X005044Y003935D01*
X004865Y003861D01*
X004724Y003720D01*
X004647Y003535D01*
X004647Y003463D01*
X005445Y003463D01*
X005445Y003408D01*
X004647Y003408D01*
X004647Y003335D01*
X004724Y003151D01*
X004865Y003009D01*
X004965Y002968D01*
X004831Y002912D01*
X004673Y002754D01*
X004587Y002547D01*
X004587Y002323D01*
X004673Y002117D01*
X004831Y001958D01*
X005038Y001873D01*
X005907Y001873D01*
X006091Y001949D01*
X006151Y001570D01*
X006321Y001237D01*
X006279Y001320D02*
X003117Y001320D01*
X003173Y001478D02*
X006198Y001478D01*
X006141Y001637D02*
X003215Y001637D01*
X003220Y001795D02*
X006115Y001795D01*
X004843Y001954D02*
X003220Y001954D01*
X003178Y002112D02*
X004677Y002112D01*
X004609Y002271D02*
X003129Y002271D01*
X003038Y002429D02*
X004587Y002429D01*
X004604Y002588D02*
X002914Y002588D01*
X002740Y002746D02*
X004670Y002746D01*
X004824Y002905D02*
X002408Y002905D01*
X001734Y002905D02*
X001407Y002905D01*
X001407Y003064D02*
X004811Y003064D01*
X004694Y003222D02*
X001407Y003222D01*
X001407Y003381D02*
X004647Y003381D01*
X004649Y003539D02*
X001407Y003539D01*
X001407Y003698D02*
X004715Y003698D01*
X004860Y003856D02*
X001407Y003856D01*
X001407Y004015D02*
X004860Y004015D01*
X004714Y004173D02*
X001407Y004173D01*
X001407Y004332D02*
X004649Y004332D01*
X004647Y004490D02*
X001407Y004490D01*
X001407Y004649D02*
X004694Y004649D01*
X004811Y004807D02*
X001407Y004807D01*
X001407Y004966D02*
X001748Y004966D01*
X001417Y005125D02*
X001407Y005125D01*
X002425Y004966D02*
X004824Y004966D01*
X004670Y005125D02*
X002756Y005125D01*
X002930Y005283D02*
X004604Y005283D01*
X004587Y005442D02*
X003054Y005442D01*
X003145Y005600D02*
X004609Y005600D01*
X004678Y005759D02*
X003194Y005759D01*
X003236Y005917D02*
X004843Y005917D01*
X005472Y005435D02*
X006022Y005285D01*
X008122Y005285D01*
X011172Y002235D01*
X012422Y003485D01*
X012034Y003698D02*
X010163Y003698D01*
X010321Y003539D02*
X011982Y003539D01*
X011865Y003381D02*
X010480Y003381D01*
X010638Y003222D02*
X011707Y003222D01*
X011548Y003064D02*
X010797Y003064D01*
X010955Y002905D02*
X011389Y002905D01*
X011231Y002746D02*
X011114Y002746D01*
X010720Y002235D02*
X010550Y002405D01*
X010550Y002404D01*
X010294Y002148D01*
X010113Y002148D01*
X010113Y002585D01*
X010112Y002585D01*
X010112Y002148D01*
X010060Y002148D01*
X010060Y001983D01*
X010318Y001983D01*
X010393Y001908D01*
X010720Y002235D01*
X010684Y002271D02*
X010416Y002271D01*
X010597Y002112D02*
X010060Y002112D01*
X010113Y002271D02*
X010112Y002271D01*
X010113Y002429D02*
X010112Y002429D01*
X010112Y002585D02*
X009922Y002685D01*
X009022Y003585D01*
X006022Y003585D01*
X005472Y003435D01*
X005500Y003539D02*
X005445Y003539D01*
X005445Y003698D02*
X005500Y003698D01*
X005500Y003856D02*
X005445Y003856D01*
X005445Y004015D02*
X005500Y004015D01*
X005500Y004173D02*
X005445Y004173D01*
X005445Y004332D02*
X005500Y004332D01*
X006085Y004015D02*
X008940Y004015D01*
X008782Y004173D02*
X006230Y004173D01*
X006296Y004332D02*
X008623Y004332D01*
X008465Y004490D02*
X006297Y004490D01*
X006250Y004649D02*
X008306Y004649D01*
X008148Y004807D02*
X006133Y004807D01*
X006267Y005759D02*
X015767Y005759D01*
X015767Y005917D02*
X006101Y005917D01*
X008198Y005600D02*
X015767Y005600D01*
X015767Y005442D02*
X008419Y005442D01*
X008577Y005283D02*
X015767Y005283D01*
X015767Y005125D02*
X008736Y005125D01*
X008894Y004966D02*
X015767Y004966D01*
X015767Y004807D02*
X009053Y004807D01*
X009211Y004649D02*
X015767Y004649D01*
X015767Y004490D02*
X009370Y004490D01*
X009528Y004332D02*
X015767Y004332D01*
X015767Y004173D02*
X009687Y004173D01*
X009846Y004015D02*
X015767Y004015D01*
X015767Y003856D02*
X012674Y003856D01*
X012811Y003698D02*
X015767Y003698D01*
X015767Y003539D02*
X015153Y003539D01*
X015131Y003539D02*
X012862Y003539D01*
X012855Y003381D02*
X014507Y003381D01*
X014226Y003222D02*
X012781Y003222D01*
X012838Y003064D02*
X014068Y003064D01*
X013917Y002905D02*
X012996Y002905D01*
X013110Y002746D02*
X013836Y002746D01*
X013755Y002588D02*
X013110Y002588D01*
X013110Y002429D02*
X013699Y002429D01*
X013674Y002271D02*
X013001Y002271D01*
X012843Y002112D02*
X013649Y002112D01*
X013650Y001954D02*
X011343Y001954D01*
X011502Y002112D02*
X012382Y002112D01*
X012223Y002271D02*
X011660Y002271D01*
X011819Y002429D02*
X012115Y002429D01*
X012115Y002588D02*
X011977Y002588D01*
X011172Y002235D02*
X010322Y001385D01*
X010112Y001485D01*
X010709Y001320D02*
X012175Y001320D01*
X012175Y001478D02*
X010868Y001478D01*
X011026Y001637D02*
X012175Y001637D01*
X012304Y001795D02*
X011185Y001795D01*
X010438Y001954D02*
X010348Y001954D01*
X009253Y002429D02*
X009025Y002429D01*
X009014Y002500D02*
X009014Y002500D01*
X008969Y002588D02*
X009675Y002588D01*
X009675Y002746D02*
X008888Y002746D01*
X008808Y002905D02*
X009813Y002905D01*
X009892Y003064D02*
X008656Y003064D01*
X008800Y002920D02*
X008800Y002920D01*
X008498Y003222D02*
X009733Y003222D01*
X009575Y003381D02*
X008216Y003381D01*
X008467Y003253D02*
X008467Y003253D01*
X009258Y003698D02*
X006230Y003698D01*
X006296Y003539D02*
X007575Y003539D01*
X007582Y003540D02*
X007582Y003540D01*
X007590Y003539D02*
X009416Y003539D01*
X009099Y003856D02*
X006085Y003856D01*
X006297Y003381D02*
X006948Y003381D01*
X007117Y003467D02*
X007117Y003467D01*
X006698Y003253D02*
X006698Y003253D01*
X006667Y003222D02*
X006250Y003222D01*
X006134Y003064D02*
X006508Y003064D01*
X006365Y002920D02*
X006365Y002920D01*
X006357Y002905D02*
X006121Y002905D01*
X006275Y002746D02*
X006276Y002746D01*
X009050Y002271D02*
X009094Y002271D01*
X010004Y003856D02*
X012171Y003856D01*
X012613Y001795D02*
X012612Y001795D01*
X012613Y001637D02*
X012612Y001637D01*
X012921Y001795D02*
X013675Y001795D01*
X013700Y001637D02*
X013050Y001637D01*
X013050Y001478D02*
X013757Y001478D01*
X013838Y001320D02*
X013050Y001320D01*
X015767Y006076D02*
X003236Y006076D01*
X003231Y006234D02*
X015767Y006234D01*
X015767Y006393D02*
X003189Y006393D01*
X003133Y006551D02*
X015767Y006551D01*
X015767Y006710D02*
X003041Y006710D01*
D13*
X012422Y003485D03*
M02*
