G75*
G70*
%OFA0B0*%
%FSLAX24Y24*%
%IPPOS*%
%LPD*%
%AMOC8*
5,1,8,0,0,1.08239X$1,22.5*
%
%ADD10C,0.0820*%
%ADD11C,0.0900*%
%ADD12C,0.1050*%
D10*
X006601Y002351D03*
X006601Y003351D03*
X014851Y007151D03*
X014851Y008551D03*
X017601Y005851D03*
X017601Y004851D03*
X020351Y007151D03*
X020351Y008551D03*
X019351Y011351D03*
X015851Y011351D03*
X015851Y013351D03*
X019351Y013351D03*
X023101Y014351D03*
X026101Y014351D03*
X029101Y013301D03*
X029101Y011901D03*
X027851Y003801D03*
X027851Y002401D03*
X006851Y011901D03*
X006851Y013301D03*
X005351Y014851D03*
X002351Y014851D03*
D11*
X001851Y001851D03*
X002743Y004904D03*
X002917Y005889D03*
X003090Y006874D03*
X003264Y007858D03*
X003438Y008843D03*
X003611Y009828D03*
X003785Y010813D03*
X003959Y011798D03*
X005351Y009851D03*
X005351Y008851D03*
X005351Y007851D03*
X005351Y006851D03*
X008667Y005889D03*
X008840Y006874D03*
X009014Y007858D03*
X009188Y008843D03*
X009361Y009828D03*
X009535Y010813D03*
X009709Y011798D03*
X011101Y013101D03*
X010851Y014851D03*
X009851Y014851D03*
X008851Y014851D03*
X007101Y015351D03*
X007101Y016851D03*
X006101Y016851D03*
X009101Y016851D03*
X010101Y016851D03*
X011101Y016851D03*
X014351Y015601D03*
X015351Y015601D03*
X016351Y015601D03*
X017351Y015601D03*
X018851Y015601D03*
X019851Y015601D03*
X021601Y016851D03*
X022601Y016851D03*
X023601Y016851D03*
X028101Y016351D03*
X028101Y015351D03*
X034101Y017601D03*
X031959Y011798D03*
X031785Y010813D03*
X031611Y009828D03*
X031438Y008843D03*
X031264Y007858D03*
X029601Y007851D03*
X029601Y008851D03*
X029601Y009851D03*
X026035Y010813D03*
X026209Y011798D03*
X025861Y009828D03*
X025688Y008843D03*
X025514Y007858D03*
X025340Y006874D03*
X025167Y005889D03*
X024993Y004904D03*
X023601Y006851D03*
X023601Y007851D03*
X023601Y008851D03*
X023601Y009851D03*
X017601Y009851D03*
X017601Y007351D03*
X015601Y004101D03*
X015601Y003101D03*
X021351Y002351D03*
X022351Y002351D03*
X023351Y002351D03*
X030743Y004904D03*
X030917Y005889D03*
X031090Y006874D03*
X029601Y006851D03*
X034101Y001851D03*
X011351Y006851D03*
X011351Y007851D03*
X011351Y008851D03*
X011351Y009851D03*
X008493Y004904D03*
X011851Y014851D03*
X001851Y017601D03*
D12*
X033601Y010601D03*
X033601Y008601D03*
X033601Y006601D03*
M02*
