G75*
G70*
%OFA0B0*%
%FSLAX24Y24*%
%IPPOS*%
%LPD*%
%AMOC8*
5,1,8,0,0,1.08239X$1,22.5*
%
%ADD10C,0.0820*%
%ADD11C,0.0900*%
D10*
X001729Y008851D03*
X001729Y010851D03*
X005729Y015351D03*
X005729Y016351D03*
X034979Y010851D03*
X034979Y008851D03*
D11*
X001729Y001851D03*
X003871Y004904D03*
X004045Y005889D03*
X004219Y006874D03*
X004392Y007858D03*
X004566Y008843D03*
X004740Y009828D03*
X004913Y010813D03*
X005087Y011798D03*
X009729Y014351D03*
X009729Y015351D03*
X007729Y015351D03*
X007729Y016351D03*
X009729Y016351D03*
X001729Y017601D03*
X010837Y011798D03*
X010663Y010813D03*
X010490Y009828D03*
X010316Y008843D03*
X010142Y007858D03*
X009969Y006874D03*
X009795Y005889D03*
X009621Y004904D03*
X018229Y006101D03*
X019229Y006101D03*
X019229Y007101D03*
X018229Y007101D03*
X018229Y008101D03*
X019229Y008101D03*
X019229Y009101D03*
X018229Y009101D03*
X018229Y010101D03*
X019229Y010101D03*
X019229Y011101D03*
X018229Y011101D03*
X018229Y012101D03*
X019229Y012101D03*
X019229Y013101D03*
X018229Y013101D03*
X025979Y014351D03*
X025979Y015351D03*
X025979Y016351D03*
X028979Y015351D03*
X030729Y015351D03*
X030729Y014351D03*
X030729Y016351D03*
X033979Y017601D03*
X033087Y011798D03*
X032913Y010813D03*
X032740Y009828D03*
X032566Y008843D03*
X032392Y007858D03*
X032219Y006874D03*
X032045Y005889D03*
X031871Y004904D03*
X026469Y006874D03*
X026642Y007858D03*
X026816Y008843D03*
X026990Y009828D03*
X027163Y010813D03*
X027337Y011798D03*
X030479Y011851D03*
X026295Y005889D03*
X026121Y004904D03*
X018729Y004101D03*
X033979Y001851D03*
M02*
