G75*
G70*
%OFA0B0*%
%FSLAX24Y24*%
%IPPOS*%
%LPD*%
%AMOC8*
5,1,8,0,0,1.08239X$1,22.5*
%
%ADD10C,0.0160*%
%ADD11C,0.0820*%
%ADD12C,0.0900*%
%ADD13C,0.1050*%
%ADD14C,0.0500*%
D10*
X033344Y001351D02*
X033844Y002101D01*
X034344Y001351D01*
X033926Y001666D02*
X033926Y000884D01*
X033406Y001064D02*
X033408Y001105D01*
X033414Y001145D01*
X033423Y001185D01*
X033437Y001224D01*
X033454Y001261D01*
X033474Y001296D01*
X033498Y001330D01*
X033525Y001361D01*
X033554Y001389D01*
X033587Y001414D01*
X033621Y001436D01*
X033657Y001455D01*
X033695Y001470D01*
X033735Y001482D01*
X033775Y001490D01*
X033816Y001494D01*
X033856Y001494D01*
X033897Y001490D01*
X033937Y001482D01*
X033977Y001470D01*
X034015Y001455D01*
X034051Y001436D01*
X034085Y001414D01*
X034118Y001389D01*
X034147Y001361D01*
X034174Y001330D01*
X034198Y001296D01*
X034218Y001261D01*
X034235Y001224D01*
X034249Y001185D01*
X034258Y001145D01*
X034264Y001105D01*
X034266Y001064D01*
X034264Y001023D01*
X034258Y000983D01*
X034249Y000943D01*
X034235Y000904D01*
X034218Y000867D01*
X034198Y000832D01*
X034174Y000798D01*
X034147Y000767D01*
X034118Y000739D01*
X034085Y000714D01*
X034051Y000692D01*
X034015Y000673D01*
X033977Y000658D01*
X033937Y000646D01*
X033897Y000638D01*
X033856Y000634D01*
X033816Y000634D01*
X033775Y000638D01*
X033735Y000646D01*
X033695Y000658D01*
X033657Y000673D01*
X033621Y000692D01*
X033587Y000714D01*
X033554Y000739D01*
X033525Y000767D01*
X033498Y000798D01*
X033474Y000832D01*
X033454Y000867D01*
X033437Y000904D01*
X033423Y000943D01*
X033414Y000983D01*
X033408Y001023D01*
X033406Y001064D01*
X033739Y001094D02*
X033741Y001110D01*
X033747Y001125D01*
X033756Y001138D01*
X033768Y001149D01*
X033782Y001157D01*
X033798Y001161D01*
X033814Y001161D01*
X033830Y001157D01*
X033844Y001149D01*
X033856Y001138D01*
X033865Y001125D01*
X033871Y001110D01*
X033873Y001094D01*
X033871Y001078D01*
X033865Y001063D01*
X033856Y001050D01*
X033844Y001039D01*
X033830Y001031D01*
X033814Y001027D01*
X033798Y001027D01*
X033782Y001031D01*
X033768Y001039D01*
X033756Y001050D01*
X033747Y001063D01*
X033741Y001078D01*
X033739Y001094D01*
X033486Y001094D02*
X033488Y001129D01*
X033494Y001164D01*
X033503Y001198D01*
X033517Y001231D01*
X033533Y001262D01*
X033553Y001291D01*
X033577Y001317D01*
X033603Y001341D01*
X033631Y001362D01*
X033662Y001380D01*
X033694Y001394D01*
X033727Y001404D01*
X033762Y001411D01*
X033797Y001414D01*
X033832Y001413D01*
X033867Y001408D01*
X033902Y001399D01*
X033935Y001387D01*
X033966Y001371D01*
X033996Y001352D01*
X034023Y001329D01*
X034047Y001304D01*
X034069Y001276D01*
X034087Y001246D01*
X034102Y001214D01*
X034114Y001181D01*
X034122Y001147D01*
X034126Y001112D01*
X034126Y001076D01*
X034122Y001041D01*
X034114Y001007D01*
X034102Y000974D01*
X034087Y000942D01*
X034069Y000912D01*
X034047Y000884D01*
X034023Y000859D01*
X033996Y000836D01*
X033966Y000817D01*
X033935Y000801D01*
X033902Y000789D01*
X033867Y000780D01*
X033832Y000775D01*
X033797Y000774D01*
X033762Y000777D01*
X033727Y000784D01*
X033694Y000794D01*
X033662Y000808D01*
X033631Y000826D01*
X033603Y000847D01*
X033577Y000871D01*
X033553Y000897D01*
X033533Y000926D01*
X033517Y000957D01*
X033503Y000990D01*
X033494Y001024D01*
X033488Y001059D01*
X033486Y001094D01*
X033594Y001101D02*
X033596Y001132D01*
X033602Y001163D01*
X033612Y001193D01*
X033625Y001221D01*
X033642Y001248D01*
X033662Y001272D01*
X033685Y001294D01*
X033710Y001312D01*
X033738Y001327D01*
X033767Y001339D01*
X033797Y001347D01*
X033828Y001351D01*
X033860Y001351D01*
X033891Y001347D01*
X033921Y001339D01*
X033950Y001327D01*
X033978Y001312D01*
X034003Y001294D01*
X034026Y001272D01*
X034046Y001248D01*
X034063Y001221D01*
X034076Y001193D01*
X034086Y001163D01*
X034092Y001132D01*
X034094Y001101D01*
X034092Y001070D01*
X034086Y001039D01*
X034076Y001009D01*
X034063Y000981D01*
X034046Y000954D01*
X034026Y000930D01*
X034003Y000908D01*
X033978Y000890D01*
X033950Y000875D01*
X033921Y000863D01*
X033891Y000855D01*
X033860Y000851D01*
X033828Y000851D01*
X033797Y000855D01*
X033767Y000863D01*
X033738Y000875D01*
X033710Y000890D01*
X033685Y000908D01*
X033662Y000930D01*
X033642Y000954D01*
X033625Y000981D01*
X033612Y001009D01*
X033602Y001039D01*
X033596Y001070D01*
X033594Y001101D01*
X033285Y001101D02*
X033287Y001148D01*
X033293Y001194D01*
X033303Y001240D01*
X033316Y001285D01*
X033333Y001328D01*
X033354Y001370D01*
X033378Y001410D01*
X033406Y001448D01*
X033437Y001484D01*
X033470Y001516D01*
X033506Y001546D01*
X033544Y001573D01*
X033585Y001596D01*
X033627Y001616D01*
X033671Y001633D01*
X033716Y001645D01*
X033762Y001654D01*
X033809Y001659D01*
X033856Y001660D01*
X033902Y001657D01*
X033949Y001650D01*
X033994Y001639D01*
X034039Y001625D01*
X034082Y001607D01*
X034123Y001585D01*
X034163Y001560D01*
X034200Y001532D01*
X034235Y001500D01*
X034267Y001466D01*
X034296Y001430D01*
X034322Y001391D01*
X034345Y001350D01*
X034364Y001307D01*
X034379Y001263D01*
X034391Y001217D01*
X034399Y001171D01*
X034403Y001124D01*
X034403Y001078D01*
X034399Y001031D01*
X034391Y000985D01*
X034379Y000939D01*
X034364Y000895D01*
X034345Y000852D01*
X034322Y000811D01*
X034296Y000772D01*
X034267Y000736D01*
X034235Y000702D01*
X034200Y000670D01*
X034163Y000642D01*
X034124Y000617D01*
X034082Y000595D01*
X034039Y000577D01*
X033994Y000563D01*
X033949Y000552D01*
X033902Y000545D01*
X033856Y000542D01*
X033809Y000543D01*
X033762Y000548D01*
X033716Y000557D01*
X033671Y000569D01*
X033627Y000586D01*
X033585Y000606D01*
X033544Y000629D01*
X033506Y000656D01*
X033470Y000686D01*
X033437Y000718D01*
X033406Y000754D01*
X033378Y000792D01*
X033354Y000832D01*
X033333Y000874D01*
X033316Y000917D01*
X033303Y000962D01*
X033293Y001008D01*
X033287Y001054D01*
X033285Y001101D01*
X033926Y001666D02*
X033776Y001817D01*
X033836Y001817D01*
X033866Y001847D01*
D11*
X031094Y002351D03*
X031094Y003351D03*
X022844Y007151D03*
X022844Y008551D03*
X020094Y005851D03*
X020094Y004851D03*
X017344Y007151D03*
X017344Y008551D03*
X018344Y011351D03*
X021844Y011351D03*
X021844Y013351D03*
X018344Y013351D03*
X014594Y014351D03*
X011594Y014351D03*
X009844Y013301D03*
X009844Y011901D03*
X008594Y003801D03*
X008594Y002401D03*
X031844Y011651D03*
X031844Y013051D03*
X032344Y014851D03*
X035344Y014851D03*
D12*
X003594Y001851D03*
X005736Y004904D03*
X005910Y005889D03*
X006083Y006874D03*
X006257Y007858D03*
X006431Y008843D03*
X008094Y008851D03*
X008094Y009851D03*
X006604Y009828D03*
X006778Y010813D03*
X006951Y011798D03*
X012354Y009828D03*
X012181Y008843D03*
X012007Y007858D03*
X011833Y006874D03*
X011660Y005889D03*
X011486Y004904D03*
X014094Y006851D03*
X014094Y007851D03*
X014094Y008851D03*
X014094Y009851D03*
X012528Y010813D03*
X012701Y011798D03*
X009594Y015351D03*
X009594Y016351D03*
X014094Y016851D03*
X015094Y016851D03*
X016094Y016851D03*
X017844Y015601D03*
X018844Y015601D03*
X020344Y015601D03*
X021344Y015601D03*
X022344Y015601D03*
X023344Y015601D03*
X025844Y014851D03*
X026844Y014851D03*
X027844Y014851D03*
X028844Y014851D03*
X030594Y015351D03*
X030594Y016851D03*
X031594Y016851D03*
X028594Y016851D03*
X027594Y016851D03*
X026594Y016851D03*
X026594Y013101D03*
X029201Y011798D03*
X029028Y010813D03*
X028854Y009828D03*
X028681Y008843D03*
X028507Y007858D03*
X028333Y006874D03*
X028160Y005889D03*
X027986Y004904D03*
X026344Y006851D03*
X026344Y007851D03*
X026344Y008851D03*
X026344Y009851D03*
X032344Y009851D03*
X032344Y008851D03*
X032344Y007851D03*
X032344Y006851D03*
X034083Y006874D03*
X034257Y007858D03*
X034431Y008843D03*
X034604Y009828D03*
X034778Y010813D03*
X034951Y011798D03*
X035844Y017601D03*
X020094Y009851D03*
X020094Y007351D03*
X022094Y004101D03*
X022094Y003101D03*
X016344Y002351D03*
X015344Y002351D03*
X014344Y002351D03*
X008094Y006851D03*
X008094Y007851D03*
X003594Y017601D03*
X033910Y005889D03*
X033736Y004904D03*
X035844Y001851D03*
D13*
X004094Y006601D03*
X004094Y008601D03*
X004094Y010601D03*
D14*
X004094Y011851D01*
X006951Y011798D01*
X007344Y013351D01*
X009844Y013301D01*
X011486Y013301D01*
X012701Y011798D01*
X015844Y011851D01*
X016344Y011351D01*
X016344Y008601D01*
X017094Y008601D01*
X017344Y008551D01*
X022844Y008551D01*
X023844Y008551D01*
X023844Y011851D01*
X029201Y011798D01*
X028986Y013301D01*
X029094Y013301D01*
X028844Y014851D01*
X027844Y014851D02*
X027844Y014601D01*
X027844Y014851D02*
X027844Y015601D01*
X027594Y015851D01*
X027594Y016851D01*
X028594Y016851D02*
X030594Y016851D01*
X031594Y016851D02*
X031594Y015351D01*
X032344Y015351D01*
X032344Y014851D01*
X031594Y015351D02*
X030594Y015351D01*
X032594Y016351D02*
X033844Y015101D01*
X033844Y013351D01*
X033794Y013301D01*
X031844Y013051D01*
X029094Y013301D01*
X026844Y013351D02*
X026594Y013101D01*
X022344Y013101D01*
X022094Y013351D01*
X021844Y013351D01*
X020344Y013351D02*
X018344Y011351D01*
X017844Y011351D01*
X016344Y012851D01*
X013094Y012851D01*
X013094Y016351D01*
X013094Y016851D01*
X014094Y016851D01*
X015094Y016851D02*
X015094Y018101D01*
X022344Y018101D01*
X022344Y015601D01*
X023344Y015601D02*
X023344Y018101D01*
X032094Y018101D01*
X032594Y017601D01*
X032594Y016351D01*
X033594Y016601D02*
X035344Y014851D01*
X033844Y013351D02*
X033844Y011905D01*
X034951Y011798D01*
X033736Y011851D01*
X034951Y011798D02*
X037094Y011851D01*
X037094Y004351D01*
X036594Y003851D01*
X033094Y003851D01*
X031594Y002351D01*
X031094Y002351D01*
X021844Y002351D01*
X016344Y002351D01*
X015344Y002351D02*
X015344Y004904D01*
X011486Y004904D01*
X008594Y004904D01*
X008594Y003801D01*
X008594Y004904D02*
X005736Y004904D01*
X005147Y004904D01*
X005094Y004851D01*
X004594Y004851D01*
X004094Y005351D01*
X004094Y006601D01*
X005094Y005851D02*
X005094Y007601D01*
X004094Y008601D01*
X002594Y008601D01*
X002594Y005351D01*
X004094Y003851D01*
X005844Y003851D01*
X007344Y002351D01*
X009794Y002351D01*
X008594Y002401D01*
X009844Y002351D01*
X014344Y002351D01*
X015344Y004904D02*
X020094Y004904D01*
X020094Y004851D01*
X020094Y004904D02*
X022094Y004904D01*
X022094Y004101D01*
X022094Y004904D02*
X027986Y004904D01*
X031094Y004904D01*
X031094Y003351D01*
X031094Y004904D02*
X033736Y004904D01*
X036094Y004851D01*
X036094Y010813D01*
X034778Y010813D01*
X031844Y010813D01*
X031844Y011651D01*
X031844Y010813D02*
X029028Y010813D01*
X024844Y010813D01*
X024844Y007101D01*
X023094Y007101D01*
X022844Y007151D01*
X020094Y007151D01*
X020094Y007351D01*
X020094Y007151D02*
X017344Y007151D01*
X015344Y007151D01*
X015344Y010851D01*
X011660Y010851D01*
X010094Y010851D01*
X006778Y010813D01*
X006606Y009851D02*
X006604Y009828D01*
X008094Y009851D01*
X008094Y008851D02*
X006431Y008843D01*
X006264Y008851D01*
X006257Y007858D02*
X008094Y007851D01*
X008094Y006851D02*
X006083Y006874D01*
X005910Y005889D02*
X011660Y005889D01*
X006844Y005889D01*
X006844Y005851D01*
X005094Y005851D01*
X002594Y008601D02*
X002594Y015351D01*
X008094Y015351D01*
X008094Y019101D01*
X033594Y019101D01*
X033594Y016601D01*
X026844Y014851D02*
X026844Y013351D01*
X024844Y014851D02*
X024344Y014351D01*
X020344Y014351D01*
X020344Y015601D01*
X021344Y015601D02*
X021344Y017101D01*
X018844Y017101D01*
X018844Y015601D01*
X018844Y013851D01*
X018344Y013351D01*
X017844Y013351D01*
X016844Y014351D01*
X014594Y014351D01*
X016094Y015601D02*
X017844Y015601D01*
X016094Y015601D02*
X016094Y016851D01*
X013094Y016351D02*
X009594Y016351D01*
X009344Y016351D01*
X009594Y015351D02*
X009594Y014351D01*
X011594Y014351D01*
X009594Y015351D02*
X008094Y015351D01*
X009844Y011901D02*
X009844Y010851D01*
X010094Y010851D01*
X011660Y010851D02*
X012528Y010813D01*
X012354Y009828D02*
X014071Y009828D01*
X014094Y009851D01*
X014094Y008851D02*
X014086Y008843D01*
X012181Y008843D01*
X012007Y007858D02*
X014086Y007858D01*
X014094Y007851D01*
X014071Y006874D02*
X014094Y006851D01*
X014071Y006874D02*
X011833Y006874D01*
X011660Y005889D02*
X020344Y005889D01*
X020306Y005851D01*
X020094Y005851D01*
X020344Y005889D02*
X028160Y005889D01*
X033910Y005889D01*
X034083Y006874D02*
X032366Y006874D01*
X032344Y006851D01*
X032344Y007851D02*
X032351Y007858D01*
X034257Y007858D01*
X034431Y008843D02*
X032351Y008843D01*
X032344Y008851D01*
X032366Y009828D02*
X032344Y009851D01*
X032366Y009828D02*
X034604Y009828D01*
X028854Y009828D02*
X026366Y009828D01*
X026344Y009851D01*
X026344Y008851D02*
X026351Y008843D01*
X028681Y008843D01*
X028601Y007858D02*
X028507Y007858D01*
X026344Y007851D01*
X026344Y006851D02*
X028333Y006874D01*
X021844Y009851D02*
X020094Y009851D01*
X018344Y009851D01*
X018344Y011351D01*
X021844Y011351D02*
X021844Y009851D01*
X020344Y013351D02*
X020344Y014351D01*
X024844Y014851D02*
X025844Y014851D01*
X025844Y016851D01*
X026594Y016851D01*
X022094Y003101D02*
X022094Y002351D01*
X021844Y002351D01*
M02*
