G75*
G70*
%OFA0B0*%
%FSLAX24Y24*%
%IPPOS*%
%LPD*%
%AMOC8*
5,1,8,0,0,1.08239X$1,22.5*
%
%ADD10C,0.0820*%
%ADD11C,0.0900*%
%ADD12C,0.0500*%
D10*
X001093Y008851D03*
X001093Y010851D03*
X030343Y015351D03*
X030343Y016351D03*
X035093Y010851D03*
X035093Y008851D03*
D11*
X002093Y001851D03*
X002985Y004904D03*
X003159Y005889D03*
X003332Y006874D03*
X003506Y007858D03*
X003679Y008843D03*
X003853Y009828D03*
X004027Y010813D03*
X004200Y011798D03*
X007093Y011851D03*
X009950Y011798D03*
X009777Y010813D03*
X009603Y009828D03*
X009429Y008843D03*
X009256Y007858D03*
X009082Y006874D03*
X008909Y005889D03*
X008735Y004904D03*
X016843Y006101D03*
X017843Y006101D03*
X017843Y007101D03*
X016843Y007101D03*
X016843Y008101D03*
X017843Y008101D03*
X017843Y009101D03*
X016843Y009101D03*
X016843Y010101D03*
X017843Y010101D03*
X017843Y011101D03*
X016843Y011101D03*
X016843Y012101D03*
X017843Y012101D03*
X017843Y013101D03*
X016843Y013101D03*
X010093Y014351D03*
X010093Y015351D03*
X010093Y016351D03*
X007093Y015351D03*
X005343Y015351D03*
X005343Y014351D03*
X005343Y016351D03*
X002093Y017601D03*
X025582Y006874D03*
X025756Y007858D03*
X025929Y008843D03*
X026103Y009828D03*
X026277Y010813D03*
X026450Y011798D03*
X026343Y014351D03*
X026343Y015351D03*
X028343Y015351D03*
X028343Y016351D03*
X026343Y016351D03*
X034343Y017601D03*
X032200Y011798D03*
X032027Y010813D03*
X031853Y009828D03*
X031679Y008843D03*
X031506Y007858D03*
X031332Y006874D03*
X031159Y005889D03*
X030985Y004904D03*
X025409Y005889D03*
X025235Y004904D03*
X017343Y004101D03*
X034343Y001851D03*
D12*
X030985Y004904D02*
X029896Y004904D01*
X026093Y001101D01*
X021843Y001101D01*
X019093Y001101D01*
X019093Y007101D01*
X017843Y007101D01*
X016843Y007101D02*
X014843Y007101D01*
X014843Y001601D01*
X007593Y001601D01*
X004593Y004601D01*
X004593Y005889D01*
X003159Y005889D01*
X003040Y004904D02*
X007343Y000601D01*
X015843Y000601D01*
X015843Y006101D01*
X016843Y006101D01*
X017843Y006101D02*
X017843Y004601D01*
X017343Y004101D01*
X020093Y002351D02*
X021843Y002351D01*
X025843Y002351D01*
X029381Y005889D01*
X031159Y005889D01*
X031332Y006874D02*
X031506Y007047D01*
X031506Y007858D01*
X031679Y008843D02*
X035085Y008843D01*
X035093Y008851D01*
X031853Y009828D02*
X031853Y010639D01*
X032027Y010813D01*
X032065Y010851D01*
X033593Y010851D01*
X033843Y011101D01*
X033843Y013101D01*
X029843Y013101D01*
X027555Y010813D01*
X026277Y010813D01*
X026103Y010639D01*
X026103Y009828D01*
X025929Y009654D01*
X025929Y008843D01*
X025756Y007858D02*
X025582Y007685D01*
X025582Y006874D01*
X025409Y005889D02*
X025371Y005851D01*
X023843Y005851D01*
X023593Y006101D01*
X023593Y011101D01*
X017843Y011101D01*
X016843Y011101D02*
X011093Y011101D01*
X011093Y010101D01*
X011093Y010351D01*
X011093Y010101D02*
X011093Y005889D01*
X008909Y005889D01*
X009082Y006874D02*
X009256Y007047D01*
X009256Y007858D01*
X009429Y008843D02*
X009603Y009017D01*
X009603Y009828D01*
X009777Y010002D01*
X009777Y010813D01*
X009950Y011798D02*
X010039Y011798D01*
X010343Y012101D01*
X016843Y012101D01*
X017843Y012101D02*
X026093Y012101D01*
X026396Y011798D01*
X026450Y011798D01*
X026146Y011798D01*
X026093Y011851D01*
X022593Y010101D02*
X022593Y004904D01*
X025235Y004904D01*
X023540Y004904D02*
X022593Y004904D01*
X021343Y003601D02*
X021343Y009101D01*
X017843Y009101D01*
X016843Y009101D02*
X012843Y009101D01*
X012843Y003851D01*
X012343Y003851D01*
X012593Y003851D01*
X012343Y003851D02*
X008093Y003851D01*
X007093Y004851D01*
X007093Y011851D01*
X005593Y011851D02*
X005593Y004851D01*
X007843Y002601D01*
X013843Y002601D01*
X013843Y008101D01*
X016843Y008101D01*
X017843Y008101D02*
X020093Y008101D01*
X020093Y002351D01*
X021593Y002351D02*
X021843Y002351D01*
X021343Y003601D02*
X025843Y003601D01*
X027593Y005351D01*
X027593Y008851D01*
X030539Y011798D01*
X032200Y011798D01*
X035093Y010851D02*
X035093Y015351D01*
X032093Y015351D01*
X032093Y017601D01*
X004093Y017601D01*
X004093Y014351D01*
X001093Y014351D01*
X001093Y010851D01*
X002343Y010851D02*
X004027Y010851D01*
X004027Y010813D01*
X003853Y010813D01*
X003853Y009828D01*
X003679Y009828D01*
X003679Y008843D01*
X001093Y008843D01*
X001093Y008851D01*
X003332Y007858D02*
X003332Y006874D01*
X003332Y007858D02*
X003506Y007858D01*
X008593Y009828D02*
X008593Y013101D01*
X002343Y013101D01*
X002343Y010851D01*
X004200Y011798D02*
X005539Y011798D01*
X005593Y011851D01*
X008593Y009828D02*
X009603Y009828D01*
X011843Y009851D02*
X011843Y009601D01*
X011843Y010101D01*
X016843Y010101D01*
X017843Y010101D02*
X022593Y010101D01*
X017843Y013101D02*
X017843Y015351D01*
X026343Y015351D01*
X026343Y014351D02*
X028343Y014351D01*
X028343Y015351D01*
X030343Y015351D01*
X028343Y015351D01*
X028343Y016351D02*
X026343Y016351D01*
X010093Y016351D01*
X005343Y016351D01*
X005343Y015351D02*
X007093Y015351D01*
X005343Y014351D02*
X010093Y014351D01*
X010093Y015351D02*
X016843Y015351D01*
X016843Y013101D01*
X011843Y009601D02*
X011843Y004904D01*
X008735Y004904D01*
X003040Y004904D02*
X002985Y004904D01*
X009950Y011798D02*
X010004Y011851D01*
X005343Y014351D02*
X004093Y014351D01*
X028343Y016351D02*
X030343Y016351D01*
X030343Y015351D02*
X032093Y015351D01*
X031853Y009828D02*
X031679Y009654D01*
X031679Y008843D01*
X021843Y001101D02*
X021593Y001101D01*
M02*
