G75*
G70*
%OFA0B0*%
%FSLAX24Y24*%
%IPPOS*%
%LPD*%
%AMOC8*
5,1,8,0,0,1.08239X$1,22.5*
%
%ADD10C,0.1104*%
%ADD11OC8,0.0680*%
%ADD12C,0.1084*%
%ADD13OC8,0.0710*%
%ADD14C,0.0710*%
%ADD15OC8,0.0640*%
%ADD16C,0.1261*%
%ADD17C,0.0720*%
%ADD18C,0.1420*%
D10*
X005487Y019679D02*
X005487Y020703D01*
X007487Y020703D02*
X007487Y019679D01*
X009487Y019679D02*
X009487Y020703D01*
X011487Y020703D02*
X011487Y019679D01*
D11*
X013467Y002961D03*
X014467Y002961D03*
X015467Y002961D03*
X016467Y002961D03*
X016467Y001961D03*
X015467Y001961D03*
X014467Y001961D03*
X013467Y001961D03*
X017467Y001961D03*
X017467Y002961D03*
D12*
X003169Y010142D02*
X002165Y010142D01*
X002165Y011701D02*
X003169Y011701D01*
X003169Y013260D02*
X002165Y013260D01*
X002165Y014819D02*
X003169Y014819D01*
D13*
X014787Y019481D03*
X017227Y017911D03*
D14*
X018627Y017911D03*
X014787Y020881D03*
D15*
X018407Y021351D03*
X019157Y020851D03*
X018407Y020351D03*
X003273Y006122D03*
X004273Y005122D03*
X003273Y004122D03*
D16*
X002416Y002284D03*
X002416Y020828D03*
X020999Y020828D03*
X020960Y002284D03*
D17*
X020897Y006061D02*
X021537Y006061D01*
X021537Y007061D02*
X020897Y007061D01*
X020897Y008061D02*
X021537Y008061D01*
X021537Y009061D02*
X020897Y009061D01*
X020897Y014061D02*
X021537Y014061D01*
X021537Y015061D02*
X020897Y015061D01*
X020897Y016061D02*
X021537Y016061D01*
X021537Y017061D02*
X020897Y017061D01*
D18*
X021517Y018661D03*
X021517Y012461D03*
X021517Y010661D03*
X021517Y004461D03*
M02*
