G75*
G70*
%OFA0B0*%
%FSLAX24Y24*%
%IPPOS*%
%LPD*%
%AMOC8*
5,1,8,0,0,1.08239X$1,22.5*
%
%ADD10C,0.1104*%
%ADD11OC8,0.0680*%
%ADD12C,0.1084*%
%ADD13R,0.0671X0.0671*%
%ADD14R,0.0790X0.0710*%
%ADD15R,0.1340X0.0789*%
%ADD16OC8,0.0710*%
%ADD17C,0.0710*%
%ADD18R,0.0867X0.0671*%
%ADD19R,0.0671X0.0867*%
%ADD20OC8,0.0640*%
%ADD21R,0.0789X0.0710*%
%ADD22C,0.1261*%
%ADD23R,0.0946X0.0316*%
%ADD24R,0.0316X0.0946*%
%ADD25R,0.0710X0.0789*%
%ADD26R,0.0710X0.0790*%
%ADD27C,0.0720*%
%ADD28C,0.1420*%
D10*
X012047Y019679D02*
X012047Y020703D01*
X014047Y020703D02*
X014047Y019679D01*
X016047Y019679D02*
X016047Y020703D01*
X018047Y020703D02*
X018047Y019679D01*
D11*
X010067Y002961D03*
X009067Y002961D03*
X008067Y002961D03*
X007067Y002961D03*
X007067Y001961D03*
X008067Y001961D03*
X009067Y001961D03*
X010067Y001961D03*
X006067Y001961D03*
X006067Y002961D03*
D12*
X020365Y010142D02*
X021369Y010142D01*
X021369Y011701D02*
X020365Y011701D01*
X020365Y013260D02*
X021369Y013260D01*
X021369Y014819D02*
X020365Y014819D01*
D13*
X021317Y016042D03*
X022367Y016042D03*
X022367Y017420D03*
X021317Y017420D03*
X020967Y008920D03*
X022117Y008920D03*
X022117Y007542D03*
X020967Y007542D03*
X007809Y016471D03*
X007809Y017849D03*
D14*
X008977Y017791D03*
X008977Y016671D03*
X005357Y013871D03*
X005357Y012751D03*
X005717Y006121D03*
X005717Y005001D03*
X004467Y005001D03*
X004467Y006121D03*
X014117Y002971D03*
X014117Y001851D03*
X015417Y001801D03*
X015417Y002921D03*
X016667Y002871D03*
X016667Y001751D03*
X017867Y001751D03*
X017867Y002871D03*
X022317Y004971D03*
X022317Y006091D03*
X019705Y007567D03*
X019705Y008687D03*
X020114Y016155D03*
X020114Y017275D03*
X017027Y017801D03*
X017027Y016681D03*
D15*
X016847Y011913D03*
X016847Y009708D03*
X006387Y009448D03*
X006387Y011653D03*
D16*
X006307Y017911D03*
X008747Y019481D03*
D17*
X008747Y020881D03*
X004907Y017911D03*
D18*
X006557Y020310D03*
X006557Y021491D03*
X018247Y017831D03*
X018247Y016650D03*
D19*
X005938Y015111D03*
X004757Y015111D03*
D20*
X005127Y020351D03*
X004377Y020851D03*
X005127Y021351D03*
X020261Y006122D03*
X019261Y005122D03*
X020261Y004122D03*
D21*
X019050Y002831D03*
X019050Y001728D03*
X012867Y001860D03*
X012867Y002962D03*
X006967Y005010D03*
X006967Y006112D03*
X005017Y010260D03*
X005017Y011362D03*
X010617Y016610D03*
X010617Y017712D03*
X011817Y017712D03*
X011817Y016610D03*
X018167Y011362D03*
X018167Y010260D03*
D22*
X002574Y002284D03*
X021117Y002284D03*
X021117Y020828D03*
X002535Y020828D03*
D23*
X008328Y013511D03*
X008328Y013011D03*
X008328Y012511D03*
X008328Y012011D03*
X008328Y011511D03*
X008328Y011011D03*
X008328Y010511D03*
X008328Y010011D03*
X008328Y009511D03*
X008328Y009011D03*
X008328Y008511D03*
X014706Y008511D03*
X014706Y009011D03*
X014706Y009511D03*
X014706Y010011D03*
X014706Y010511D03*
X014706Y011011D03*
X014706Y011511D03*
X014706Y012011D03*
X014706Y012511D03*
X014706Y013011D03*
X014706Y013511D03*
D24*
X014017Y014200D03*
X013517Y014200D03*
X013017Y014200D03*
X012517Y014200D03*
X012017Y014200D03*
X011517Y014200D03*
X011017Y014200D03*
X010517Y014200D03*
X010017Y014200D03*
X009517Y014200D03*
X009017Y014200D03*
X009017Y007822D03*
X009517Y007822D03*
X010017Y007822D03*
X010517Y007822D03*
X011017Y007822D03*
X011517Y007822D03*
X012017Y007822D03*
X012517Y007822D03*
X013017Y007822D03*
X013517Y007822D03*
X014017Y007822D03*
D25*
X009468Y005061D03*
X008366Y005061D03*
X014066Y017661D03*
X015168Y017661D03*
D26*
X011727Y005061D03*
X010607Y005061D03*
D27*
X002637Y006061D02*
X001997Y006061D01*
X001997Y007061D02*
X002637Y007061D01*
X002637Y008061D02*
X001997Y008061D01*
X001997Y009061D02*
X002637Y009061D01*
X002637Y014061D02*
X001997Y014061D01*
X001997Y015061D02*
X002637Y015061D01*
X002637Y016061D02*
X001997Y016061D01*
X001997Y017061D02*
X002637Y017061D01*
D28*
X002017Y018661D03*
X002017Y012461D03*
X002017Y010661D03*
X002017Y004461D03*
M02*
