%
M48
M72
T01C0.0200
T02C0.0236
T03C0.0320
T04C0.0360
T05C0.0400
T06C0.0630
T07C0.0669
T08C0.1181
T09C0.1340
%
T01
X5067Y5661
X6867Y4161
X10517Y4411
X10517Y6311
X12517Y7061
X13717Y5861
X14717Y3961
X15017Y3561
X15667Y3661
X17867Y5461
X18317Y7961
X17667Y9011
X15917Y9511
X13467Y9061
X9967Y12561
X9067Y13111
X8467Y14111
X9517Y15011
X10017Y14961
X10517Y15961
X10917Y15661
X9767Y16861
X6717Y16511
X5367Y14511
X10617Y13461
X15467Y13011
X18967Y10861
X19317Y16161
X18967Y16611
X8467Y7961
X7267Y8411
X17167Y1061
T02
X12047Y12001
T03
X6307Y17911
X4907Y17911
X5127Y20351
X4377Y20851
X5127Y21351
X8747Y20881
X8747Y19481
X20261Y6122
X19261Y5122
X20261Y4122
T04
X10067Y2961
X9067Y2961
X8067Y2961
X7067Y2961
X7067Y1961
X8067Y1961
X9067Y1961
X10067Y1961
X6067Y1961
X6067Y2961
T05
X2317Y6061
X2317Y7061
X2317Y8061
X2317Y9061
X2317Y14061
X2317Y15061
X2317Y16061
X2317Y17061
T06
X12047Y20191
X14047Y20191
X16047Y20191
X18047Y20191
T07
X20867Y14819
X20867Y13260
X20867Y11701
X20867Y10142
T08
X2574Y2284
X21117Y2284
X21117Y20828
X2535Y20828
T09
X2017Y18661
X2017Y12461
X2017Y10661
X2017Y4461
M30
