G75*
G70*
%OFA0B0*%
%FSLAX24Y24*%
%IPPOS*%
%LPD*%
%AMOC8*
5,1,8,0,0,1.08239X$1,22.5*
%
%ADD10C,0.0000*%
%ADD11C,0.0030*%
%ADD12C,0.0040*%
%ADD13C,0.0060*%
%ADD14C,0.0070*%
%ADD15C,0.0010*%
%ADD16C,0.0080*%
%ADD17C,0.0050*%
%ADD18C,0.0020*%
%ADD19R,0.0128X0.0167*%
%ADD20R,0.0138X0.0138*%
%ADD21C,0.0120*%
%ADD22C,0.0100*%
D10*
X000782Y000463D02*
X000743Y022690D01*
X022966Y022651D01*
X022966Y000463D01*
X000782Y000463D01*
X001983Y002284D02*
X001985Y002332D01*
X001991Y002380D01*
X002001Y002427D01*
X002014Y002473D01*
X002032Y002518D01*
X002052Y002562D01*
X002077Y002604D01*
X002105Y002643D01*
X002135Y002680D01*
X002169Y002714D01*
X002206Y002746D01*
X002244Y002775D01*
X002285Y002800D01*
X002328Y002822D01*
X002373Y002840D01*
X002419Y002854D01*
X002466Y002865D01*
X002514Y002872D01*
X002562Y002875D01*
X002610Y002874D01*
X002658Y002869D01*
X002706Y002860D01*
X002752Y002848D01*
X002797Y002831D01*
X002841Y002811D01*
X002883Y002788D01*
X002923Y002761D01*
X002961Y002731D01*
X002996Y002698D01*
X003028Y002662D01*
X003058Y002624D01*
X003084Y002583D01*
X003106Y002540D01*
X003126Y002496D01*
X003141Y002451D01*
X003153Y002404D01*
X003161Y002356D01*
X003165Y002308D01*
X003165Y002260D01*
X003161Y002212D01*
X003153Y002164D01*
X003141Y002117D01*
X003126Y002072D01*
X003106Y002028D01*
X003084Y001985D01*
X003058Y001944D01*
X003028Y001906D01*
X002996Y001870D01*
X002961Y001837D01*
X002923Y001807D01*
X002883Y001780D01*
X002841Y001757D01*
X002797Y001737D01*
X002752Y001720D01*
X002706Y001708D01*
X002658Y001699D01*
X002610Y001694D01*
X002562Y001693D01*
X002514Y001696D01*
X002466Y001703D01*
X002419Y001714D01*
X002373Y001728D01*
X002328Y001746D01*
X002285Y001768D01*
X002244Y001793D01*
X002206Y001822D01*
X002169Y001854D01*
X002135Y001888D01*
X002105Y001925D01*
X002077Y001964D01*
X002052Y002006D01*
X002032Y002050D01*
X002014Y002095D01*
X002001Y002141D01*
X001991Y002188D01*
X001985Y002236D01*
X001983Y002284D01*
X001347Y004461D02*
X001349Y004512D01*
X001355Y004563D01*
X001365Y004614D01*
X001378Y004663D01*
X001396Y004711D01*
X001417Y004758D01*
X001441Y004803D01*
X001469Y004846D01*
X001500Y004887D01*
X001534Y004926D01*
X001571Y004961D01*
X001611Y004994D01*
X001653Y005023D01*
X001697Y005050D01*
X001743Y005072D01*
X001791Y005092D01*
X001839Y005107D01*
X001889Y005119D01*
X001940Y005127D01*
X001991Y005131D01*
X002043Y005131D01*
X002094Y005127D01*
X002145Y005119D01*
X002195Y005107D01*
X002243Y005092D01*
X002291Y005072D01*
X002337Y005050D01*
X002381Y005023D01*
X002423Y004994D01*
X002463Y004961D01*
X002500Y004926D01*
X002534Y004887D01*
X002565Y004846D01*
X002593Y004803D01*
X002617Y004758D01*
X002638Y004711D01*
X002656Y004663D01*
X002669Y004614D01*
X002679Y004563D01*
X002685Y004512D01*
X002687Y004461D01*
X002685Y004410D01*
X002679Y004359D01*
X002669Y004308D01*
X002656Y004259D01*
X002638Y004211D01*
X002617Y004164D01*
X002593Y004119D01*
X002565Y004076D01*
X002534Y004035D01*
X002500Y003996D01*
X002463Y003961D01*
X002423Y003928D01*
X002381Y003899D01*
X002337Y003872D01*
X002291Y003850D01*
X002243Y003830D01*
X002195Y003815D01*
X002145Y003803D01*
X002094Y003795D01*
X002043Y003791D01*
X001991Y003791D01*
X001940Y003795D01*
X001889Y003803D01*
X001839Y003815D01*
X001791Y003830D01*
X001743Y003850D01*
X001697Y003872D01*
X001653Y003899D01*
X001611Y003928D01*
X001571Y003961D01*
X001534Y003996D01*
X001500Y004035D01*
X001469Y004076D01*
X001441Y004119D01*
X001417Y004164D01*
X001396Y004211D01*
X001378Y004259D01*
X001365Y004308D01*
X001355Y004359D01*
X001349Y004410D01*
X001347Y004461D01*
X001347Y010661D02*
X001349Y010712D01*
X001355Y010763D01*
X001365Y010814D01*
X001378Y010863D01*
X001396Y010911D01*
X001417Y010958D01*
X001441Y011003D01*
X001469Y011046D01*
X001500Y011087D01*
X001534Y011126D01*
X001571Y011161D01*
X001611Y011194D01*
X001653Y011223D01*
X001697Y011250D01*
X001743Y011272D01*
X001791Y011292D01*
X001839Y011307D01*
X001889Y011319D01*
X001940Y011327D01*
X001991Y011331D01*
X002043Y011331D01*
X002094Y011327D01*
X002145Y011319D01*
X002195Y011307D01*
X002243Y011292D01*
X002291Y011272D01*
X002337Y011250D01*
X002381Y011223D01*
X002423Y011194D01*
X002463Y011161D01*
X002500Y011126D01*
X002534Y011087D01*
X002565Y011046D01*
X002593Y011003D01*
X002617Y010958D01*
X002638Y010911D01*
X002656Y010863D01*
X002669Y010814D01*
X002679Y010763D01*
X002685Y010712D01*
X002687Y010661D01*
X002685Y010610D01*
X002679Y010559D01*
X002669Y010508D01*
X002656Y010459D01*
X002638Y010411D01*
X002617Y010364D01*
X002593Y010319D01*
X002565Y010276D01*
X002534Y010235D01*
X002500Y010196D01*
X002463Y010161D01*
X002423Y010128D01*
X002381Y010099D01*
X002337Y010072D01*
X002291Y010050D01*
X002243Y010030D01*
X002195Y010015D01*
X002145Y010003D01*
X002094Y009995D01*
X002043Y009991D01*
X001991Y009991D01*
X001940Y009995D01*
X001889Y010003D01*
X001839Y010015D01*
X001791Y010030D01*
X001743Y010050D01*
X001697Y010072D01*
X001653Y010099D01*
X001611Y010128D01*
X001571Y010161D01*
X001534Y010196D01*
X001500Y010235D01*
X001469Y010276D01*
X001441Y010319D01*
X001417Y010364D01*
X001396Y010411D01*
X001378Y010459D01*
X001365Y010508D01*
X001355Y010559D01*
X001349Y010610D01*
X001347Y010661D01*
X001347Y012461D02*
X001349Y012512D01*
X001355Y012563D01*
X001365Y012614D01*
X001378Y012663D01*
X001396Y012711D01*
X001417Y012758D01*
X001441Y012803D01*
X001469Y012846D01*
X001500Y012887D01*
X001534Y012926D01*
X001571Y012961D01*
X001611Y012994D01*
X001653Y013023D01*
X001697Y013050D01*
X001743Y013072D01*
X001791Y013092D01*
X001839Y013107D01*
X001889Y013119D01*
X001940Y013127D01*
X001991Y013131D01*
X002043Y013131D01*
X002094Y013127D01*
X002145Y013119D01*
X002195Y013107D01*
X002243Y013092D01*
X002291Y013072D01*
X002337Y013050D01*
X002381Y013023D01*
X002423Y012994D01*
X002463Y012961D01*
X002500Y012926D01*
X002534Y012887D01*
X002565Y012846D01*
X002593Y012803D01*
X002617Y012758D01*
X002638Y012711D01*
X002656Y012663D01*
X002669Y012614D01*
X002679Y012563D01*
X002685Y012512D01*
X002687Y012461D01*
X002685Y012410D01*
X002679Y012359D01*
X002669Y012308D01*
X002656Y012259D01*
X002638Y012211D01*
X002617Y012164D01*
X002593Y012119D01*
X002565Y012076D01*
X002534Y012035D01*
X002500Y011996D01*
X002463Y011961D01*
X002423Y011928D01*
X002381Y011899D01*
X002337Y011872D01*
X002291Y011850D01*
X002243Y011830D01*
X002195Y011815D01*
X002145Y011803D01*
X002094Y011795D01*
X002043Y011791D01*
X001991Y011791D01*
X001940Y011795D01*
X001889Y011803D01*
X001839Y011815D01*
X001791Y011830D01*
X001743Y011850D01*
X001697Y011872D01*
X001653Y011899D01*
X001611Y011928D01*
X001571Y011961D01*
X001534Y011996D01*
X001500Y012035D01*
X001469Y012076D01*
X001441Y012119D01*
X001417Y012164D01*
X001396Y012211D01*
X001378Y012259D01*
X001365Y012308D01*
X001355Y012359D01*
X001349Y012410D01*
X001347Y012461D01*
X001347Y018661D02*
X001349Y018712D01*
X001355Y018763D01*
X001365Y018814D01*
X001378Y018863D01*
X001396Y018911D01*
X001417Y018958D01*
X001441Y019003D01*
X001469Y019046D01*
X001500Y019087D01*
X001534Y019126D01*
X001571Y019161D01*
X001611Y019194D01*
X001653Y019223D01*
X001697Y019250D01*
X001743Y019272D01*
X001791Y019292D01*
X001839Y019307D01*
X001889Y019319D01*
X001940Y019327D01*
X001991Y019331D01*
X002043Y019331D01*
X002094Y019327D01*
X002145Y019319D01*
X002195Y019307D01*
X002243Y019292D01*
X002291Y019272D01*
X002337Y019250D01*
X002381Y019223D01*
X002423Y019194D01*
X002463Y019161D01*
X002500Y019126D01*
X002534Y019087D01*
X002565Y019046D01*
X002593Y019003D01*
X002617Y018958D01*
X002638Y018911D01*
X002656Y018863D01*
X002669Y018814D01*
X002679Y018763D01*
X002685Y018712D01*
X002687Y018661D01*
X002685Y018610D01*
X002679Y018559D01*
X002669Y018508D01*
X002656Y018459D01*
X002638Y018411D01*
X002617Y018364D01*
X002593Y018319D01*
X002565Y018276D01*
X002534Y018235D01*
X002500Y018196D01*
X002463Y018161D01*
X002423Y018128D01*
X002381Y018099D01*
X002337Y018072D01*
X002291Y018050D01*
X002243Y018030D01*
X002195Y018015D01*
X002145Y018003D01*
X002094Y017995D01*
X002043Y017991D01*
X001991Y017991D01*
X001940Y017995D01*
X001889Y018003D01*
X001839Y018015D01*
X001791Y018030D01*
X001743Y018050D01*
X001697Y018072D01*
X001653Y018099D01*
X001611Y018128D01*
X001571Y018161D01*
X001534Y018196D01*
X001500Y018235D01*
X001469Y018276D01*
X001441Y018319D01*
X001417Y018364D01*
X001396Y018411D01*
X001378Y018459D01*
X001365Y018508D01*
X001355Y018559D01*
X001349Y018610D01*
X001347Y018661D01*
X001944Y020828D02*
X001946Y020876D01*
X001952Y020924D01*
X001962Y020971D01*
X001975Y021017D01*
X001993Y021062D01*
X002013Y021106D01*
X002038Y021148D01*
X002066Y021187D01*
X002096Y021224D01*
X002130Y021258D01*
X002167Y021290D01*
X002205Y021319D01*
X002246Y021344D01*
X002289Y021366D01*
X002334Y021384D01*
X002380Y021398D01*
X002427Y021409D01*
X002475Y021416D01*
X002523Y021419D01*
X002571Y021418D01*
X002619Y021413D01*
X002667Y021404D01*
X002713Y021392D01*
X002758Y021375D01*
X002802Y021355D01*
X002844Y021332D01*
X002884Y021305D01*
X002922Y021275D01*
X002957Y021242D01*
X002989Y021206D01*
X003019Y021168D01*
X003045Y021127D01*
X003067Y021084D01*
X003087Y021040D01*
X003102Y020995D01*
X003114Y020948D01*
X003122Y020900D01*
X003126Y020852D01*
X003126Y020804D01*
X003122Y020756D01*
X003114Y020708D01*
X003102Y020661D01*
X003087Y020616D01*
X003067Y020572D01*
X003045Y020529D01*
X003019Y020488D01*
X002989Y020450D01*
X002957Y020414D01*
X002922Y020381D01*
X002884Y020351D01*
X002844Y020324D01*
X002802Y020301D01*
X002758Y020281D01*
X002713Y020264D01*
X002667Y020252D01*
X002619Y020243D01*
X002571Y020238D01*
X002523Y020237D01*
X002475Y020240D01*
X002427Y020247D01*
X002380Y020258D01*
X002334Y020272D01*
X002289Y020290D01*
X002246Y020312D01*
X002205Y020337D01*
X002167Y020366D01*
X002130Y020398D01*
X002096Y020432D01*
X002066Y020469D01*
X002038Y020508D01*
X002013Y020550D01*
X001993Y020594D01*
X001975Y020639D01*
X001962Y020685D01*
X001952Y020732D01*
X001946Y020780D01*
X001944Y020828D01*
X020526Y020828D02*
X020528Y020876D01*
X020534Y020924D01*
X020544Y020971D01*
X020557Y021017D01*
X020575Y021062D01*
X020595Y021106D01*
X020620Y021148D01*
X020648Y021187D01*
X020678Y021224D01*
X020712Y021258D01*
X020749Y021290D01*
X020787Y021319D01*
X020828Y021344D01*
X020871Y021366D01*
X020916Y021384D01*
X020962Y021398D01*
X021009Y021409D01*
X021057Y021416D01*
X021105Y021419D01*
X021153Y021418D01*
X021201Y021413D01*
X021249Y021404D01*
X021295Y021392D01*
X021340Y021375D01*
X021384Y021355D01*
X021426Y021332D01*
X021466Y021305D01*
X021504Y021275D01*
X021539Y021242D01*
X021571Y021206D01*
X021601Y021168D01*
X021627Y021127D01*
X021649Y021084D01*
X021669Y021040D01*
X021684Y020995D01*
X021696Y020948D01*
X021704Y020900D01*
X021708Y020852D01*
X021708Y020804D01*
X021704Y020756D01*
X021696Y020708D01*
X021684Y020661D01*
X021669Y020616D01*
X021649Y020572D01*
X021627Y020529D01*
X021601Y020488D01*
X021571Y020450D01*
X021539Y020414D01*
X021504Y020381D01*
X021466Y020351D01*
X021426Y020324D01*
X021384Y020301D01*
X021340Y020281D01*
X021295Y020264D01*
X021249Y020252D01*
X021201Y020243D01*
X021153Y020238D01*
X021105Y020237D01*
X021057Y020240D01*
X021009Y020247D01*
X020962Y020258D01*
X020916Y020272D01*
X020871Y020290D01*
X020828Y020312D01*
X020787Y020337D01*
X020749Y020366D01*
X020712Y020398D01*
X020678Y020432D01*
X020648Y020469D01*
X020620Y020508D01*
X020595Y020550D01*
X020575Y020594D01*
X020557Y020639D01*
X020544Y020685D01*
X020534Y020732D01*
X020528Y020780D01*
X020526Y020828D01*
X020526Y002284D02*
X020528Y002332D01*
X020534Y002380D01*
X020544Y002427D01*
X020557Y002473D01*
X020575Y002518D01*
X020595Y002562D01*
X020620Y002604D01*
X020648Y002643D01*
X020678Y002680D01*
X020712Y002714D01*
X020749Y002746D01*
X020787Y002775D01*
X020828Y002800D01*
X020871Y002822D01*
X020916Y002840D01*
X020962Y002854D01*
X021009Y002865D01*
X021057Y002872D01*
X021105Y002875D01*
X021153Y002874D01*
X021201Y002869D01*
X021249Y002860D01*
X021295Y002848D01*
X021340Y002831D01*
X021384Y002811D01*
X021426Y002788D01*
X021466Y002761D01*
X021504Y002731D01*
X021539Y002698D01*
X021571Y002662D01*
X021601Y002624D01*
X021627Y002583D01*
X021649Y002540D01*
X021669Y002496D01*
X021684Y002451D01*
X021696Y002404D01*
X021704Y002356D01*
X021708Y002308D01*
X021708Y002260D01*
X021704Y002212D01*
X021696Y002164D01*
X021684Y002117D01*
X021669Y002072D01*
X021649Y002028D01*
X021627Y001985D01*
X021601Y001944D01*
X021571Y001906D01*
X021539Y001870D01*
X021504Y001837D01*
X021466Y001807D01*
X021426Y001780D01*
X021384Y001757D01*
X021340Y001737D01*
X021295Y001720D01*
X021249Y001708D01*
X021201Y001699D01*
X021153Y001694D01*
X021105Y001693D01*
X021057Y001696D01*
X021009Y001703D01*
X020962Y001714D01*
X020916Y001728D01*
X020871Y001746D01*
X020828Y001768D01*
X020787Y001793D01*
X020749Y001822D01*
X020712Y001854D01*
X020678Y001888D01*
X020648Y001925D01*
X020620Y001964D01*
X020595Y002006D01*
X020575Y002050D01*
X020557Y002095D01*
X020544Y002141D01*
X020534Y002188D01*
X020528Y002236D01*
X020526Y002284D01*
D11*
X019446Y001230D02*
X019398Y001278D01*
X019301Y001278D01*
X019253Y001230D01*
X019446Y001230D02*
X019446Y001182D01*
X019253Y000988D01*
X019446Y000988D01*
X019152Y000988D02*
X018958Y000988D01*
X019055Y000988D02*
X019055Y001278D01*
X018958Y001182D01*
X018857Y001230D02*
X018809Y001278D01*
X018712Y001278D01*
X018663Y001230D01*
X018663Y001037D01*
X018712Y000988D01*
X018809Y000988D01*
X018857Y001037D01*
X018291Y001034D02*
X018243Y000986D01*
X018146Y000986D01*
X018097Y001034D01*
X018291Y001228D01*
X018291Y001034D01*
X018097Y001034D02*
X018097Y001228D01*
X018146Y001276D01*
X018243Y001276D01*
X018291Y001228D01*
X017996Y000986D02*
X017803Y000986D01*
X017900Y000986D02*
X017900Y001276D01*
X017803Y001179D01*
X017702Y001131D02*
X017702Y001228D01*
X017653Y001276D01*
X017508Y001276D01*
X017508Y000986D01*
X017508Y001083D02*
X017653Y001083D01*
X017702Y001131D01*
X017605Y001083D02*
X017702Y000986D01*
X016870Y001064D02*
X016870Y001258D01*
X016822Y001306D01*
X016725Y001306D01*
X016677Y001258D01*
X016677Y001209D01*
X016725Y001161D01*
X016870Y001161D01*
X016870Y001064D02*
X016822Y001016D01*
X016725Y001016D01*
X016677Y001064D01*
X016576Y001016D02*
X016479Y001113D01*
X016527Y001113D02*
X016382Y001113D01*
X016382Y001016D02*
X016382Y001306D01*
X016527Y001306D01*
X016576Y001258D01*
X016576Y001161D01*
X016527Y001113D01*
X015680Y001191D02*
X015487Y001191D01*
X015632Y001336D01*
X015632Y001046D01*
X015386Y001046D02*
X015289Y001143D01*
X015337Y001143D02*
X015192Y001143D01*
X015192Y001046D02*
X015192Y001336D01*
X015337Y001336D01*
X015386Y001288D01*
X015386Y001191D01*
X015337Y001143D01*
X014481Y001056D02*
X014287Y001056D01*
X014481Y001249D01*
X014481Y001298D01*
X014433Y001346D01*
X014336Y001346D01*
X014287Y001298D01*
X014090Y001346D02*
X014090Y001056D01*
X014186Y001056D02*
X013993Y001056D01*
X013892Y001056D02*
X013795Y001153D01*
X013843Y001153D02*
X013698Y001153D01*
X013698Y001056D02*
X013698Y001346D01*
X013843Y001346D01*
X013892Y001298D01*
X013892Y001201D01*
X013843Y001153D01*
X013993Y001249D02*
X014090Y001346D01*
X013265Y001318D02*
X013265Y001269D01*
X013216Y001221D01*
X013265Y001173D01*
X013265Y001124D01*
X013216Y001076D01*
X013120Y001076D01*
X013071Y001124D01*
X012970Y001076D02*
X012777Y001076D01*
X012873Y001076D02*
X012873Y001366D01*
X012777Y001269D01*
X012676Y001318D02*
X012627Y001366D01*
X012530Y001366D01*
X012482Y001318D01*
X012482Y001124D01*
X012530Y001076D01*
X012627Y001076D01*
X012676Y001124D01*
X013071Y001318D02*
X013120Y001366D01*
X013216Y001366D01*
X013265Y001318D01*
X013216Y001221D02*
X013168Y001221D01*
X012011Y005626D02*
X011764Y005626D01*
X011642Y005626D02*
X011395Y005626D01*
X011274Y005626D02*
X011151Y005749D01*
X011212Y005749D02*
X011027Y005749D01*
X011027Y005626D02*
X011027Y005996D01*
X011212Y005996D01*
X011274Y005934D01*
X011274Y005811D01*
X011212Y005749D01*
X011395Y005873D02*
X011519Y005996D01*
X011519Y005626D01*
X011764Y005873D02*
X011887Y005996D01*
X011887Y005626D01*
X008861Y005811D02*
X008614Y005811D01*
X008799Y005996D01*
X008799Y005626D01*
X008492Y005626D02*
X008245Y005626D01*
X008369Y005626D02*
X008369Y005996D01*
X008245Y005873D01*
X008124Y005934D02*
X008062Y005996D01*
X007939Y005996D01*
X007877Y005934D01*
X007877Y005687D01*
X007939Y005626D01*
X008062Y005626D01*
X008124Y005687D01*
X015132Y007246D02*
X015379Y007246D01*
X015500Y007246D02*
X015624Y007246D01*
X015562Y007246D02*
X015562Y007493D01*
X015500Y007493D01*
X015562Y007616D02*
X015562Y007678D01*
X015808Y007493D02*
X015746Y007431D01*
X015746Y007307D01*
X015808Y007246D01*
X015993Y007246D01*
X016114Y007307D02*
X016114Y007431D01*
X016176Y007493D01*
X016299Y007493D01*
X016361Y007431D01*
X016361Y007369D01*
X016114Y007369D01*
X016114Y007307D02*
X016176Y007246D01*
X016299Y007246D01*
X016483Y007246D02*
X016483Y007493D01*
X016668Y007493D01*
X016729Y007431D01*
X016729Y007246D01*
X016851Y007246D02*
X017036Y007246D01*
X017098Y007307D01*
X017036Y007369D01*
X016913Y007369D01*
X016851Y007431D01*
X016913Y007493D01*
X017098Y007493D01*
X017219Y007431D02*
X017281Y007493D01*
X017404Y007493D01*
X017466Y007431D01*
X017466Y007369D01*
X017219Y007369D01*
X017219Y007307D02*
X017219Y007431D01*
X017219Y007307D02*
X017281Y007246D01*
X017404Y007246D01*
X017587Y007246D02*
X017587Y007307D01*
X017649Y007307D01*
X017649Y007246D01*
X017587Y007246D01*
X017587Y007431D02*
X017587Y007493D01*
X017649Y007493D01*
X017649Y007431D01*
X017587Y007431D01*
X017685Y007876D02*
X017624Y007937D01*
X017685Y007876D02*
X017809Y007876D01*
X017870Y007937D01*
X017870Y008184D01*
X017809Y008246D01*
X017685Y008246D01*
X017624Y008184D01*
X017624Y008123D01*
X017685Y008061D01*
X017870Y008061D01*
X017502Y008184D02*
X017502Y007937D01*
X017440Y007876D01*
X017317Y007876D01*
X017255Y007937D01*
X017502Y008184D01*
X017440Y008246D01*
X017317Y008246D01*
X017255Y008184D01*
X017255Y007937D01*
X017134Y007937D02*
X017134Y008184D01*
X016887Y007937D01*
X016949Y007876D01*
X017072Y007876D01*
X017134Y007937D01*
X016887Y007937D02*
X016887Y008184D01*
X016949Y008246D01*
X017072Y008246D01*
X017134Y008184D01*
X016766Y008184D02*
X016704Y008246D01*
X016580Y008246D01*
X016519Y008184D01*
X016766Y008184D02*
X016766Y008123D01*
X016519Y007876D01*
X016766Y007876D01*
X016029Y007876D02*
X015844Y007876D01*
X015782Y007937D01*
X015782Y008061D01*
X015844Y008123D01*
X016029Y008123D01*
X015993Y007493D02*
X015808Y007493D01*
X015132Y007616D02*
X015132Y007246D01*
X017893Y009504D02*
X017941Y009456D01*
X018038Y009456D01*
X018086Y009504D01*
X018187Y009504D02*
X018236Y009456D01*
X018333Y009456D01*
X018381Y009504D01*
X018381Y009553D01*
X018333Y009601D01*
X018284Y009601D01*
X018333Y009601D02*
X018381Y009649D01*
X018381Y009698D01*
X018333Y009746D01*
X018236Y009746D01*
X018187Y009698D01*
X018086Y009698D02*
X018038Y009746D01*
X017941Y009746D01*
X017893Y009698D01*
X017893Y009504D01*
X018202Y007616D02*
X018140Y007554D01*
X018140Y007307D01*
X018202Y007246D01*
X018325Y007246D01*
X018387Y007307D01*
X018387Y007431D01*
X018263Y007431D01*
X018387Y007554D02*
X018325Y007616D01*
X018202Y007616D01*
X018508Y007616D02*
X018693Y007616D01*
X018755Y007554D01*
X018755Y007431D01*
X018693Y007369D01*
X018508Y007369D01*
X018508Y007246D02*
X018508Y007616D01*
X018876Y007616D02*
X018876Y007246D01*
X019123Y007246D01*
X018451Y015886D02*
X018257Y015886D01*
X018451Y016079D01*
X018451Y016128D01*
X018403Y016176D01*
X018306Y016176D01*
X018257Y016128D01*
X018156Y016128D02*
X018108Y016176D01*
X018011Y016176D01*
X017963Y016128D01*
X017963Y015934D01*
X018011Y015886D01*
X018108Y015886D01*
X018156Y015934D01*
X017151Y016158D02*
X016957Y015964D01*
X016957Y015916D01*
X016856Y015916D02*
X016663Y015916D01*
X016760Y015916D02*
X016760Y016206D01*
X016663Y016109D01*
X016562Y016061D02*
X016513Y016013D01*
X016368Y016013D01*
X016465Y016013D02*
X016562Y015916D01*
X016562Y016061D02*
X016562Y016158D01*
X016513Y016206D01*
X016368Y016206D01*
X016368Y015916D01*
X016957Y016206D02*
X017151Y016206D01*
X017151Y016158D01*
X017172Y022049D02*
X017221Y022097D01*
X017221Y022339D01*
X017076Y022339D01*
X017027Y022291D01*
X017027Y022194D01*
X017076Y022146D01*
X017221Y022146D01*
X017322Y022146D02*
X017515Y022436D01*
X017616Y022291D02*
X017665Y022339D01*
X017810Y022339D01*
X017911Y022339D02*
X017959Y022339D01*
X018008Y022291D01*
X018056Y022339D01*
X018105Y022291D01*
X018105Y022146D01*
X018008Y022146D02*
X018008Y022291D01*
X017911Y022339D02*
X017911Y022146D01*
X017810Y022194D02*
X017762Y022243D01*
X017665Y022243D01*
X017616Y022291D01*
X017616Y022146D02*
X017762Y022146D01*
X017810Y022194D01*
X018206Y022194D02*
X018206Y022291D01*
X018254Y022339D01*
X018399Y022339D01*
X018399Y022436D02*
X018399Y022146D01*
X018254Y022146D01*
X018206Y022194D01*
X018500Y022291D02*
X018694Y022291D01*
X018795Y022388D02*
X018843Y022436D01*
X018940Y022436D01*
X018989Y022388D01*
X018989Y022339D01*
X018940Y022291D01*
X018989Y022243D01*
X018989Y022194D01*
X018940Y022146D01*
X018843Y022146D01*
X018795Y022194D01*
X018892Y022291D02*
X018940Y022291D01*
X019090Y022194D02*
X019138Y022194D01*
X019138Y022146D01*
X019090Y022146D01*
X019090Y022194D01*
X019237Y022194D02*
X019431Y022388D01*
X019431Y022194D01*
X019382Y022146D01*
X019285Y022146D01*
X019237Y022194D01*
X019237Y022388D01*
X019285Y022436D01*
X019382Y022436D01*
X019431Y022388D01*
X017172Y022049D02*
X017124Y022049D01*
X016927Y022339D02*
X016878Y022339D01*
X016782Y022243D01*
X016782Y022339D02*
X016782Y022146D01*
X016681Y022194D02*
X016681Y022291D01*
X016632Y022339D01*
X016535Y022339D01*
X016487Y022291D01*
X016487Y022194D01*
X016535Y022146D01*
X016632Y022146D01*
X016681Y022194D01*
X016388Y022194D02*
X016388Y022146D01*
X016340Y022146D01*
X016340Y022194D01*
X016388Y022194D01*
X016240Y022291D02*
X016143Y022291D01*
X016192Y022388D02*
X016192Y022146D01*
X016192Y022388D02*
X016240Y022436D01*
X016043Y022339D02*
X015995Y022339D01*
X015898Y022243D01*
X015898Y022339D02*
X015898Y022146D01*
X015797Y022339D02*
X015749Y022339D01*
X015652Y022243D01*
X015652Y022339D02*
X015652Y022146D01*
X015552Y022339D02*
X015504Y022339D01*
X015407Y022243D01*
X015407Y022339D02*
X015407Y022146D01*
X015308Y022146D02*
X015259Y022146D01*
X015259Y022194D01*
X015308Y022194D01*
X015308Y022146D01*
X015158Y022243D02*
X014965Y022243D01*
X014965Y022291D02*
X015013Y022339D01*
X015110Y022339D01*
X015158Y022291D01*
X015158Y022243D01*
X015110Y022146D02*
X015013Y022146D01*
X014965Y022194D01*
X014965Y022291D01*
X014864Y022339D02*
X014719Y022243D01*
X014864Y022146D01*
X014719Y022146D02*
X014719Y022436D01*
X014618Y022291D02*
X014570Y022339D01*
X014473Y022339D01*
X014473Y022243D02*
X014618Y022243D01*
X014618Y022291D02*
X014618Y022146D01*
X014473Y022146D01*
X014425Y022194D01*
X014473Y022243D01*
X014323Y022291D02*
X014323Y022146D01*
X014227Y022146D02*
X014227Y022291D01*
X014275Y022339D01*
X014323Y022291D01*
X014227Y022291D02*
X014178Y022339D01*
X014130Y022339D01*
X014130Y022146D01*
X013736Y022146D02*
X013688Y022146D01*
X013688Y022194D01*
X013736Y022194D01*
X013736Y022146D01*
X013736Y022291D02*
X013688Y022291D01*
X013688Y022339D01*
X013736Y022339D01*
X013736Y022291D01*
X013587Y022339D02*
X013442Y022339D01*
X013393Y022291D01*
X013442Y022243D01*
X013539Y022243D01*
X013587Y022194D01*
X013539Y022146D01*
X013393Y022146D01*
X013292Y022146D02*
X013292Y022291D01*
X013244Y022339D01*
X013099Y022339D01*
X013099Y022146D01*
X012998Y022194D02*
X012998Y022291D01*
X012949Y022339D01*
X012852Y022339D01*
X012804Y022291D01*
X012804Y022194D01*
X012852Y022146D01*
X012949Y022146D01*
X012998Y022194D01*
X012704Y022146D02*
X012608Y022146D01*
X012656Y022146D02*
X012656Y022339D01*
X012608Y022339D01*
X012508Y022339D02*
X012411Y022339D01*
X012460Y022388D02*
X012460Y022194D01*
X012508Y022146D01*
X012310Y022146D02*
X012165Y022146D01*
X012117Y022194D01*
X012117Y022291D01*
X012165Y022339D01*
X012310Y022339D01*
X012015Y022339D02*
X012015Y022146D01*
X011870Y022146D01*
X011822Y022194D01*
X011822Y022339D01*
X011722Y022339D02*
X011673Y022339D01*
X011576Y022243D01*
X011576Y022339D02*
X011576Y022146D01*
X011477Y022146D02*
X011428Y022194D01*
X011428Y022388D01*
X011380Y022339D02*
X011477Y022339D01*
X011279Y022339D02*
X011134Y022339D01*
X011085Y022291D01*
X011134Y022243D01*
X011231Y022243D01*
X011279Y022194D01*
X011231Y022146D01*
X011085Y022146D01*
X010984Y022146D02*
X010984Y022291D01*
X010936Y022339D01*
X010791Y022339D01*
X010791Y022146D01*
X010691Y022146D02*
X010594Y022146D01*
X010643Y022146D02*
X010643Y022436D01*
X010691Y022436D02*
X010594Y022436D01*
X010199Y022388D02*
X010199Y022194D01*
X010150Y022146D01*
X010053Y022146D01*
X010005Y022194D01*
X010199Y022388D01*
X010150Y022436D01*
X010053Y022436D01*
X010005Y022388D01*
X010005Y022194D01*
X009906Y022194D02*
X009906Y022146D01*
X009858Y022146D01*
X009858Y022194D01*
X009906Y022194D01*
X009757Y022194D02*
X009708Y022146D01*
X009611Y022146D01*
X009563Y022194D01*
X009660Y022291D02*
X009708Y022291D01*
X009757Y022243D01*
X009757Y022194D01*
X009708Y022291D02*
X009757Y022339D01*
X009757Y022388D01*
X009708Y022436D01*
X009611Y022436D01*
X009563Y022388D01*
X009462Y022339D02*
X009365Y022146D01*
X009268Y022339D01*
X008873Y022339D02*
X008825Y022339D01*
X008728Y022243D01*
X008728Y022339D02*
X008728Y022146D01*
X008627Y022243D02*
X008434Y022243D01*
X008434Y022291D02*
X008482Y022339D01*
X008579Y022339D01*
X008627Y022291D01*
X008627Y022243D01*
X008579Y022146D02*
X008482Y022146D01*
X008434Y022194D01*
X008434Y022291D01*
X008332Y022339D02*
X008236Y022146D01*
X008139Y022339D01*
X007991Y022339D02*
X007991Y022146D01*
X007943Y022146D02*
X008039Y022146D01*
X007991Y022339D02*
X007943Y022339D01*
X007842Y022339D02*
X007794Y022339D01*
X007697Y022243D01*
X007697Y022339D02*
X007697Y022146D01*
X007596Y022194D02*
X007596Y022388D01*
X007548Y022436D01*
X007402Y022436D01*
X007402Y022146D01*
X007548Y022146D01*
X007596Y022194D01*
X007991Y022436D02*
X007991Y022484D01*
X007007Y022339D02*
X006959Y022339D01*
X006862Y022243D01*
X006862Y022339D02*
X006862Y022146D01*
X006761Y022194D02*
X006761Y022291D01*
X006713Y022339D01*
X006616Y022339D01*
X006568Y022291D01*
X006568Y022194D01*
X006616Y022146D01*
X006713Y022146D01*
X006761Y022194D01*
X006468Y022146D02*
X006420Y022194D01*
X006420Y022388D01*
X006468Y022339D02*
X006371Y022339D01*
X006270Y022291D02*
X006222Y022339D01*
X006125Y022339D01*
X006077Y022291D01*
X006077Y022194D01*
X006125Y022146D01*
X006222Y022146D01*
X006270Y022194D01*
X006270Y022291D01*
X005975Y022436D02*
X005975Y022146D01*
X005782Y022146D02*
X005782Y022436D01*
X005879Y022339D01*
X005975Y022436D01*
X005387Y022339D02*
X005338Y022339D01*
X005242Y022243D01*
X005242Y022339D02*
X005242Y022146D01*
X005141Y022243D02*
X004947Y022243D01*
X004947Y022291D02*
X004995Y022339D01*
X005092Y022339D01*
X005141Y022291D01*
X005141Y022243D01*
X005092Y022146D02*
X004995Y022146D01*
X004947Y022194D01*
X004947Y022291D01*
X004846Y022291D02*
X004846Y022194D01*
X004798Y022146D01*
X004652Y022146D01*
X004652Y022049D02*
X004652Y022339D01*
X004798Y022339D01*
X004846Y022291D01*
X004551Y022291D02*
X004551Y022194D01*
X004503Y022146D01*
X004358Y022146D01*
X004358Y022049D02*
X004358Y022339D01*
X004503Y022339D01*
X004551Y022291D01*
X004257Y022291D02*
X004257Y022243D01*
X004063Y022243D01*
X004063Y022291D02*
X004111Y022339D01*
X004208Y022339D01*
X004257Y022291D01*
X004208Y022146D02*
X004111Y022146D01*
X004063Y022194D01*
X004063Y022291D01*
X003963Y022339D02*
X003867Y022339D01*
X003915Y022388D02*
X003915Y022194D01*
X003963Y022146D01*
X003766Y022194D02*
X003717Y022146D01*
X003620Y022146D01*
X003572Y022194D01*
X003620Y022291D02*
X003717Y022291D01*
X003766Y022243D01*
X003766Y022194D01*
X003620Y022291D02*
X003572Y022339D01*
X003572Y022388D01*
X003620Y022436D01*
X003717Y022436D01*
X003766Y022388D01*
X007288Y016006D02*
X007433Y016006D01*
X007482Y015958D01*
X007482Y015861D01*
X007433Y015813D01*
X007288Y015813D01*
X007288Y015716D02*
X007288Y016006D01*
X007583Y016006D02*
X007583Y015716D01*
X007680Y015813D01*
X007776Y015716D01*
X007776Y016006D01*
X007877Y016006D02*
X008023Y016006D01*
X008071Y015958D01*
X008071Y015861D01*
X008023Y015813D01*
X007877Y015813D01*
X007974Y015813D02*
X008071Y015716D01*
X007877Y015716D02*
X007877Y016006D01*
X012656Y022436D02*
X012656Y022484D01*
D12*
X011123Y020843D02*
X010816Y020843D01*
X010816Y020536D02*
X011123Y020536D01*
X011277Y020689D01*
X011123Y020843D01*
X010970Y020382D02*
X010893Y020382D01*
X010816Y020306D01*
X010816Y020152D01*
X010893Y020075D01*
X010816Y019768D02*
X011277Y019768D01*
X011277Y019615D02*
X011277Y019922D01*
X011277Y020075D02*
X010970Y020382D01*
X011277Y020382D02*
X011277Y020075D01*
X010970Y019615D02*
X010816Y019768D01*
X010757Y018621D02*
X011064Y018621D01*
X011064Y018544D01*
X010757Y018237D01*
X010757Y018161D01*
X010604Y018237D02*
X010527Y018161D01*
X010374Y018161D01*
X010297Y018237D01*
X010297Y018544D01*
X010374Y018621D01*
X010527Y018621D01*
X010604Y018544D01*
X011503Y016111D02*
X011426Y016034D01*
X011426Y015727D01*
X011503Y015651D01*
X011656Y015651D01*
X011733Y015727D01*
X011887Y015881D02*
X012194Y015881D01*
X012117Y015651D02*
X012117Y016111D01*
X011887Y015881D01*
X011733Y016034D02*
X011656Y016111D01*
X011503Y016111D01*
X014637Y016707D02*
X014714Y016631D01*
X014867Y016631D01*
X014944Y016707D01*
X015097Y016707D02*
X015174Y016631D01*
X015328Y016631D01*
X015404Y016707D01*
X015404Y016861D01*
X015328Y016938D01*
X015251Y016938D01*
X015097Y016861D01*
X015097Y017091D01*
X015404Y017091D01*
X014944Y017014D02*
X014867Y017091D01*
X014714Y017091D01*
X014637Y017014D01*
X014637Y016707D01*
X014887Y019447D02*
X014811Y019524D01*
X014811Y019677D01*
X014887Y019754D01*
X015041Y019754D02*
X015041Y019600D01*
X015041Y019754D02*
X015194Y019754D01*
X015271Y019677D01*
X015271Y019524D01*
X015194Y019447D01*
X014887Y019447D01*
X014811Y019907D02*
X015271Y020214D01*
X014811Y020214D01*
X014811Y020368D02*
X014811Y020598D01*
X014887Y020674D01*
X015194Y020674D01*
X015271Y020598D01*
X015271Y020368D01*
X014811Y020368D01*
X014811Y019907D02*
X015271Y019907D01*
X018816Y020028D02*
X019276Y020028D01*
X018816Y019721D01*
X019276Y019721D01*
X019200Y020181D02*
X018893Y020181D01*
X018816Y020258D01*
X018816Y020412D01*
X018893Y020488D01*
X019200Y020488D02*
X019276Y020412D01*
X019276Y020258D01*
X019200Y020181D01*
X019746Y018138D02*
X019926Y018138D01*
X019986Y018077D01*
X019986Y017957D01*
X019926Y017897D01*
X019746Y017897D01*
X019746Y017777D02*
X019746Y018138D01*
X019866Y017897D02*
X019986Y017777D01*
X020115Y017837D02*
X020115Y017897D01*
X020175Y017957D01*
X020295Y017957D01*
X020355Y017897D01*
X020355Y017837D01*
X020295Y017777D01*
X020175Y017777D01*
X020115Y017837D01*
X020175Y017957D02*
X020115Y018017D01*
X020115Y018077D01*
X020175Y018138D01*
X020295Y018138D01*
X020355Y018077D01*
X020355Y018017D01*
X020295Y017957D01*
X009225Y006848D02*
X009225Y006771D01*
X009225Y006618D02*
X009225Y006311D01*
X009148Y006311D02*
X009302Y006311D01*
X009455Y006387D02*
X009532Y006311D01*
X009762Y006311D01*
X009762Y006234D02*
X009762Y006618D01*
X009532Y006618D01*
X009455Y006541D01*
X009455Y006387D01*
X009608Y006157D02*
X009685Y006157D01*
X009762Y006234D01*
X009915Y006311D02*
X009915Y006618D01*
X010146Y006618D01*
X010222Y006541D01*
X010222Y006311D01*
X010836Y006311D02*
X011066Y006311D01*
X011143Y006387D01*
X011143Y006464D01*
X011066Y006541D01*
X010836Y006541D01*
X010836Y006311D02*
X010836Y006771D01*
X011066Y006771D01*
X011143Y006694D01*
X011143Y006618D01*
X011066Y006541D01*
X011296Y006618D02*
X011296Y006387D01*
X011373Y006311D01*
X011603Y006311D01*
X011603Y006234D02*
X011527Y006157D01*
X011450Y006157D01*
X011603Y006234D02*
X011603Y006618D01*
X011757Y006618D02*
X011757Y006541D01*
X011834Y006541D01*
X011834Y006618D01*
X011757Y006618D01*
X011757Y006387D02*
X011757Y006311D01*
X011834Y006311D01*
X011834Y006387D01*
X011757Y006387D01*
X012447Y006311D02*
X012447Y006771D01*
X012601Y006618D01*
X012754Y006771D01*
X012754Y006311D01*
X012908Y006387D02*
X012984Y006464D01*
X013215Y006464D01*
X013215Y006541D02*
X013215Y006311D01*
X012984Y006311D01*
X012908Y006387D01*
X012984Y006618D02*
X013138Y006618D01*
X013215Y006541D01*
X013368Y006464D02*
X013598Y006618D01*
X013752Y006541D02*
X013828Y006618D01*
X013982Y006618D01*
X014059Y006541D01*
X014059Y006464D01*
X013752Y006464D01*
X013752Y006387D02*
X013752Y006541D01*
X013752Y006387D02*
X013828Y006311D01*
X013982Y006311D01*
X014212Y006311D02*
X014212Y006618D01*
X014365Y006618D02*
X014212Y006464D01*
X014365Y006618D02*
X014442Y006618D01*
X014596Y006541D02*
X014826Y006541D01*
X014903Y006464D01*
X014903Y006387D01*
X014826Y006311D01*
X014596Y006311D01*
X014596Y006771D01*
X014826Y006771D01*
X014903Y006694D01*
X014903Y006618D01*
X014826Y006541D01*
X015056Y006541D02*
X015056Y006387D01*
X015133Y006311D01*
X015286Y006311D01*
X015363Y006387D01*
X015363Y006541D01*
X015286Y006618D01*
X015133Y006618D01*
X015056Y006541D01*
X015516Y006618D02*
X015670Y006618D01*
X015593Y006694D02*
X015593Y006387D01*
X015670Y006311D01*
X015823Y006311D02*
X015823Y006387D01*
X015900Y006387D01*
X015900Y006311D01*
X015823Y006311D01*
X016053Y006387D02*
X016130Y006311D01*
X016360Y006311D01*
X016514Y006387D02*
X016590Y006311D01*
X016744Y006311D01*
X016821Y006387D01*
X016821Y006541D01*
X016744Y006618D01*
X016590Y006618D01*
X016514Y006541D01*
X016514Y006387D01*
X016360Y006618D02*
X016130Y006618D01*
X016053Y006541D01*
X016053Y006387D01*
X016974Y006311D02*
X016974Y006618D01*
X017051Y006618D01*
X017128Y006541D01*
X017204Y006618D01*
X017281Y006541D01*
X017281Y006311D01*
X017128Y006311D02*
X017128Y006541D01*
X013598Y006311D02*
X013368Y006464D01*
X013368Y006311D02*
X013368Y006771D01*
X009225Y006618D02*
X009148Y006618D01*
X008995Y006618D02*
X008764Y006618D01*
X008688Y006541D01*
X008764Y006464D01*
X008918Y006464D01*
X008995Y006387D01*
X008918Y006311D01*
X008688Y006311D01*
X008534Y006464D02*
X008227Y006464D01*
X008227Y006387D02*
X008227Y006541D01*
X008304Y006618D01*
X008458Y006618D01*
X008534Y006541D01*
X008534Y006464D01*
X008458Y006311D02*
X008304Y006311D01*
X008227Y006387D01*
X008074Y006387D02*
X008074Y006694D01*
X007997Y006771D01*
X007767Y006771D01*
X007767Y006311D01*
X007997Y006311D01*
X008074Y006387D01*
X007197Y006657D02*
X007120Y006580D01*
X006813Y006580D01*
X006737Y006657D01*
X006737Y006810D01*
X006813Y006887D01*
X006813Y007040D02*
X006890Y007040D01*
X006967Y007117D01*
X006967Y007347D01*
X007120Y007347D02*
X007197Y007271D01*
X007197Y007117D01*
X007120Y007040D01*
X007120Y006887D02*
X007197Y006810D01*
X007197Y006657D01*
X006813Y007040D02*
X006737Y007117D01*
X006737Y007271D01*
X006813Y007347D01*
X007120Y007347D01*
X005927Y007327D02*
X005927Y007020D01*
X005927Y007173D02*
X005467Y007173D01*
X005620Y007020D01*
X005543Y006867D02*
X005697Y006867D01*
X005774Y006790D01*
X005774Y006560D01*
X005774Y006713D02*
X005927Y006867D01*
X005927Y006560D02*
X005467Y006560D01*
X005467Y006790D01*
X005543Y006867D01*
X005543Y007480D02*
X005467Y007557D01*
X005467Y007711D01*
X005543Y007787D01*
X005620Y007787D01*
X005697Y007711D01*
X005774Y007787D01*
X005850Y007787D01*
X005927Y007711D01*
X005927Y007557D01*
X005850Y007480D01*
X005697Y007634D02*
X005697Y007711D01*
X004677Y007721D02*
X004217Y007721D01*
X004447Y007490D01*
X004447Y007797D01*
X004677Y007337D02*
X004677Y007030D01*
X004677Y007183D02*
X004217Y007183D01*
X004370Y007030D01*
X004293Y006877D02*
X004447Y006877D01*
X004524Y006800D01*
X004524Y006570D01*
X004677Y006570D02*
X004217Y006570D01*
X004217Y006800D01*
X004293Y006877D01*
X004524Y006723D02*
X004677Y006877D01*
X004753Y009301D02*
X004676Y009377D01*
X004676Y009684D01*
X004753Y009761D01*
X004906Y009761D01*
X004983Y009684D01*
X005137Y009608D02*
X005290Y009761D01*
X005290Y009301D01*
X005137Y009301D02*
X005444Y009301D01*
X004983Y009377D02*
X004906Y009301D01*
X004753Y009301D01*
X005937Y013360D02*
X005937Y013590D01*
X006013Y013667D01*
X006167Y013667D01*
X006244Y013590D01*
X006244Y013360D01*
X006397Y013360D02*
X005937Y013360D01*
X006244Y013513D02*
X006397Y013667D01*
X006397Y013820D02*
X006090Y014127D01*
X006013Y014127D01*
X005937Y014051D01*
X005937Y013897D01*
X006013Y013820D01*
X006397Y013820D02*
X006397Y014127D01*
X006517Y014744D02*
X006757Y014744D01*
X006817Y014804D01*
X006817Y014924D01*
X006757Y014984D01*
X006757Y015112D02*
X006697Y015112D01*
X006637Y015173D01*
X006637Y015293D01*
X006697Y015353D01*
X006757Y015353D01*
X006817Y015293D01*
X006817Y015173D01*
X006757Y015112D01*
X006637Y015173D02*
X006577Y015112D01*
X006517Y015112D01*
X006457Y015173D01*
X006457Y015293D01*
X006517Y015353D01*
X006577Y015353D01*
X006637Y015293D01*
X006517Y014984D02*
X006457Y014924D01*
X006457Y014804D01*
X006517Y014744D01*
X004624Y019441D02*
X004471Y019441D01*
X004394Y019517D01*
X004241Y019517D02*
X004164Y019441D01*
X004011Y019441D01*
X003934Y019517D01*
X003934Y019824D01*
X004011Y019901D01*
X004164Y019901D01*
X004241Y019824D01*
X004394Y019824D02*
X004471Y019901D01*
X004624Y019901D01*
X004701Y019824D01*
X004701Y019748D01*
X004624Y019671D01*
X004701Y019594D01*
X004701Y019517D01*
X004624Y019441D01*
X004624Y019671D02*
X004548Y019671D01*
X003781Y019441D02*
X003627Y019441D01*
X003704Y019441D02*
X003704Y019901D01*
X003627Y019901D02*
X003781Y019901D01*
X006197Y019871D02*
X006197Y019631D01*
X006257Y019571D01*
X006377Y019571D01*
X006437Y019631D01*
X006565Y019631D02*
X006625Y019571D01*
X006746Y019571D01*
X006806Y019631D01*
X006806Y019691D01*
X006746Y019751D01*
X006565Y019751D01*
X006565Y019631D01*
X006565Y019751D02*
X006685Y019871D01*
X006806Y019931D01*
X006437Y019871D02*
X006377Y019931D01*
X006257Y019931D01*
X006197Y019871D01*
X022087Y004418D02*
X022163Y004265D01*
X022317Y004111D01*
X022317Y004341D01*
X022394Y004418D01*
X022470Y004418D01*
X022547Y004341D01*
X022547Y004188D01*
X022470Y004111D01*
X022317Y004111D01*
X022317Y003958D02*
X022394Y003881D01*
X022394Y003651D01*
X022547Y003651D02*
X022087Y003651D01*
X022087Y003881D01*
X022163Y003958D01*
X022317Y003958D01*
X022394Y003804D02*
X022547Y003958D01*
D13*
X021611Y003872D02*
X021511Y003772D01*
X020861Y003772D01*
X020361Y003772D02*
X019011Y003772D01*
X018911Y003872D01*
X018911Y006372D01*
X019011Y006472D01*
X020361Y006472D01*
X020861Y006472D02*
X021511Y006472D01*
X021611Y006372D01*
X021611Y006122D01*
X021611Y005372D01*
X021461Y005522D02*
X021461Y006122D01*
X021611Y006122D01*
X020861Y005272D02*
X020561Y005272D01*
X020411Y005272D01*
X020261Y005422D01*
X020261Y005722D01*
X019961Y005722D01*
X019961Y005422D01*
X019811Y005272D01*
X019661Y005272D01*
X019361Y005272D01*
X019361Y004972D01*
X019661Y004972D01*
X019811Y004972D01*
X019961Y004822D01*
X019961Y004522D01*
X020261Y004522D01*
X020261Y004822D01*
X020411Y004972D01*
X020561Y004972D01*
X020861Y004972D01*
X020861Y005272D01*
X020561Y005272D02*
X020561Y004972D01*
X019661Y004972D02*
X019661Y005272D01*
X018687Y005312D02*
X018687Y004885D01*
X018047Y004885D01*
X018047Y005312D01*
X018047Y005530D02*
X018047Y005957D01*
X018367Y005743D02*
X018367Y005530D01*
X018687Y005530D02*
X018047Y005530D01*
X018367Y005099D02*
X018367Y004885D01*
X018367Y004668D02*
X018153Y004668D01*
X018047Y004561D01*
X018047Y004241D01*
X018687Y004241D01*
X018474Y004241D02*
X018474Y004561D01*
X018367Y004668D01*
X018474Y004454D02*
X018687Y004668D01*
X019767Y002284D02*
X019769Y002357D01*
X019775Y002430D01*
X019785Y002502D01*
X019799Y002574D01*
X019816Y002645D01*
X019838Y002715D01*
X019863Y002784D01*
X019892Y002851D01*
X019924Y002916D01*
X019960Y002980D01*
X020000Y003042D01*
X020042Y003101D01*
X020088Y003158D01*
X020137Y003212D01*
X020189Y003264D01*
X020243Y003313D01*
X020300Y003359D01*
X020359Y003401D01*
X020421Y003441D01*
X020485Y003477D01*
X020550Y003509D01*
X020617Y003538D01*
X020686Y003563D01*
X020756Y003585D01*
X020827Y003602D01*
X020899Y003616D01*
X020971Y003626D01*
X021044Y003632D01*
X021117Y003634D01*
X021190Y003632D01*
X021263Y003626D01*
X021335Y003616D01*
X021407Y003602D01*
X021478Y003585D01*
X021548Y003563D01*
X021617Y003538D01*
X021684Y003509D01*
X021749Y003477D01*
X021813Y003441D01*
X021875Y003401D01*
X021934Y003359D01*
X021991Y003313D01*
X022045Y003264D01*
X022097Y003212D01*
X022146Y003158D01*
X022192Y003101D01*
X022234Y003042D01*
X022274Y002980D01*
X022310Y002916D01*
X022342Y002851D01*
X022371Y002784D01*
X022396Y002715D01*
X022418Y002645D01*
X022435Y002574D01*
X022449Y002502D01*
X022459Y002430D01*
X022465Y002357D01*
X022467Y002284D01*
X022465Y002211D01*
X022459Y002138D01*
X022449Y002066D01*
X022435Y001994D01*
X022418Y001923D01*
X022396Y001853D01*
X022371Y001784D01*
X022342Y001717D01*
X022310Y001652D01*
X022274Y001588D01*
X022234Y001526D01*
X022192Y001467D01*
X022146Y001410D01*
X022097Y001356D01*
X022045Y001304D01*
X021991Y001255D01*
X021934Y001209D01*
X021875Y001167D01*
X021813Y001127D01*
X021749Y001091D01*
X021684Y001059D01*
X021617Y001030D01*
X021548Y001005D01*
X021478Y000983D01*
X021407Y000966D01*
X021335Y000952D01*
X021263Y000942D01*
X021190Y000936D01*
X021117Y000934D01*
X021044Y000936D01*
X020971Y000942D01*
X020899Y000952D01*
X020827Y000966D01*
X020756Y000983D01*
X020686Y001005D01*
X020617Y001030D01*
X020550Y001059D01*
X020485Y001091D01*
X020421Y001127D01*
X020359Y001167D01*
X020300Y001209D01*
X020243Y001255D01*
X020189Y001304D01*
X020137Y001356D01*
X020088Y001410D01*
X020042Y001467D01*
X020000Y001526D01*
X019960Y001588D01*
X019924Y001652D01*
X019892Y001717D01*
X019863Y001784D01*
X019838Y001853D01*
X019816Y001923D01*
X019799Y001994D01*
X019785Y002066D01*
X019775Y002138D01*
X019769Y002211D01*
X019767Y002284D01*
X021611Y003872D02*
X021611Y004122D01*
X021611Y004872D01*
X021461Y004722D02*
X021461Y004122D01*
X021611Y004122D01*
X012067Y004211D02*
X012067Y000711D01*
X010217Y000711D01*
X010067Y000911D01*
X009867Y000911D01*
X009267Y000911D01*
X009067Y000911D01*
X008917Y000711D01*
X008867Y000711D01*
X008867Y001111D01*
X008867Y001211D01*
X009267Y001211D01*
X009867Y001211D01*
X009867Y001111D01*
X009867Y000911D01*
X009867Y001211D02*
X011567Y001211D01*
X011567Y003711D01*
X004567Y003711D01*
X004567Y001211D01*
X007267Y001211D01*
X007267Y001111D01*
X007267Y000711D01*
X006317Y000711D01*
X006317Y000761D01*
X005817Y000761D01*
X005817Y000711D01*
X004067Y000711D01*
X004067Y004211D01*
X004567Y004211D01*
X004567Y004311D01*
X005067Y004311D01*
X005067Y004211D01*
X007817Y004211D01*
X007817Y004311D01*
X008317Y004311D01*
X008317Y004211D01*
X011067Y004211D01*
X011067Y004311D01*
X011567Y004311D01*
X011567Y004211D01*
X012067Y004211D01*
X009267Y001211D02*
X009267Y001111D01*
X009267Y000911D01*
X008867Y000711D02*
X007267Y000711D01*
X007267Y001211D02*
X007267Y001511D01*
X008867Y001511D01*
X008867Y001211D01*
X001224Y002284D02*
X001226Y002357D01*
X001232Y002430D01*
X001242Y002502D01*
X001256Y002574D01*
X001273Y002645D01*
X001295Y002715D01*
X001320Y002784D01*
X001349Y002851D01*
X001381Y002916D01*
X001417Y002980D01*
X001457Y003042D01*
X001499Y003101D01*
X001545Y003158D01*
X001594Y003212D01*
X001646Y003264D01*
X001700Y003313D01*
X001757Y003359D01*
X001816Y003401D01*
X001878Y003441D01*
X001942Y003477D01*
X002007Y003509D01*
X002074Y003538D01*
X002143Y003563D01*
X002213Y003585D01*
X002284Y003602D01*
X002356Y003616D01*
X002428Y003626D01*
X002501Y003632D01*
X002574Y003634D01*
X002647Y003632D01*
X002720Y003626D01*
X002792Y003616D01*
X002864Y003602D01*
X002935Y003585D01*
X003005Y003563D01*
X003074Y003538D01*
X003141Y003509D01*
X003206Y003477D01*
X003270Y003441D01*
X003332Y003401D01*
X003391Y003359D01*
X003448Y003313D01*
X003502Y003264D01*
X003554Y003212D01*
X003603Y003158D01*
X003649Y003101D01*
X003691Y003042D01*
X003731Y002980D01*
X003767Y002916D01*
X003799Y002851D01*
X003828Y002784D01*
X003853Y002715D01*
X003875Y002645D01*
X003892Y002574D01*
X003906Y002502D01*
X003916Y002430D01*
X003922Y002357D01*
X003924Y002284D01*
X003922Y002211D01*
X003916Y002138D01*
X003906Y002066D01*
X003892Y001994D01*
X003875Y001923D01*
X003853Y001853D01*
X003828Y001784D01*
X003799Y001717D01*
X003767Y001652D01*
X003731Y001588D01*
X003691Y001526D01*
X003649Y001467D01*
X003603Y001410D01*
X003554Y001356D01*
X003502Y001304D01*
X003448Y001255D01*
X003391Y001209D01*
X003332Y001167D01*
X003270Y001127D01*
X003206Y001091D01*
X003141Y001059D01*
X003074Y001030D01*
X003005Y001005D01*
X002935Y000983D01*
X002864Y000966D01*
X002792Y000952D01*
X002720Y000942D01*
X002647Y000936D01*
X002574Y000934D01*
X002501Y000936D01*
X002428Y000942D01*
X002356Y000952D01*
X002284Y000966D01*
X002213Y000983D01*
X002143Y001005D01*
X002074Y001030D01*
X002007Y001059D01*
X001942Y001091D01*
X001878Y001127D01*
X001816Y001167D01*
X001757Y001209D01*
X001700Y001255D01*
X001646Y001304D01*
X001594Y001356D01*
X001545Y001410D01*
X001499Y001467D01*
X001457Y001526D01*
X001417Y001588D01*
X001381Y001652D01*
X001349Y001717D01*
X001320Y001784D01*
X001295Y001853D01*
X001273Y001923D01*
X001256Y001994D01*
X001242Y002066D01*
X001232Y002138D01*
X001226Y002211D01*
X001224Y002284D01*
X011237Y009009D02*
X011237Y009222D01*
X011237Y009116D02*
X011877Y009116D01*
X011877Y009222D02*
X011877Y009009D01*
X011770Y009439D02*
X011343Y009439D01*
X011237Y009545D01*
X011237Y009759D01*
X011343Y009866D01*
X011450Y010083D02*
X011237Y010297D01*
X011877Y010297D01*
X011877Y010510D02*
X011877Y010083D01*
X011770Y009866D02*
X011877Y009759D01*
X011877Y009545D01*
X011770Y009439D01*
X004007Y017911D02*
X004009Y017991D01*
X004015Y018070D01*
X004025Y018149D01*
X004039Y018228D01*
X004056Y018306D01*
X004078Y018383D01*
X004103Y018458D01*
X004133Y018532D01*
X004165Y018605D01*
X004202Y018676D01*
X004242Y018745D01*
X004285Y018812D01*
X004332Y018877D01*
X004381Y018939D01*
X004434Y018999D01*
X004490Y019056D01*
X004548Y019111D01*
X004609Y019162D01*
X004673Y019210D01*
X004739Y019255D01*
X004807Y019297D01*
X004877Y019335D01*
X004949Y019369D01*
X005022Y019400D01*
X005097Y019428D01*
X005174Y019451D01*
X005251Y019471D01*
X005329Y019487D01*
X005408Y019499D01*
X005487Y019507D01*
X005567Y019511D01*
X005647Y019511D01*
X005727Y019507D01*
X005806Y019499D01*
X005885Y019487D01*
X005963Y019471D01*
X006040Y019451D01*
X006117Y019428D01*
X006192Y019400D01*
X006265Y019369D01*
X006337Y019335D01*
X006407Y019297D01*
X006475Y019255D01*
X006541Y019210D01*
X006605Y019162D01*
X006666Y019111D01*
X006724Y019056D01*
X006780Y018999D01*
X006833Y018939D01*
X006882Y018877D01*
X006929Y018812D01*
X006972Y018745D01*
X007012Y018676D01*
X007049Y018605D01*
X007081Y018532D01*
X007111Y018458D01*
X007136Y018383D01*
X007158Y018306D01*
X007175Y018228D01*
X007189Y018149D01*
X007199Y018070D01*
X007205Y017991D01*
X007207Y017911D01*
X007205Y017831D01*
X007199Y017752D01*
X007189Y017673D01*
X007175Y017594D01*
X007158Y017516D01*
X007136Y017439D01*
X007111Y017364D01*
X007081Y017290D01*
X007049Y017217D01*
X007012Y017146D01*
X006972Y017077D01*
X006929Y017010D01*
X006882Y016945D01*
X006833Y016883D01*
X006780Y016823D01*
X006724Y016766D01*
X006666Y016711D01*
X006605Y016660D01*
X006541Y016612D01*
X006475Y016567D01*
X006407Y016525D01*
X006337Y016487D01*
X006265Y016453D01*
X006192Y016422D01*
X006117Y016394D01*
X006040Y016371D01*
X005963Y016351D01*
X005885Y016335D01*
X005806Y016323D01*
X005727Y016315D01*
X005647Y016311D01*
X005567Y016311D01*
X005487Y016315D01*
X005408Y016323D01*
X005329Y016335D01*
X005251Y016351D01*
X005174Y016371D01*
X005097Y016394D01*
X005022Y016422D01*
X004949Y016453D01*
X004877Y016487D01*
X004807Y016525D01*
X004739Y016567D01*
X004673Y016612D01*
X004609Y016660D01*
X004548Y016711D01*
X004490Y016766D01*
X004434Y016823D01*
X004381Y016883D01*
X004332Y016945D01*
X004285Y017010D01*
X004242Y017077D01*
X004202Y017146D01*
X004165Y017217D01*
X004133Y017290D01*
X004103Y017364D01*
X004078Y017439D01*
X004056Y017516D01*
X004039Y017594D01*
X004025Y017673D01*
X004015Y017752D01*
X004009Y017831D01*
X004007Y017911D01*
X004407Y018211D02*
X004407Y018511D01*
X004257Y018361D02*
X004557Y018361D01*
X005227Y019806D02*
X005227Y019963D01*
X005777Y020026D02*
X005777Y021676D01*
X005227Y021738D02*
X005227Y021896D01*
X005227Y020963D02*
X005227Y020738D01*
X005777Y020026D02*
X005726Y019989D01*
X005673Y019954D01*
X005617Y019922D01*
X005560Y019894D01*
X005501Y019870D01*
X005441Y019849D01*
X005380Y019832D01*
X005318Y019818D01*
X005255Y019809D01*
X005192Y019803D01*
X005128Y019801D01*
X005064Y019803D01*
X005001Y019809D01*
X004938Y019818D01*
X004876Y019831D01*
X004815Y019849D01*
X004755Y019869D01*
X004696Y019894D01*
X004639Y019921D01*
X004583Y019953D01*
X004530Y019987D01*
X004479Y020025D01*
X004430Y020066D01*
X004384Y020110D01*
X004340Y020156D01*
X004299Y020205D01*
X004262Y020256D01*
X004227Y020310D01*
X004196Y020365D01*
X004168Y020422D01*
X004144Y020481D01*
X004124Y020541D01*
X004124Y021161D02*
X004144Y021221D01*
X004168Y021280D01*
X004196Y021337D01*
X004227Y021392D01*
X004262Y021446D01*
X004299Y021497D01*
X004340Y021546D01*
X004384Y021592D01*
X004430Y021636D01*
X004479Y021677D01*
X004530Y021715D01*
X004583Y021749D01*
X004639Y021781D01*
X004696Y021808D01*
X004755Y021833D01*
X004815Y021853D01*
X004876Y021871D01*
X004938Y021884D01*
X005001Y021893D01*
X005064Y021899D01*
X005128Y021901D01*
X005192Y021899D01*
X005255Y021893D01*
X005318Y021884D01*
X005380Y021870D01*
X005441Y021853D01*
X005501Y021832D01*
X005560Y021808D01*
X005617Y021780D01*
X005673Y021748D01*
X005726Y021713D01*
X005777Y021676D01*
X007147Y020181D02*
X007149Y020261D01*
X007155Y020340D01*
X007165Y020419D01*
X007179Y020498D01*
X007196Y020576D01*
X007218Y020653D01*
X007243Y020728D01*
X007273Y020802D01*
X007305Y020875D01*
X007342Y020946D01*
X007382Y021015D01*
X007425Y021082D01*
X007472Y021147D01*
X007521Y021209D01*
X007574Y021269D01*
X007630Y021326D01*
X007688Y021381D01*
X007749Y021432D01*
X007813Y021480D01*
X007879Y021525D01*
X007947Y021567D01*
X008017Y021605D01*
X008089Y021639D01*
X008162Y021670D01*
X008237Y021698D01*
X008314Y021721D01*
X008391Y021741D01*
X008469Y021757D01*
X008548Y021769D01*
X008627Y021777D01*
X008707Y021781D01*
X008787Y021781D01*
X008867Y021777D01*
X008946Y021769D01*
X009025Y021757D01*
X009103Y021741D01*
X009180Y021721D01*
X009257Y021698D01*
X009332Y021670D01*
X009405Y021639D01*
X009477Y021605D01*
X009547Y021567D01*
X009615Y021525D01*
X009681Y021480D01*
X009745Y021432D01*
X009806Y021381D01*
X009864Y021326D01*
X009920Y021269D01*
X009973Y021209D01*
X010022Y021147D01*
X010069Y021082D01*
X010112Y021015D01*
X010152Y020946D01*
X010189Y020875D01*
X010221Y020802D01*
X010251Y020728D01*
X010276Y020653D01*
X010298Y020576D01*
X010315Y020498D01*
X010329Y020419D01*
X010339Y020340D01*
X010345Y020261D01*
X010347Y020181D01*
X010345Y020101D01*
X010339Y020022D01*
X010329Y019943D01*
X010315Y019864D01*
X010298Y019786D01*
X010276Y019709D01*
X010251Y019634D01*
X010221Y019560D01*
X010189Y019487D01*
X010152Y019416D01*
X010112Y019347D01*
X010069Y019280D01*
X010022Y019215D01*
X009973Y019153D01*
X009920Y019093D01*
X009864Y019036D01*
X009806Y018981D01*
X009745Y018930D01*
X009681Y018882D01*
X009615Y018837D01*
X009547Y018795D01*
X009477Y018757D01*
X009405Y018723D01*
X009332Y018692D01*
X009257Y018664D01*
X009180Y018641D01*
X009103Y018621D01*
X009025Y018605D01*
X008946Y018593D01*
X008867Y018585D01*
X008787Y018581D01*
X008707Y018581D01*
X008627Y018585D01*
X008548Y018593D01*
X008469Y018605D01*
X008391Y018621D01*
X008314Y018641D01*
X008237Y018664D01*
X008162Y018692D01*
X008089Y018723D01*
X008017Y018757D01*
X007947Y018795D01*
X007879Y018837D01*
X007813Y018882D01*
X007749Y018930D01*
X007688Y018981D01*
X007630Y019036D01*
X007574Y019093D01*
X007521Y019153D01*
X007472Y019215D01*
X007425Y019280D01*
X007382Y019347D01*
X007342Y019416D01*
X007305Y019487D01*
X007273Y019560D01*
X007243Y019634D01*
X007218Y019709D01*
X007196Y019786D01*
X007179Y019864D01*
X007165Y019943D01*
X007155Y020022D01*
X007149Y020101D01*
X007147Y020181D01*
X009047Y021381D02*
X009347Y021381D01*
X009197Y021531D02*
X009197Y021231D01*
X001185Y020828D02*
X001187Y020901D01*
X001193Y020974D01*
X001203Y021046D01*
X001217Y021118D01*
X001234Y021189D01*
X001256Y021259D01*
X001281Y021328D01*
X001310Y021395D01*
X001342Y021460D01*
X001378Y021524D01*
X001418Y021586D01*
X001460Y021645D01*
X001506Y021702D01*
X001555Y021756D01*
X001607Y021808D01*
X001661Y021857D01*
X001718Y021903D01*
X001777Y021945D01*
X001839Y021985D01*
X001903Y022021D01*
X001968Y022053D01*
X002035Y022082D01*
X002104Y022107D01*
X002174Y022129D01*
X002245Y022146D01*
X002317Y022160D01*
X002389Y022170D01*
X002462Y022176D01*
X002535Y022178D01*
X002608Y022176D01*
X002681Y022170D01*
X002753Y022160D01*
X002825Y022146D01*
X002896Y022129D01*
X002966Y022107D01*
X003035Y022082D01*
X003102Y022053D01*
X003167Y022021D01*
X003231Y021985D01*
X003293Y021945D01*
X003352Y021903D01*
X003409Y021857D01*
X003463Y021808D01*
X003515Y021756D01*
X003564Y021702D01*
X003610Y021645D01*
X003652Y021586D01*
X003692Y021524D01*
X003728Y021460D01*
X003760Y021395D01*
X003789Y021328D01*
X003814Y021259D01*
X003836Y021189D01*
X003853Y021118D01*
X003867Y021046D01*
X003877Y020974D01*
X003883Y020901D01*
X003885Y020828D01*
X003883Y020755D01*
X003877Y020682D01*
X003867Y020610D01*
X003853Y020538D01*
X003836Y020467D01*
X003814Y020397D01*
X003789Y020328D01*
X003760Y020261D01*
X003728Y020196D01*
X003692Y020132D01*
X003652Y020070D01*
X003610Y020011D01*
X003564Y019954D01*
X003515Y019900D01*
X003463Y019848D01*
X003409Y019799D01*
X003352Y019753D01*
X003293Y019711D01*
X003231Y019671D01*
X003167Y019635D01*
X003102Y019603D01*
X003035Y019574D01*
X002966Y019549D01*
X002896Y019527D01*
X002825Y019510D01*
X002753Y019496D01*
X002681Y019486D01*
X002608Y019480D01*
X002535Y019478D01*
X002462Y019480D01*
X002389Y019486D01*
X002317Y019496D01*
X002245Y019510D01*
X002174Y019527D01*
X002104Y019549D01*
X002035Y019574D01*
X001968Y019603D01*
X001903Y019635D01*
X001839Y019671D01*
X001777Y019711D01*
X001718Y019753D01*
X001661Y019799D01*
X001607Y019848D01*
X001555Y019900D01*
X001506Y019954D01*
X001460Y020011D01*
X001418Y020070D01*
X001378Y020132D01*
X001342Y020196D01*
X001310Y020261D01*
X001281Y020328D01*
X001256Y020397D01*
X001234Y020467D01*
X001217Y020538D01*
X001203Y020610D01*
X001193Y020682D01*
X001187Y020755D01*
X001185Y020828D01*
X019767Y020828D02*
X019769Y020901D01*
X019775Y020974D01*
X019785Y021046D01*
X019799Y021118D01*
X019816Y021189D01*
X019838Y021259D01*
X019863Y021328D01*
X019892Y021395D01*
X019924Y021460D01*
X019960Y021524D01*
X020000Y021586D01*
X020042Y021645D01*
X020088Y021702D01*
X020137Y021756D01*
X020189Y021808D01*
X020243Y021857D01*
X020300Y021903D01*
X020359Y021945D01*
X020421Y021985D01*
X020485Y022021D01*
X020550Y022053D01*
X020617Y022082D01*
X020686Y022107D01*
X020756Y022129D01*
X020827Y022146D01*
X020899Y022160D01*
X020971Y022170D01*
X021044Y022176D01*
X021117Y022178D01*
X021190Y022176D01*
X021263Y022170D01*
X021335Y022160D01*
X021407Y022146D01*
X021478Y022129D01*
X021548Y022107D01*
X021617Y022082D01*
X021684Y022053D01*
X021749Y022021D01*
X021813Y021985D01*
X021875Y021945D01*
X021934Y021903D01*
X021991Y021857D01*
X022045Y021808D01*
X022097Y021756D01*
X022146Y021702D01*
X022192Y021645D01*
X022234Y021586D01*
X022274Y021524D01*
X022310Y021460D01*
X022342Y021395D01*
X022371Y021328D01*
X022396Y021259D01*
X022418Y021189D01*
X022435Y021118D01*
X022449Y021046D01*
X022459Y020974D01*
X022465Y020901D01*
X022467Y020828D01*
X022465Y020755D01*
X022459Y020682D01*
X022449Y020610D01*
X022435Y020538D01*
X022418Y020467D01*
X022396Y020397D01*
X022371Y020328D01*
X022342Y020261D01*
X022310Y020196D01*
X022274Y020132D01*
X022234Y020070D01*
X022192Y020011D01*
X022146Y019954D01*
X022097Y019900D01*
X022045Y019848D01*
X021991Y019799D01*
X021934Y019753D01*
X021875Y019711D01*
X021813Y019671D01*
X021749Y019635D01*
X021684Y019603D01*
X021617Y019574D01*
X021548Y019549D01*
X021478Y019527D01*
X021407Y019510D01*
X021335Y019496D01*
X021263Y019486D01*
X021190Y019480D01*
X021117Y019478D01*
X021044Y019480D01*
X020971Y019486D01*
X020899Y019496D01*
X020827Y019510D01*
X020756Y019527D01*
X020686Y019549D01*
X020617Y019574D01*
X020550Y019603D01*
X020485Y019635D01*
X020421Y019671D01*
X020359Y019711D01*
X020300Y019753D01*
X020243Y019799D01*
X020189Y019848D01*
X020137Y019900D01*
X020088Y019954D01*
X020042Y020011D01*
X020000Y020070D01*
X019960Y020132D01*
X019924Y020196D01*
X019892Y020261D01*
X019863Y020328D01*
X019838Y020397D01*
X019816Y020467D01*
X019799Y020538D01*
X019785Y020610D01*
X019775Y020682D01*
X019769Y020755D01*
X019767Y020828D01*
D14*
X018450Y015068D02*
X017923Y015068D01*
X017791Y014937D01*
X017791Y014541D01*
X018582Y014541D01*
X018582Y014937D01*
X018450Y015068D01*
X018450Y014277D02*
X018582Y014145D01*
X018582Y013881D01*
X018450Y013749D01*
X017923Y013749D01*
X017791Y013881D01*
X017791Y014145D01*
X017923Y014277D01*
X017923Y013485D02*
X018055Y013485D01*
X018187Y013353D01*
X018187Y012958D01*
X018187Y013353D02*
X018319Y013485D01*
X018450Y013485D01*
X018582Y013353D01*
X018582Y012958D01*
X017791Y012958D01*
X017791Y013353D01*
X017923Y013485D01*
X018055Y012693D02*
X018582Y012693D01*
X018187Y012693D02*
X018187Y012166D01*
X018055Y012166D02*
X017791Y012429D01*
X018055Y012693D01*
X018055Y012166D02*
X018582Y012166D01*
D15*
X015689Y008001D02*
X015691Y008031D01*
X015697Y008060D01*
X015706Y008088D01*
X015720Y008115D01*
X015736Y008140D01*
X015756Y008162D01*
X015778Y008182D01*
X015803Y008198D01*
X015830Y008212D01*
X015858Y008221D01*
X015887Y008227D01*
X015917Y008229D01*
X015947Y008227D01*
X015976Y008221D01*
X016004Y008212D01*
X016031Y008198D01*
X016056Y008182D01*
X016078Y008162D01*
X016098Y008140D01*
X016114Y008115D01*
X016128Y008088D01*
X016137Y008060D01*
X016143Y008031D01*
X016145Y008001D01*
X016143Y007971D01*
X016137Y007942D01*
X016128Y007914D01*
X016114Y007887D01*
X016098Y007862D01*
X016078Y007840D01*
X016056Y007820D01*
X016031Y007804D01*
X016004Y007790D01*
X015976Y007781D01*
X015947Y007775D01*
X015917Y007773D01*
X015887Y007775D01*
X015858Y007781D01*
X015830Y007790D01*
X015803Y007804D01*
X015778Y007820D01*
X015756Y007840D01*
X015736Y007862D01*
X015720Y007887D01*
X015706Y007914D01*
X015697Y007942D01*
X015691Y007971D01*
X015689Y008001D01*
D16*
X018918Y009432D02*
X022767Y009432D01*
X022767Y015540D01*
X018918Y015540D01*
X018918Y014831D01*
X019873Y014831D01*
X019873Y010140D01*
X018918Y010140D01*
X018918Y009432D01*
X018918Y010140D02*
X018918Y014831D01*
X018768Y018604D02*
X011327Y018604D01*
X010539Y019392D01*
X010539Y021777D01*
X019555Y021777D01*
X019555Y019392D01*
X018768Y018604D01*
X020487Y020828D02*
X020489Y020878D01*
X020495Y020928D01*
X020505Y020977D01*
X020519Y021025D01*
X020536Y021072D01*
X020557Y021117D01*
X020582Y021161D01*
X020610Y021202D01*
X020642Y021241D01*
X020676Y021278D01*
X020713Y021312D01*
X020753Y021342D01*
X020795Y021369D01*
X020839Y021393D01*
X020885Y021414D01*
X020932Y021430D01*
X020980Y021443D01*
X021030Y021452D01*
X021079Y021457D01*
X021130Y021458D01*
X021180Y021455D01*
X021229Y021448D01*
X021278Y021437D01*
X021326Y021422D01*
X021372Y021404D01*
X021417Y021382D01*
X021460Y021356D01*
X021501Y021327D01*
X021540Y021295D01*
X021576Y021260D01*
X021608Y021222D01*
X021638Y021182D01*
X021665Y021139D01*
X021688Y021095D01*
X021707Y021049D01*
X021723Y021001D01*
X021735Y020952D01*
X021743Y020903D01*
X021747Y020853D01*
X021747Y020803D01*
X021743Y020753D01*
X021735Y020704D01*
X021723Y020655D01*
X021707Y020607D01*
X021688Y020561D01*
X021665Y020517D01*
X021638Y020474D01*
X021608Y020434D01*
X021576Y020396D01*
X021540Y020361D01*
X021501Y020329D01*
X021460Y020300D01*
X021417Y020274D01*
X021372Y020252D01*
X021326Y020234D01*
X021278Y020219D01*
X021229Y020208D01*
X021180Y020201D01*
X021130Y020198D01*
X021079Y020199D01*
X021030Y020204D01*
X020980Y020213D01*
X020932Y020226D01*
X020885Y020242D01*
X020839Y020263D01*
X020795Y020287D01*
X020753Y020314D01*
X020713Y020344D01*
X020676Y020378D01*
X020642Y020415D01*
X020610Y020454D01*
X020582Y020495D01*
X020557Y020539D01*
X020536Y020584D01*
X020519Y020631D01*
X020505Y020679D01*
X020495Y020728D01*
X020489Y020778D01*
X020487Y020828D01*
X004187Y014371D02*
X004027Y014211D01*
X004187Y014051D01*
X003707Y014051D01*
X003707Y013855D02*
X003707Y013695D01*
X003707Y013775D02*
X004187Y013775D01*
X004187Y013855D02*
X004187Y013695D01*
X004187Y013511D02*
X003707Y013191D01*
X004187Y013191D01*
X004187Y013511D02*
X003707Y013511D01*
X003707Y014371D02*
X004187Y014371D01*
X004217Y010041D02*
X003737Y010041D01*
X003737Y009721D02*
X004217Y009721D01*
X004057Y009881D01*
X004217Y010041D01*
X004057Y009525D02*
X003737Y009525D01*
X003977Y009525D02*
X003977Y009205D01*
X004057Y009205D02*
X003737Y009205D01*
X003737Y009010D02*
X004217Y008689D01*
X004217Y009010D02*
X003737Y008689D01*
X004057Y009205D02*
X004217Y009365D01*
X004057Y009525D01*
X001944Y002284D02*
X001946Y002334D01*
X001952Y002384D01*
X001962Y002433D01*
X001976Y002481D01*
X001993Y002528D01*
X002014Y002573D01*
X002039Y002617D01*
X002067Y002658D01*
X002099Y002697D01*
X002133Y002734D01*
X002170Y002768D01*
X002210Y002798D01*
X002252Y002825D01*
X002296Y002849D01*
X002342Y002870D01*
X002389Y002886D01*
X002437Y002899D01*
X002487Y002908D01*
X002536Y002913D01*
X002587Y002914D01*
X002637Y002911D01*
X002686Y002904D01*
X002735Y002893D01*
X002783Y002878D01*
X002829Y002860D01*
X002874Y002838D01*
X002917Y002812D01*
X002958Y002783D01*
X002997Y002751D01*
X003033Y002716D01*
X003065Y002678D01*
X003095Y002638D01*
X003122Y002595D01*
X003145Y002551D01*
X003164Y002505D01*
X003180Y002457D01*
X003192Y002408D01*
X003200Y002359D01*
X003204Y002309D01*
X003204Y002259D01*
X003200Y002209D01*
X003192Y002160D01*
X003180Y002111D01*
X003164Y002063D01*
X003145Y002017D01*
X003122Y001973D01*
X003095Y001930D01*
X003065Y001890D01*
X003033Y001852D01*
X002997Y001817D01*
X002958Y001785D01*
X002917Y001756D01*
X002874Y001730D01*
X002829Y001708D01*
X002783Y001690D01*
X002735Y001675D01*
X002686Y001664D01*
X002637Y001657D01*
X002587Y001654D01*
X002536Y001655D01*
X002487Y001660D01*
X002437Y001669D01*
X002389Y001682D01*
X002342Y001698D01*
X002296Y001719D01*
X002252Y001743D01*
X002210Y001770D01*
X002170Y001800D01*
X002133Y001834D01*
X002099Y001871D01*
X002067Y001910D01*
X002039Y001951D01*
X002014Y001995D01*
X001993Y002040D01*
X001976Y002087D01*
X001962Y002135D01*
X001952Y002184D01*
X001946Y002234D01*
X001944Y002284D01*
X001905Y020828D02*
X001907Y020878D01*
X001913Y020928D01*
X001923Y020977D01*
X001937Y021025D01*
X001954Y021072D01*
X001975Y021117D01*
X002000Y021161D01*
X002028Y021202D01*
X002060Y021241D01*
X002094Y021278D01*
X002131Y021312D01*
X002171Y021342D01*
X002213Y021369D01*
X002257Y021393D01*
X002303Y021414D01*
X002350Y021430D01*
X002398Y021443D01*
X002448Y021452D01*
X002497Y021457D01*
X002548Y021458D01*
X002598Y021455D01*
X002647Y021448D01*
X002696Y021437D01*
X002744Y021422D01*
X002790Y021404D01*
X002835Y021382D01*
X002878Y021356D01*
X002919Y021327D01*
X002958Y021295D01*
X002994Y021260D01*
X003026Y021222D01*
X003056Y021182D01*
X003083Y021139D01*
X003106Y021095D01*
X003125Y021049D01*
X003141Y021001D01*
X003153Y020952D01*
X003161Y020903D01*
X003165Y020853D01*
X003165Y020803D01*
X003161Y020753D01*
X003153Y020704D01*
X003141Y020655D01*
X003125Y020607D01*
X003106Y020561D01*
X003083Y020517D01*
X003056Y020474D01*
X003026Y020434D01*
X002994Y020396D01*
X002958Y020361D01*
X002919Y020329D01*
X002878Y020300D01*
X002835Y020274D01*
X002790Y020252D01*
X002744Y020234D01*
X002696Y020219D01*
X002647Y020208D01*
X002598Y020201D01*
X002548Y020198D01*
X002497Y020199D01*
X002448Y020204D01*
X002398Y020213D01*
X002350Y020226D01*
X002303Y020242D01*
X002257Y020263D01*
X002213Y020287D01*
X002171Y020314D01*
X002131Y020344D01*
X002094Y020378D01*
X002060Y020415D01*
X002028Y020454D01*
X002000Y020495D01*
X001975Y020539D01*
X001954Y020584D01*
X001937Y020631D01*
X001923Y020679D01*
X001913Y020728D01*
X001907Y020778D01*
X001905Y020828D01*
X020487Y002284D02*
X020489Y002334D01*
X020495Y002384D01*
X020505Y002433D01*
X020519Y002481D01*
X020536Y002528D01*
X020557Y002573D01*
X020582Y002617D01*
X020610Y002658D01*
X020642Y002697D01*
X020676Y002734D01*
X020713Y002768D01*
X020753Y002798D01*
X020795Y002825D01*
X020839Y002849D01*
X020885Y002870D01*
X020932Y002886D01*
X020980Y002899D01*
X021030Y002908D01*
X021079Y002913D01*
X021130Y002914D01*
X021180Y002911D01*
X021229Y002904D01*
X021278Y002893D01*
X021326Y002878D01*
X021372Y002860D01*
X021417Y002838D01*
X021460Y002812D01*
X021501Y002783D01*
X021540Y002751D01*
X021576Y002716D01*
X021608Y002678D01*
X021638Y002638D01*
X021665Y002595D01*
X021688Y002551D01*
X021707Y002505D01*
X021723Y002457D01*
X021735Y002408D01*
X021743Y002359D01*
X021747Y002309D01*
X021747Y002259D01*
X021743Y002209D01*
X021735Y002160D01*
X021723Y002111D01*
X021707Y002063D01*
X021688Y002017D01*
X021665Y001973D01*
X021638Y001930D01*
X021608Y001890D01*
X021576Y001852D01*
X021540Y001817D01*
X021501Y001785D01*
X021460Y001756D01*
X021417Y001730D01*
X021372Y001708D01*
X021326Y001690D01*
X021278Y001675D01*
X021229Y001664D01*
X021180Y001657D01*
X021130Y001654D01*
X021079Y001655D01*
X021030Y001660D01*
X020980Y001669D01*
X020932Y001682D01*
X020885Y001698D01*
X020839Y001719D01*
X020795Y001743D01*
X020753Y001770D01*
X020713Y001800D01*
X020676Y001834D01*
X020642Y001871D01*
X020610Y001910D01*
X020582Y001951D01*
X020557Y001995D01*
X020536Y002040D01*
X020519Y002087D01*
X020505Y002135D01*
X020495Y002184D01*
X020489Y002234D01*
X020487Y002284D01*
D17*
X021109Y003997D02*
X020996Y004110D01*
X021336Y004110D01*
X021336Y003997D02*
X021336Y004224D01*
X021266Y004767D02*
X021266Y004992D01*
X021191Y005067D01*
X021041Y005067D01*
X020966Y004992D01*
X020966Y004767D01*
X021416Y004767D01*
X021266Y004917D02*
X021416Y005067D01*
X021416Y005227D02*
X021416Y005527D01*
X021416Y005377D02*
X020966Y005377D01*
X021116Y005227D01*
X021053Y006097D02*
X020996Y006154D01*
X020996Y006267D01*
X021053Y006324D01*
X021109Y006324D01*
X021166Y006267D01*
X021223Y006324D01*
X021279Y006324D01*
X021336Y006267D01*
X021336Y006154D01*
X021279Y006097D01*
X021166Y006210D02*
X021166Y006267D01*
X020086Y006799D02*
X020011Y006724D01*
X019861Y006724D01*
X019786Y006799D01*
X019786Y006949D02*
X019936Y007024D01*
X020011Y007024D01*
X020086Y006949D01*
X020086Y006799D01*
X019786Y006949D02*
X019786Y007174D01*
X020086Y007174D01*
X019626Y007099D02*
X019626Y006949D01*
X019551Y006874D01*
X019326Y006874D01*
X019476Y006874D02*
X019626Y006724D01*
X019326Y006724D02*
X019326Y007174D01*
X019551Y007174D01*
X019626Y007099D01*
X016062Y011055D02*
X015612Y011055D01*
X015612Y011280D01*
X015687Y011355D01*
X015837Y011355D01*
X015912Y011280D01*
X015912Y011055D01*
X015912Y011205D02*
X016062Y011355D01*
X016062Y011515D02*
X016062Y011815D01*
X016062Y011665D02*
X015612Y011665D01*
X015762Y011515D01*
X015837Y011975D02*
X015837Y012201D01*
X015912Y012276D01*
X015987Y012276D01*
X016062Y012201D01*
X016062Y012050D01*
X015987Y011975D01*
X015837Y011975D01*
X015687Y012125D01*
X015612Y012276D01*
X009402Y016051D02*
X009102Y015751D01*
X009102Y015676D01*
X008942Y015676D02*
X008791Y015826D01*
X008866Y015826D02*
X008641Y015826D01*
X008641Y015676D02*
X008641Y016126D01*
X008866Y016126D01*
X008942Y016051D01*
X008942Y015901D01*
X008866Y015826D01*
X009102Y016126D02*
X009402Y016126D01*
X009402Y016051D01*
X006153Y016786D02*
X005853Y016786D01*
X006003Y016786D02*
X006003Y017236D01*
X005853Y017086D01*
X005693Y016786D02*
X005392Y016786D01*
X005543Y016786D02*
X005543Y017236D01*
X005392Y017086D01*
X005232Y017161D02*
X005157Y017236D01*
X005007Y017236D01*
X004932Y017161D01*
X004932Y016861D01*
X005007Y016786D01*
X005157Y016786D01*
X005232Y016861D01*
X009572Y019700D02*
X009647Y019625D01*
X009947Y019625D01*
X010022Y019700D01*
X010022Y019850D01*
X009947Y019925D01*
X010022Y020085D02*
X010022Y020385D01*
X010022Y020235D02*
X009572Y020235D01*
X009722Y020085D01*
X009647Y019925D02*
X009572Y019850D01*
X009572Y019700D01*
X009647Y020545D02*
X009572Y020620D01*
X009572Y020771D01*
X009647Y020846D01*
X009947Y020545D01*
X010022Y020620D01*
X010022Y020771D01*
X009947Y020846D01*
X009647Y020846D01*
X009647Y020545D02*
X009947Y020545D01*
X006617Y008906D02*
X006467Y008906D01*
X006392Y008831D01*
X006232Y008831D02*
X006232Y008681D01*
X006156Y008606D01*
X005931Y008606D01*
X005931Y008456D02*
X005931Y008906D01*
X006156Y008906D01*
X006232Y008831D01*
X006081Y008606D02*
X006232Y008456D01*
X006392Y008531D02*
X006467Y008456D01*
X006617Y008456D01*
X006692Y008531D01*
X006692Y008606D01*
X006617Y008681D01*
X006542Y008681D01*
X006617Y008681D02*
X006692Y008756D01*
X006692Y008831D01*
X006617Y008906D01*
X005317Y003186D02*
X005167Y003186D01*
X005092Y003111D01*
X005317Y003186D02*
X005392Y003111D01*
X005392Y003036D01*
X005092Y002736D01*
X005392Y002736D01*
X005242Y002186D02*
X005242Y001736D01*
X005092Y001736D02*
X005392Y001736D01*
X005092Y002036D02*
X005242Y002186D01*
X007692Y001186D02*
X007842Y001336D01*
X007842Y000886D01*
X007692Y000886D02*
X007992Y000886D01*
X008152Y000961D02*
X008453Y001261D01*
X008453Y000961D01*
X008378Y000886D01*
X008227Y000886D01*
X008152Y000961D01*
X008152Y001261D01*
X008227Y001336D01*
X008378Y001336D01*
X008453Y001261D01*
D18*
X008867Y001111D02*
X009267Y001111D01*
X009867Y001111D02*
X011667Y001111D01*
X011667Y003811D01*
X004467Y003811D01*
X004467Y001111D01*
X007267Y001111D01*
D19*
X020696Y008009D03*
X021238Y008009D03*
X021846Y008452D03*
X022388Y008452D03*
X022638Y016509D03*
X022096Y016509D03*
X021588Y016952D03*
X021046Y016952D03*
X008080Y017381D03*
X007539Y017381D03*
D20*
X007809Y017229D03*
X020967Y008162D03*
X022117Y008300D03*
X022367Y016662D03*
X021317Y016800D03*
D21*
X020111Y006212D02*
X020111Y006062D01*
X019461Y005822D02*
X019361Y005922D01*
X019191Y005122D02*
X019041Y005122D01*
X019461Y004372D02*
X019361Y004272D01*
X020111Y004182D02*
X020111Y004032D01*
D22*
X003442Y005061D02*
X003442Y010061D01*
X002817Y010061D01*
X002817Y011461D01*
X001217Y011461D01*
X001217Y010061D01*
X001192Y010061D01*
X001192Y008936D01*
X000817Y008936D01*
X000817Y006186D01*
X001192Y006186D01*
X001192Y005061D01*
X001217Y005061D01*
X001217Y003661D01*
X002817Y003661D01*
X002817Y005061D01*
X003442Y005061D01*
X002817Y005061D02*
X001217Y005061D01*
X001217Y010061D02*
X002817Y010061D01*
X002817Y011661D02*
X001217Y011661D01*
X001217Y013061D01*
X002817Y013061D01*
X002817Y011661D01*
X002817Y013061D02*
X003442Y013061D01*
X003442Y018061D01*
X002817Y018061D01*
X002817Y019461D01*
X001217Y019461D01*
X001217Y018061D01*
X001192Y018061D01*
X001192Y016936D01*
X000817Y016936D01*
X000817Y014186D01*
X001192Y014186D01*
X001192Y013061D01*
X001217Y013061D01*
X001217Y018061D02*
X002817Y018061D01*
M02*
