G75*
G70*
%OFA0B0*%
%FSLAX24Y24*%
%IPPOS*%
%LPD*%
%AMOC8*
5,1,8,0,0,1.08239X$1,22.5*
%
%ADD10OC8,0.0792*%
%ADD11C,0.0792*%
%ADD12C,0.0872*%
%ADD13R,0.0792X0.0792*%
%ADD14C,0.0872*%
%ADD15C,0.0792*%
%ADD16C,0.0787*%
%ADD17C,0.0159*%
%ADD18C,0.0912*%
%ADD19C,0.0945*%
%ADD20C,0.0787*%
%ADD21C,0.1022*%
%ADD22C,0.0280*%
%ADD23R,0.0787X0.0787*%
%ADD24C,0.0320*%
D10*
X015010Y008378D03*
X019010Y010128D03*
X021260Y010128D03*
X021260Y007128D03*
X027010Y010128D03*
X029510Y010128D03*
X029510Y007128D03*
X033510Y004628D03*
X031069Y003896D03*
X028069Y003896D03*
X027382Y003396D03*
X024382Y003396D03*
X023362Y003597D03*
X015010Y011378D03*
X018010Y013628D03*
X015260Y014128D03*
X012260Y014128D03*
X015510Y016628D03*
X018010Y016628D03*
X023510Y016628D03*
X025760Y016628D03*
X025760Y013628D03*
D11*
X025510Y012628D03*
X026510Y012628D03*
X027510Y012628D03*
X028510Y012628D03*
X029510Y012628D03*
X030010Y011128D03*
X031010Y011128D03*
X032010Y011128D03*
X029010Y011128D03*
X028010Y011128D03*
X026010Y011128D03*
X026010Y010128D03*
X024010Y011128D03*
X023010Y011128D03*
X022010Y011128D03*
X021010Y011128D03*
X020010Y011128D03*
X018010Y011128D03*
X018010Y010128D03*
X018510Y012628D03*
X017510Y012628D03*
X016510Y012628D03*
X015510Y012628D03*
X014510Y012628D03*
X019510Y012628D03*
X020510Y012628D03*
X021510Y012628D03*
X022510Y012628D03*
X023510Y012628D03*
X024510Y012628D03*
X022510Y016628D03*
X022510Y017628D03*
X024510Y017628D03*
X025510Y017628D03*
X026510Y017628D03*
X027510Y017628D03*
X028510Y017628D03*
X020510Y017628D03*
X019510Y017628D03*
X018510Y017628D03*
X017510Y017628D03*
X016510Y017628D03*
X014510Y017628D03*
X014510Y016628D03*
X018010Y006128D03*
X019010Y006128D03*
X020010Y006128D03*
X021010Y006128D03*
X022010Y006128D03*
X023010Y006128D03*
X024010Y006128D03*
X025010Y006128D03*
X026010Y006128D03*
X027010Y006128D03*
X028010Y006128D03*
X029010Y006128D03*
X030010Y006128D03*
X031010Y006128D03*
X032010Y006128D03*
X033010Y006128D03*
X032510Y004628D03*
X023362Y004597D03*
D12*
X021510Y004628D03*
X020510Y004628D03*
X019510Y004628D03*
X018510Y004628D03*
X018260Y001628D03*
X017260Y001628D03*
X016260Y001628D03*
X015260Y001628D03*
X014260Y001628D03*
X019260Y001628D03*
X021260Y001628D03*
X022260Y001628D03*
X023260Y001628D03*
X024260Y001628D03*
X025260Y001628D03*
X026260Y001628D03*
X027260Y001628D03*
X028260Y001628D03*
X030260Y001628D03*
X031260Y001628D03*
X032260Y001628D03*
X033260Y001628D03*
X034260Y001628D03*
X035260Y001628D03*
X036260Y001628D03*
X037260Y001628D03*
X037010Y002878D03*
X036010Y002878D03*
X035010Y002878D03*
X034010Y002878D03*
X032510Y002878D03*
X031510Y002878D03*
X030510Y002878D03*
X029510Y002878D03*
X029760Y004878D03*
X028760Y004878D03*
X027760Y004878D03*
X030760Y004878D03*
X035760Y004378D03*
X037010Y004628D03*
X038260Y004628D03*
X039260Y004628D03*
X040510Y004878D03*
X039260Y005628D03*
X038260Y005628D03*
X037010Y005628D03*
X035760Y005378D03*
X035760Y006378D03*
X037010Y006628D03*
X038260Y006628D03*
X039260Y006628D03*
X040510Y006878D03*
X039260Y007628D03*
X038260Y007628D03*
X038260Y008628D03*
X039260Y008628D03*
X040510Y008378D03*
X040510Y009378D03*
X039260Y009628D03*
X038260Y009628D03*
X038260Y010628D03*
X039260Y010628D03*
X040510Y010378D03*
X040510Y011378D03*
X039260Y011628D03*
X038260Y011628D03*
X038260Y012628D03*
X039260Y012628D03*
X040510Y012878D03*
X039260Y013628D03*
X038260Y013628D03*
X038260Y014628D03*
X039260Y014628D03*
X040510Y014878D03*
X039260Y015628D03*
X038260Y015628D03*
X038260Y016628D03*
X039260Y016628D03*
X040510Y017378D03*
X039260Y017628D03*
X038260Y017628D03*
X038260Y018628D03*
X039260Y018628D03*
X040510Y018378D03*
X040510Y019378D03*
X039260Y019628D03*
X038260Y019628D03*
X038260Y020628D03*
X039260Y020628D03*
X040510Y020378D03*
X035760Y018378D03*
X034760Y018378D03*
X033760Y018378D03*
X032760Y018378D03*
X031760Y018378D03*
X030760Y018378D03*
X030760Y017378D03*
X031760Y017378D03*
X032760Y017378D03*
X033760Y017378D03*
X034760Y017378D03*
X035760Y017378D03*
X035760Y016378D03*
X034760Y016378D03*
X033760Y016378D03*
X032760Y016378D03*
X031760Y016378D03*
X030760Y016378D03*
X023260Y019378D03*
X022260Y019378D03*
X021260Y019378D03*
X020260Y019378D03*
X020260Y020628D03*
X019260Y020628D03*
X017660Y020628D03*
X016660Y020628D03*
X015660Y020628D03*
X014660Y020628D03*
X013660Y020628D03*
X012660Y020628D03*
X011660Y020628D03*
X010660Y020628D03*
X021260Y020628D03*
X022260Y020628D03*
X023260Y020628D03*
X024260Y020628D03*
X025260Y020628D03*
X026260Y020628D03*
X028260Y020628D03*
X029260Y020628D03*
X030260Y020628D03*
X031260Y020628D03*
X032260Y020628D03*
X033260Y020628D03*
X034260Y020628D03*
X035260Y020628D03*
X040510Y015878D03*
X040510Y013878D03*
X035760Y007378D03*
X040510Y005878D03*
X040510Y003878D03*
X039260Y003628D03*
X038260Y003628D03*
X016510Y007628D03*
X016510Y008628D03*
X016510Y009628D03*
X016510Y010628D03*
X008260Y006128D03*
X007260Y006128D03*
X006260Y006128D03*
X004259Y006159D03*
X003259Y006159D03*
X002259Y006159D03*
D13*
X019010Y011128D03*
X025010Y011128D03*
X027010Y011128D03*
X033010Y011128D03*
X029510Y017628D03*
X023510Y017628D03*
X021510Y017628D03*
X015510Y017628D03*
D14*
X012010Y017314D02*
X012010Y016442D01*
X011010Y016442D02*
X011010Y017314D01*
X010010Y017314D02*
X010010Y016442D01*
X010010Y013314D02*
X010010Y012442D01*
X011010Y012442D02*
X011010Y013314D01*
X012010Y013314D02*
X012010Y012442D01*
X012824Y008628D02*
X013696Y008628D01*
X013696Y007628D02*
X012824Y007628D01*
X012824Y006628D02*
X013696Y006628D01*
D15*
X010916Y005427D02*
X010123Y005427D01*
X010123Y009427D02*
X010916Y009427D01*
D16*
X007904Y010128D02*
X007116Y010128D01*
X007116Y008128D02*
X007904Y008128D01*
X007904Y012128D02*
X007116Y012128D01*
X007116Y014128D02*
X007904Y014128D01*
X007904Y016128D02*
X007116Y016128D01*
X007116Y018128D02*
X007904Y018128D01*
D17*
X011445Y018755D02*
X011365Y018835D01*
X011617Y018903D01*
X011844Y018772D01*
X011912Y018520D01*
X011781Y018293D01*
X011529Y018225D01*
X011302Y018356D01*
X011234Y018608D01*
X011365Y018835D01*
X011443Y018734D01*
X011600Y018776D01*
X011743Y018694D01*
X011785Y018537D01*
X011703Y018394D01*
X011546Y018352D01*
X011403Y018434D01*
X011361Y018591D01*
X011443Y018734D01*
X011521Y018631D01*
X011584Y018648D01*
X011640Y018616D01*
X011657Y018553D01*
X011625Y018497D01*
X011562Y018480D01*
X011506Y018512D01*
X011489Y018575D01*
X011521Y018631D01*
X008847Y020255D02*
X008767Y020335D01*
X009019Y020403D01*
X009246Y020272D01*
X009314Y020020D01*
X009183Y019793D01*
X008931Y019725D01*
X008704Y019856D01*
X008636Y020108D01*
X008767Y020335D01*
X008845Y020234D01*
X009002Y020276D01*
X009145Y020194D01*
X009187Y020037D01*
X009105Y019894D01*
X008948Y019852D01*
X008805Y019934D01*
X008763Y020091D01*
X008845Y020234D01*
X008923Y020131D01*
X008986Y020148D01*
X009042Y020116D01*
X009059Y020053D01*
X009027Y019997D01*
X008964Y019980D01*
X008908Y020012D01*
X008891Y020075D01*
X008923Y020131D01*
D18*
X015022Y005865D03*
X017851Y003037D03*
D19*
X012010Y003628D03*
X009260Y003628D03*
D20*
X009760Y002628D03*
X011510Y002628D03*
D21*
X004646Y002003D02*
X003624Y002003D01*
X003624Y004003D02*
X004646Y004003D01*
D22*
X001800Y005661D02*
X001800Y001168D01*
X006175Y001168D01*
X006170Y001176D01*
X006090Y001474D01*
X006090Y001782D01*
X006170Y002080D01*
X006324Y002346D01*
X006541Y002564D01*
X006808Y002718D01*
X007106Y002798D01*
X007414Y002798D01*
X007711Y002718D01*
X007978Y002564D01*
X008196Y002346D01*
X008350Y002080D01*
X008430Y001782D01*
X008430Y001474D01*
X008350Y001176D01*
X008345Y001168D01*
X013727Y001168D01*
X013665Y001230D01*
X013558Y001488D01*
X013558Y001768D01*
X013641Y001968D01*
X012813Y001968D01*
X012715Y002009D01*
X012641Y002084D01*
X012600Y002181D01*
X012600Y003075D01*
X012641Y003172D01*
X012715Y003247D01*
X012813Y003288D01*
X013008Y003288D01*
X013250Y003650D01*
X013272Y003704D01*
X013312Y003745D01*
X013344Y003793D01*
X013393Y003825D01*
X014760Y005192D01*
X014613Y005253D01*
X014410Y005456D01*
X014300Y005722D01*
X014300Y006009D01*
X014410Y006274D01*
X014613Y006478D01*
X014879Y006588D01*
X015166Y006588D01*
X015431Y006478D01*
X015635Y006274D01*
X015695Y006128D01*
X015801Y006234D01*
X015823Y006270D01*
X015882Y006314D01*
X015934Y006366D01*
X015973Y006382D01*
X016757Y006970D01*
X016650Y006926D01*
X016370Y006926D01*
X016112Y007033D01*
X015915Y007230D01*
X015808Y007488D01*
X015808Y007768D01*
X015915Y008026D01*
X016017Y008128D01*
X015915Y008230D01*
X015808Y008488D01*
X015808Y008768D01*
X015915Y009026D01*
X016017Y009128D01*
X015915Y009230D01*
X015808Y009488D01*
X015808Y009768D01*
X015915Y010026D01*
X016017Y010128D01*
X015915Y010230D01*
X015808Y010488D01*
X015808Y010768D01*
X015915Y011026D01*
X016112Y011223D01*
X016370Y011330D01*
X016650Y011330D01*
X016908Y011223D01*
X017105Y011026D01*
X017212Y010768D01*
X017212Y010488D01*
X017105Y010230D01*
X017003Y010128D01*
X017105Y010026D01*
X017212Y009768D01*
X017212Y009488D01*
X017105Y009230D01*
X017003Y009128D01*
X017105Y009026D01*
X017212Y008768D01*
X017212Y008488D01*
X017105Y008230D01*
X017003Y008128D01*
X017105Y008026D01*
X017212Y007768D01*
X017212Y007488D01*
X017106Y007232D01*
X019684Y009166D01*
X019684Y009540D01*
X019641Y009584D01*
X019600Y009681D01*
X019600Y009819D01*
X019273Y009492D01*
X019010Y009492D01*
X019010Y010128D01*
X019010Y010128D01*
X019010Y010128D01*
X019010Y010764D01*
X019010Y011128D01*
X019010Y011128D01*
X019010Y011128D01*
X019010Y011764D01*
X019454Y011764D01*
X019542Y011728D01*
X019608Y011662D01*
X019635Y011689D01*
X019878Y011790D01*
X020142Y011790D01*
X020385Y011689D01*
X020510Y011564D01*
X020635Y011689D01*
X020878Y011790D01*
X021142Y011790D01*
X021385Y011689D01*
X021510Y011564D01*
X021635Y011689D01*
X021878Y011790D01*
X022142Y011790D01*
X022385Y011689D01*
X022510Y011564D01*
X022635Y011689D01*
X022878Y011790D01*
X023142Y011790D01*
X023385Y011689D01*
X023510Y011564D01*
X023635Y011689D01*
X023878Y011790D01*
X024142Y011790D01*
X024385Y011689D01*
X024412Y011662D01*
X024478Y011728D01*
X024566Y011764D01*
X025010Y011764D01*
X025010Y011128D01*
X025010Y010492D01*
X025444Y010492D01*
X025348Y010260D01*
X025348Y009996D01*
X025448Y009753D01*
X025635Y009567D01*
X025878Y009466D01*
X026142Y009466D01*
X026385Y009567D01*
X026528Y009710D01*
X026746Y009492D01*
X027010Y009492D01*
X027273Y009492D01*
X027646Y009864D01*
X027646Y010128D01*
X027646Y010392D01*
X027519Y010519D01*
X027542Y010528D01*
X027608Y010594D01*
X027635Y010567D01*
X027850Y010477D01*
X027850Y010147D01*
X027434Y009454D01*
X024470Y009454D01*
X024325Y009599D01*
X024223Y009641D01*
X023919Y010147D01*
X023919Y010466D01*
X024142Y010466D01*
X024385Y010567D01*
X024412Y010594D01*
X024478Y010528D01*
X024566Y010492D01*
X025010Y010492D01*
X025010Y011128D01*
X025010Y011128D01*
X025010Y011128D01*
X025010Y011764D01*
X025454Y011764D01*
X025542Y011728D01*
X025608Y011662D01*
X025635Y011689D01*
X025878Y011790D01*
X026142Y011790D01*
X026385Y011689D01*
X026412Y011662D01*
X026478Y011728D01*
X026566Y011764D01*
X027010Y011764D01*
X027010Y011128D01*
X027010Y010492D01*
X027010Y010128D01*
X027646Y010128D01*
X027010Y010128D01*
X027010Y010128D01*
X027010Y009492D01*
X027010Y010128D01*
X027010Y010128D01*
X027010Y010128D01*
X027010Y010492D01*
X027010Y011128D01*
X027010Y011128D01*
X027010Y011128D01*
X027010Y011764D01*
X027454Y011764D01*
X027542Y011728D01*
X027608Y011662D01*
X027635Y011689D01*
X027878Y011790D01*
X028142Y011790D01*
X028385Y011689D01*
X028510Y011564D01*
X028635Y011689D01*
X028878Y011790D01*
X029142Y011790D01*
X029385Y011689D01*
X029510Y011564D01*
X029635Y011689D01*
X029878Y011790D01*
X030142Y011790D01*
X030385Y011689D01*
X030510Y011564D01*
X030635Y011689D01*
X030878Y011790D01*
X031142Y011790D01*
X031385Y011689D01*
X031510Y011564D01*
X031635Y011689D01*
X031878Y011790D01*
X032142Y011790D01*
X032385Y011689D01*
X032412Y011662D01*
X032478Y011728D01*
X032566Y011764D01*
X033010Y011764D01*
X033010Y011128D01*
X033646Y011128D01*
X033646Y011572D01*
X033609Y011660D01*
X033542Y011728D01*
X033454Y011764D01*
X033010Y011764D01*
X033010Y011128D01*
X033010Y011128D01*
X033646Y011128D01*
X033646Y010684D01*
X033609Y010596D01*
X033542Y010528D01*
X033454Y010492D01*
X033010Y010492D01*
X033010Y011128D01*
X033010Y011128D01*
X033010Y011128D01*
X033010Y010492D01*
X032566Y010492D01*
X032478Y010528D01*
X032412Y010594D01*
X032385Y010567D01*
X032142Y010466D01*
X031878Y010466D01*
X031635Y010567D01*
X031510Y010692D01*
X031385Y010567D01*
X031142Y010466D01*
X030878Y010466D01*
X030635Y010567D01*
X030510Y010692D01*
X030385Y010567D01*
X030142Y010466D01*
X030108Y010466D01*
X030172Y010402D01*
X030172Y009854D01*
X029784Y009466D01*
X029236Y009466D01*
X029123Y009578D01*
X029054Y009509D01*
X028956Y009468D01*
X028785Y009468D01*
X028275Y008618D01*
X028248Y008552D01*
X028217Y008521D01*
X028194Y008484D01*
X028137Y008441D01*
X028086Y008390D01*
X028046Y008373D01*
X028011Y008347D01*
X027941Y008330D01*
X027874Y008302D01*
X027831Y008302D01*
X027788Y008292D01*
X027717Y008302D01*
X024145Y008302D01*
X024052Y008302D01*
X023981Y008292D01*
X023939Y008302D01*
X023895Y008302D01*
X023829Y008330D01*
X023759Y008347D01*
X023724Y008373D01*
X023684Y008390D01*
X023633Y008441D01*
X023575Y008484D01*
X023553Y008521D01*
X023522Y008552D01*
X023494Y008618D01*
X023480Y008643D01*
X023445Y008657D01*
X023289Y008813D01*
X023204Y009017D01*
X023204Y009102D01*
X022984Y009468D01*
X022813Y009468D01*
X022715Y009509D01*
X022641Y009584D01*
X022600Y009681D01*
X022600Y010575D01*
X022608Y010593D01*
X022510Y010692D01*
X022385Y010567D01*
X022142Y010466D01*
X021878Y010466D01*
X021845Y010480D01*
X021922Y010402D01*
X021922Y009854D01*
X021534Y009466D01*
X020986Y009466D01*
X020873Y009578D01*
X020835Y009540D01*
X020835Y008951D01*
X020846Y008910D01*
X020835Y008837D01*
X020835Y008764D01*
X020819Y008725D01*
X020813Y008683D01*
X020776Y008620D01*
X020748Y008552D01*
X020718Y008522D01*
X020697Y008486D01*
X020638Y008442D01*
X020586Y008390D01*
X020547Y008374D01*
X018331Y006712D01*
X018385Y006689D01*
X018510Y006564D01*
X018635Y006689D01*
X018878Y006790D01*
X019142Y006790D01*
X019385Y006689D01*
X019510Y006564D01*
X019635Y006689D01*
X019878Y006790D01*
X020142Y006790D01*
X020385Y006689D01*
X020510Y006564D01*
X020635Y006689D01*
X020725Y006727D01*
X020598Y006854D01*
X020598Y007402D01*
X020986Y007790D01*
X021534Y007790D01*
X021922Y007402D01*
X021922Y006854D01*
X021845Y006776D01*
X021878Y006790D01*
X022142Y006790D01*
X022385Y006689D01*
X022510Y006564D01*
X022635Y006689D01*
X022878Y006790D01*
X023142Y006790D01*
X023385Y006689D01*
X023510Y006564D01*
X023635Y006689D01*
X023878Y006790D01*
X024142Y006790D01*
X024385Y006689D01*
X024510Y006564D01*
X024635Y006689D01*
X024878Y006790D01*
X025142Y006790D01*
X025385Y006689D01*
X025510Y006564D01*
X025635Y006689D01*
X025878Y006790D01*
X026142Y006790D01*
X026385Y006689D01*
X026510Y006564D01*
X026635Y006689D01*
X026878Y006790D01*
X027142Y006790D01*
X027385Y006689D01*
X027510Y006564D01*
X027635Y006689D01*
X027878Y006790D01*
X028142Y006790D01*
X028385Y006689D01*
X028510Y006564D01*
X028635Y006689D01*
X028878Y006790D01*
X028911Y006790D01*
X028848Y006854D01*
X028848Y007402D01*
X029236Y007790D01*
X029784Y007790D01*
X030172Y007402D01*
X030172Y006854D01*
X030108Y006790D01*
X030142Y006790D01*
X030385Y006689D01*
X030510Y006564D01*
X030635Y006689D01*
X030878Y006790D01*
X031142Y006790D01*
X031385Y006689D01*
X031510Y006564D01*
X031635Y006689D01*
X031878Y006790D01*
X032142Y006790D01*
X032385Y006689D01*
X032510Y006564D01*
X032635Y006689D01*
X032878Y006790D01*
X033142Y006790D01*
X033385Y006689D01*
X033571Y006503D01*
X033672Y006260D01*
X033672Y005996D01*
X033571Y005753D01*
X033385Y005567D01*
X033142Y005466D01*
X032878Y005466D01*
X032635Y005567D01*
X032510Y005692D01*
X032385Y005567D01*
X032142Y005466D01*
X031878Y005466D01*
X031635Y005567D01*
X031510Y005692D01*
X031385Y005567D01*
X031158Y005473D01*
X031355Y005276D01*
X031462Y005018D01*
X031462Y004738D01*
X031374Y004527D01*
X031731Y004170D01*
X031731Y003621D01*
X031678Y003568D01*
X031908Y003473D01*
X032010Y003371D01*
X032112Y003473D01*
X032370Y003580D01*
X032650Y003580D01*
X032908Y003473D01*
X033105Y003276D01*
X033212Y003018D01*
X033212Y002738D01*
X033105Y002480D01*
X032908Y002283D01*
X032689Y002192D01*
X032760Y002121D01*
X032862Y002223D01*
X033120Y002330D01*
X033400Y002330D01*
X033658Y002223D01*
X033760Y002121D01*
X033831Y002192D01*
X033612Y002283D01*
X033415Y002480D01*
X033308Y002738D01*
X033308Y003018D01*
X033415Y003276D01*
X033612Y003473D01*
X033870Y003580D01*
X034150Y003580D01*
X034408Y003473D01*
X034510Y003371D01*
X034612Y003473D01*
X034870Y003580D01*
X035150Y003580D01*
X035408Y003473D01*
X035510Y003371D01*
X035612Y003473D01*
X035870Y003580D01*
X036150Y003580D01*
X036408Y003473D01*
X036510Y003371D01*
X036612Y003473D01*
X036870Y003580D01*
X037150Y003580D01*
X037408Y003473D01*
X037605Y003276D01*
X037712Y003018D01*
X037712Y002738D01*
X037605Y002480D01*
X037439Y002314D01*
X037658Y002223D01*
X037855Y002026D01*
X037962Y001768D01*
X037962Y001488D01*
X037855Y001230D01*
X037793Y001168D01*
X038175Y001168D01*
X038170Y001176D01*
X038090Y001474D01*
X038090Y001782D01*
X038170Y002080D01*
X038324Y002346D01*
X038541Y002564D01*
X038808Y002718D01*
X039106Y002798D01*
X039414Y002798D01*
X039711Y002718D01*
X039978Y002564D01*
X040196Y002346D01*
X040350Y002080D01*
X040430Y001782D01*
X040430Y001474D01*
X040350Y001176D01*
X040345Y001168D01*
X040840Y001168D01*
X040840Y003255D01*
X040650Y003176D01*
X040370Y003176D01*
X040112Y003283D01*
X039926Y003469D01*
X039833Y003245D01*
X039643Y003055D01*
X039394Y002952D01*
X039260Y002952D01*
X039260Y003628D01*
X039260Y003628D01*
X039260Y002952D01*
X039125Y002952D01*
X038877Y003055D01*
X038760Y003172D01*
X038643Y003055D01*
X038394Y002952D01*
X038260Y002952D01*
X038260Y003628D01*
X038584Y003628D01*
X039259Y003628D01*
X039259Y003628D01*
X038584Y003628D01*
X038260Y003628D01*
X038260Y003628D01*
X038260Y003628D01*
X038260Y002952D01*
X038125Y002952D01*
X037877Y003055D01*
X037687Y003245D01*
X037584Y003494D01*
X037584Y003628D01*
X038259Y003628D01*
X038259Y003628D01*
X037584Y003628D01*
X037584Y003763D01*
X037687Y004011D01*
X037785Y004110D01*
X037665Y004230D01*
X037635Y004302D01*
X037605Y004230D01*
X037408Y004033D01*
X037150Y003926D01*
X036870Y003926D01*
X036612Y004033D01*
X036426Y004219D01*
X036333Y003995D01*
X036143Y003805D01*
X035894Y003702D01*
X035760Y003702D01*
X035760Y004378D01*
X035760Y004378D01*
X035760Y004378D01*
X035760Y004702D01*
X035760Y005378D01*
X035760Y005378D01*
X035760Y005378D01*
X035760Y006054D01*
X035760Y006378D01*
X035760Y006378D01*
X035760Y006378D01*
X035760Y006702D01*
X035760Y007378D01*
X036436Y007378D01*
X036436Y007513D01*
X036333Y007761D01*
X036143Y007951D01*
X035894Y008054D01*
X035760Y008054D01*
X035760Y007378D01*
X035760Y007378D01*
X036436Y007378D01*
X036436Y007244D01*
X036333Y006995D01*
X036216Y006878D01*
X036313Y006781D01*
X036415Y007026D01*
X036612Y007223D01*
X036870Y007330D01*
X037150Y007330D01*
X037408Y007223D01*
X037605Y007026D01*
X037635Y006954D01*
X037665Y007026D01*
X037767Y007128D01*
X037665Y007230D01*
X037558Y007488D01*
X037558Y007768D01*
X037665Y008026D01*
X037767Y008128D01*
X037665Y008230D01*
X037558Y008488D01*
X037558Y008768D01*
X037665Y009026D01*
X037767Y009128D01*
X037665Y009230D01*
X037558Y009488D01*
X037558Y009768D01*
X037665Y010026D01*
X037767Y010128D01*
X037665Y010230D01*
X037558Y010488D01*
X037558Y010768D01*
X037665Y011026D01*
X037767Y011128D01*
X037665Y011230D01*
X037558Y011488D01*
X037558Y011768D01*
X037665Y012026D01*
X037767Y012128D01*
X037665Y012230D01*
X037558Y012488D01*
X037558Y012768D01*
X037665Y013026D01*
X037767Y013128D01*
X037665Y013230D01*
X037558Y013488D01*
X037558Y013768D01*
X037665Y014026D01*
X037767Y014128D01*
X037665Y014230D01*
X037558Y014488D01*
X037558Y014768D01*
X037665Y015026D01*
X037767Y015128D01*
X037665Y015230D01*
X037558Y015488D01*
X037558Y015768D01*
X037665Y016026D01*
X037767Y016128D01*
X037665Y016230D01*
X037558Y016488D01*
X037558Y016768D01*
X037665Y017026D01*
X037767Y017128D01*
X037665Y017230D01*
X037558Y017488D01*
X037558Y017768D01*
X037665Y018026D01*
X037767Y018128D01*
X037665Y018230D01*
X037558Y018488D01*
X037558Y018768D01*
X037665Y019026D01*
X037767Y019128D01*
X037665Y019230D01*
X037558Y019488D01*
X037558Y019768D01*
X037560Y019774D01*
X037478Y019692D01*
X037211Y019538D01*
X036914Y019458D01*
X036606Y019458D01*
X036308Y019538D01*
X036041Y019692D01*
X035824Y019910D01*
X035718Y020093D01*
X035658Y020033D01*
X035400Y019926D01*
X035120Y019926D01*
X034862Y020033D01*
X034760Y020135D01*
X034658Y020033D01*
X034400Y019926D01*
X034120Y019926D01*
X033862Y020033D01*
X033760Y020135D01*
X033658Y020033D01*
X033400Y019926D01*
X033120Y019926D01*
X032862Y020033D01*
X032760Y020135D01*
X032658Y020033D01*
X032400Y019926D01*
X032120Y019926D01*
X031862Y020033D01*
X031760Y020135D01*
X031658Y020033D01*
X031400Y019926D01*
X031120Y019926D01*
X030862Y020033D01*
X030760Y020135D01*
X030658Y020033D01*
X030400Y019926D01*
X030120Y019926D01*
X029862Y020033D01*
X029760Y020135D01*
X029658Y020033D01*
X029400Y019926D01*
X029120Y019926D01*
X028862Y020033D01*
X028760Y020135D01*
X028658Y020033D01*
X028400Y019926D01*
X028120Y019926D01*
X027862Y020033D01*
X027665Y020230D01*
X027558Y020488D01*
X027558Y020768D01*
X027665Y021026D01*
X027723Y021084D01*
X026797Y021084D01*
X026855Y021026D01*
X026962Y020768D01*
X026962Y020488D01*
X026855Y020230D01*
X026658Y020033D01*
X026400Y019926D01*
X026120Y019926D01*
X025862Y020033D01*
X025760Y020135D01*
X025658Y020033D01*
X025400Y019926D01*
X025120Y019926D01*
X024862Y020033D01*
X024760Y020135D01*
X024658Y020033D01*
X024400Y019926D01*
X024120Y019926D01*
X023862Y020033D01*
X023760Y020135D01*
X023658Y020033D01*
X023586Y020003D01*
X023658Y019973D01*
X023855Y019776D01*
X023962Y019518D01*
X023962Y019238D01*
X023855Y018980D01*
X023658Y018783D01*
X023400Y018676D01*
X023120Y018676D01*
X022862Y018783D01*
X022760Y018885D01*
X022658Y018783D01*
X022400Y018676D01*
X022120Y018676D01*
X021862Y018783D01*
X021760Y018885D01*
X021658Y018783D01*
X021400Y018676D01*
X021120Y018676D01*
X020862Y018783D01*
X020760Y018885D01*
X020658Y018783D01*
X020400Y018676D01*
X020120Y018676D01*
X019862Y018783D01*
X019665Y018980D01*
X019558Y019238D01*
X019558Y019518D01*
X019665Y019776D01*
X019862Y019973D01*
X019934Y020003D01*
X019862Y020033D01*
X019760Y020135D01*
X019658Y020033D01*
X019400Y019926D01*
X019120Y019926D01*
X018862Y020033D01*
X018665Y020230D01*
X018558Y020488D01*
X018558Y020768D01*
X018665Y021026D01*
X018723Y021084D01*
X018197Y021084D01*
X018255Y021026D01*
X018362Y020768D01*
X018362Y020488D01*
X018255Y020230D01*
X018058Y020033D01*
X017800Y019926D01*
X017520Y019926D01*
X017262Y020033D01*
X017160Y020135D01*
X017149Y020124D01*
X017169Y020075D01*
X017169Y019181D01*
X017129Y019084D01*
X017054Y019009D01*
X016956Y018968D01*
X016938Y018968D01*
X016844Y018593D01*
X016845Y018586D01*
X016816Y018481D01*
X016790Y018377D01*
X016786Y018372D01*
X016784Y018365D01*
X016718Y018280D01*
X016706Y018263D01*
X016885Y018189D01*
X017010Y018064D01*
X017135Y018189D01*
X017378Y018290D01*
X017642Y018290D01*
X017885Y018189D01*
X018010Y018064D01*
X018135Y018189D01*
X018378Y018290D01*
X018642Y018290D01*
X018885Y018189D01*
X019010Y018064D01*
X019135Y018189D01*
X019378Y018290D01*
X019642Y018290D01*
X019885Y018189D01*
X020010Y018064D01*
X020135Y018189D01*
X020378Y018290D01*
X020642Y018290D01*
X020885Y018189D01*
X020912Y018162D01*
X020978Y018228D01*
X021066Y018264D01*
X021510Y018264D01*
X021510Y017628D01*
X021510Y016992D01*
X021944Y016992D01*
X021848Y016760D01*
X021848Y016496D01*
X021948Y016253D01*
X022135Y016067D01*
X022378Y015966D01*
X022642Y015966D01*
X022885Y016067D01*
X023028Y016210D01*
X023246Y015992D01*
X023510Y015992D01*
X023707Y015992D01*
X023684Y015954D01*
X020536Y015954D01*
X019919Y016725D01*
X019919Y017075D01*
X019912Y017093D01*
X020010Y017192D01*
X020135Y017067D01*
X020378Y016966D01*
X020642Y016966D01*
X020885Y017067D01*
X020912Y017094D01*
X020978Y017028D01*
X021066Y016992D01*
X021510Y016992D01*
X021510Y017628D01*
X021510Y017628D01*
X021510Y017628D01*
X021510Y018264D01*
X021954Y018264D01*
X022042Y018228D01*
X022108Y018162D01*
X022135Y018189D01*
X022378Y018290D01*
X022642Y018290D01*
X022885Y018189D01*
X022912Y018162D01*
X022978Y018228D01*
X023066Y018264D01*
X023510Y018264D01*
X023510Y017628D01*
X023510Y016992D01*
X023510Y016628D01*
X023510Y015992D01*
X023510Y016628D01*
X023510Y016628D01*
X023510Y016628D01*
X023510Y016992D01*
X023510Y017628D01*
X023510Y017628D01*
X023510Y017628D01*
X023510Y018264D01*
X023954Y018264D01*
X024042Y018228D01*
X024108Y018162D01*
X024135Y018189D01*
X024378Y018290D01*
X024642Y018290D01*
X024885Y018189D01*
X025010Y018064D01*
X025135Y018189D01*
X025378Y018290D01*
X025642Y018290D01*
X025885Y018189D01*
X026010Y018064D01*
X026135Y018189D01*
X026378Y018290D01*
X026642Y018290D01*
X026885Y018189D01*
X027010Y018064D01*
X027135Y018189D01*
X027378Y018290D01*
X027642Y018290D01*
X027885Y018189D01*
X028010Y018064D01*
X028135Y018189D01*
X028378Y018290D01*
X028642Y018290D01*
X028885Y018189D01*
X028912Y018162D01*
X028978Y018228D01*
X029066Y018264D01*
X029510Y018264D01*
X029510Y017628D01*
X029510Y016992D01*
X029954Y016992D01*
X030042Y017028D01*
X030109Y017096D01*
X030127Y017139D01*
X030187Y016995D01*
X030285Y016896D01*
X030165Y016776D01*
X030058Y016518D01*
X030058Y016238D01*
X030165Y015980D01*
X030362Y015783D01*
X030620Y015676D01*
X030900Y015676D01*
X031158Y015783D01*
X031260Y015885D01*
X031362Y015783D01*
X031620Y015676D01*
X031900Y015676D01*
X032158Y015783D01*
X032260Y015885D01*
X032362Y015783D01*
X032620Y015676D01*
X032900Y015676D01*
X033158Y015783D01*
X033260Y015885D01*
X033362Y015783D01*
X033620Y015676D01*
X033900Y015676D01*
X034158Y015783D01*
X034260Y015885D01*
X034362Y015783D01*
X034620Y015676D01*
X034900Y015676D01*
X035158Y015783D01*
X035260Y015885D01*
X035362Y015783D01*
X035620Y015676D01*
X035900Y015676D01*
X036158Y015783D01*
X036355Y015980D01*
X036462Y016238D01*
X036462Y016518D01*
X036355Y016776D01*
X036234Y016896D01*
X036333Y016995D01*
X036436Y017244D01*
X036436Y017378D01*
X036436Y017513D01*
X036333Y017761D01*
X036234Y017860D01*
X036355Y017980D01*
X036462Y018238D01*
X036462Y018518D01*
X036355Y018776D01*
X036158Y018973D01*
X035900Y019080D01*
X035620Y019080D01*
X035362Y018973D01*
X035260Y018871D01*
X035158Y018973D01*
X034900Y019080D01*
X034620Y019080D01*
X034362Y018973D01*
X034260Y018871D01*
X034158Y018973D01*
X033900Y019080D01*
X033620Y019080D01*
X033362Y018973D01*
X033260Y018871D01*
X033158Y018973D01*
X032900Y019080D01*
X032620Y019080D01*
X032362Y018973D01*
X032260Y018871D01*
X032158Y018973D01*
X031900Y019080D01*
X031620Y019080D01*
X031362Y018973D01*
X031260Y018871D01*
X031158Y018973D01*
X030900Y019080D01*
X030620Y019080D01*
X030362Y018973D01*
X030165Y018776D01*
X030058Y018518D01*
X030058Y018238D01*
X030076Y018193D01*
X030042Y018228D01*
X029954Y018264D01*
X029510Y018264D01*
X029510Y017628D01*
X029510Y017628D01*
X029510Y017628D01*
X029510Y016992D01*
X029066Y016992D01*
X028978Y017028D01*
X028912Y017094D01*
X028885Y017067D01*
X028642Y016966D01*
X028378Y016966D01*
X028135Y017067D01*
X028010Y017192D01*
X027885Y017067D01*
X027642Y016966D01*
X027378Y016966D01*
X027135Y017067D01*
X027010Y017192D01*
X026885Y017067D01*
X026642Y016966D01*
X026378Y016966D01*
X026344Y016980D01*
X026422Y016902D01*
X026422Y016354D01*
X026034Y015966D01*
X025486Y015966D01*
X025373Y016078D01*
X025304Y016009D01*
X025206Y015968D01*
X025035Y015968D01*
X024525Y015118D01*
X024498Y015052D01*
X024467Y015021D01*
X024444Y014984D01*
X024387Y014941D01*
X024336Y014890D01*
X024296Y014873D01*
X024261Y014847D01*
X024191Y014830D01*
X024124Y014802D01*
X024081Y014802D01*
X024038Y014792D01*
X023967Y014802D01*
X020342Y014802D01*
X020310Y014793D01*
X020228Y014802D01*
X020145Y014802D01*
X020115Y014815D01*
X020082Y014819D01*
X020010Y014858D01*
X019934Y014890D01*
X019911Y014913D01*
X019882Y014929D01*
X019830Y014994D01*
X019772Y015052D01*
X019759Y015082D01*
X019050Y015968D01*
X018813Y015968D01*
X018715Y016009D01*
X018641Y016084D01*
X018600Y016181D01*
X018600Y016282D01*
X018284Y015966D01*
X017736Y015966D01*
X017348Y016354D01*
X017348Y016902D01*
X017411Y016966D01*
X017378Y016966D01*
X017135Y017067D01*
X017010Y017192D01*
X016885Y017067D01*
X016642Y016966D01*
X016378Y016966D01*
X016135Y017067D01*
X016108Y017094D01*
X016042Y017028D01*
X016019Y017019D01*
X016146Y016892D01*
X016146Y016628D01*
X015510Y016628D01*
X015510Y016628D01*
X016146Y016628D01*
X016146Y016364D01*
X015773Y015992D01*
X015510Y015992D01*
X015510Y016628D01*
X015510Y016628D01*
X015510Y016628D01*
X015510Y017264D01*
X015510Y017628D01*
X015510Y017628D01*
X015510Y016992D01*
X015510Y016628D01*
X015510Y015992D01*
X015246Y015992D01*
X015028Y016210D01*
X014885Y016067D01*
X014642Y015966D01*
X014378Y015966D01*
X014335Y015984D01*
X014335Y013272D01*
X014378Y013290D01*
X014642Y013290D01*
X014885Y013189D01*
X015010Y013064D01*
X015135Y013189D01*
X015378Y013290D01*
X015642Y013290D01*
X015885Y013189D01*
X016010Y013064D01*
X016135Y013189D01*
X016378Y013290D01*
X016642Y013290D01*
X016885Y013189D01*
X017010Y013064D01*
X017135Y013189D01*
X017378Y013290D01*
X017411Y013290D01*
X017348Y013354D01*
X017348Y013902D01*
X017736Y014290D01*
X018284Y014290D01*
X018672Y013902D01*
X018672Y013354D01*
X018608Y013290D01*
X018642Y013290D01*
X018885Y013189D01*
X019010Y013064D01*
X019135Y013189D01*
X019378Y013290D01*
X019642Y013290D01*
X019885Y013189D01*
X020010Y013064D01*
X020135Y013189D01*
X020378Y013290D01*
X020642Y013290D01*
X020885Y013189D01*
X021010Y013064D01*
X021135Y013189D01*
X021378Y013290D01*
X021642Y013290D01*
X021885Y013189D01*
X022010Y013064D01*
X022135Y013189D01*
X022378Y013290D01*
X022642Y013290D01*
X022885Y013189D01*
X023010Y013064D01*
X023135Y013189D01*
X023378Y013290D01*
X023642Y013290D01*
X023885Y013189D01*
X024010Y013064D01*
X024135Y013189D01*
X024378Y013290D01*
X024642Y013290D01*
X024885Y013189D01*
X025010Y013064D01*
X025135Y013189D01*
X025225Y013227D01*
X025098Y013354D01*
X025098Y013902D01*
X025486Y014290D01*
X026034Y014290D01*
X026422Y013902D01*
X026422Y013354D01*
X026344Y013276D01*
X026378Y013290D01*
X026642Y013290D01*
X026885Y013189D01*
X027010Y013064D01*
X027135Y013189D01*
X027378Y013290D01*
X027642Y013290D01*
X027885Y013189D01*
X028010Y013064D01*
X028135Y013189D01*
X028378Y013290D01*
X028642Y013290D01*
X028885Y013189D01*
X029010Y013064D01*
X029135Y013189D01*
X029378Y013290D01*
X029642Y013290D01*
X029885Y013189D01*
X030071Y013003D01*
X030172Y012760D01*
X030172Y012496D01*
X030071Y012253D01*
X029885Y012067D01*
X029642Y011966D01*
X029378Y011966D01*
X029135Y012067D01*
X029010Y012192D01*
X028885Y012067D01*
X028642Y011966D01*
X028378Y011966D01*
X028135Y012067D01*
X028010Y012192D01*
X027885Y012067D01*
X027642Y011966D01*
X027378Y011966D01*
X027135Y012067D01*
X027010Y012192D01*
X026885Y012067D01*
X026642Y011966D01*
X026378Y011966D01*
X026135Y012067D01*
X026010Y012192D01*
X025885Y012067D01*
X025642Y011966D01*
X025378Y011966D01*
X025135Y012067D01*
X025010Y012192D01*
X024885Y012067D01*
X024642Y011966D01*
X024378Y011966D01*
X024135Y012067D01*
X024010Y012192D01*
X023885Y012067D01*
X023642Y011966D01*
X023378Y011966D01*
X023135Y012067D01*
X023010Y012192D01*
X022885Y012067D01*
X022642Y011966D01*
X022378Y011966D01*
X022135Y012067D01*
X022010Y012192D01*
X021885Y012067D01*
X021642Y011966D01*
X021378Y011966D01*
X021135Y012067D01*
X021010Y012192D01*
X020885Y012067D01*
X020642Y011966D01*
X020378Y011966D01*
X020135Y012067D01*
X020010Y012192D01*
X019885Y012067D01*
X019642Y011966D01*
X019378Y011966D01*
X019135Y012067D01*
X019010Y012192D01*
X018885Y012067D01*
X018642Y011966D01*
X018378Y011966D01*
X018135Y012067D01*
X018010Y012192D01*
X017885Y012067D01*
X017642Y011966D01*
X017378Y011966D01*
X017135Y012067D01*
X017010Y012192D01*
X016885Y012067D01*
X016642Y011966D01*
X016378Y011966D01*
X016135Y012067D01*
X016010Y012192D01*
X015885Y012067D01*
X015642Y011966D01*
X015378Y011966D01*
X015282Y012006D01*
X015646Y011642D01*
X015646Y011378D01*
X015010Y011378D01*
X015010Y011378D01*
X015646Y011378D01*
X015646Y011114D01*
X015273Y010742D01*
X015010Y010742D01*
X015010Y011378D01*
X015010Y011378D01*
X015010Y011378D01*
X015010Y012014D01*
X015261Y012014D01*
X015135Y012067D01*
X015010Y012192D01*
X014885Y012067D01*
X014758Y012014D01*
X015010Y012014D01*
X015010Y011378D01*
X015010Y010742D01*
X014746Y010742D01*
X014374Y011114D01*
X014374Y011378D01*
X015009Y011378D01*
X015009Y011378D01*
X014374Y011378D01*
X014374Y011642D01*
X014738Y012006D01*
X014642Y011966D01*
X014378Y011966D01*
X014335Y011984D01*
X014335Y011880D01*
X014337Y011771D01*
X014335Y011767D01*
X014335Y011764D01*
X014292Y011660D01*
X013419Y009477D01*
X013419Y009330D01*
X013836Y009330D01*
X014094Y009223D01*
X014291Y009026D01*
X014398Y008768D01*
X014398Y008703D01*
X014736Y009040D01*
X015284Y009040D01*
X015672Y008652D01*
X015672Y008104D01*
X015284Y007716D01*
X014736Y007716D01*
X014348Y008104D01*
X014348Y008366D01*
X014291Y008230D01*
X014189Y008128D01*
X014291Y008026D01*
X014398Y007768D01*
X014398Y007488D01*
X014291Y007230D01*
X014171Y007110D01*
X014269Y007011D01*
X014372Y006763D01*
X014372Y006628D01*
X013260Y006628D01*
X013260Y006628D01*
X014372Y006628D01*
X014372Y006494D01*
X014269Y006245D01*
X014079Y006055D01*
X013831Y005952D01*
X013260Y005952D01*
X013260Y006628D01*
X013260Y006628D01*
X013260Y005952D01*
X012689Y005952D01*
X012441Y006055D01*
X012250Y006245D01*
X012147Y006494D01*
X012147Y006628D01*
X013259Y006628D01*
X013259Y006628D01*
X012147Y006628D01*
X012147Y006763D01*
X012250Y007011D01*
X012349Y007110D01*
X012228Y007230D01*
X012121Y007488D01*
X012121Y007768D01*
X012228Y008026D01*
X012331Y008128D01*
X012228Y008230D01*
X012121Y008488D01*
X012121Y008768D01*
X012146Y008828D01*
X012141Y008834D01*
X011213Y008834D01*
X011291Y008866D02*
X011477Y009052D01*
X011578Y009296D01*
X011578Y009559D01*
X011477Y009802D01*
X011291Y009989D01*
X011047Y010089D01*
X009991Y010089D01*
X009748Y009989D01*
X009562Y009802D01*
X009461Y009559D01*
X009461Y009296D01*
X009562Y009052D01*
X009748Y008866D01*
X009991Y008765D01*
X011047Y008765D01*
X011291Y008866D01*
X011502Y009112D02*
X012100Y009112D01*
X012100Y008931D02*
X012141Y008834D01*
X012100Y008931D02*
X012100Y009825D01*
X012141Y009922D01*
X012215Y009997D01*
X012313Y010038D01*
X012404Y010038D01*
X013184Y011989D01*
X013184Y014803D01*
X012919Y014626D01*
X012919Y014431D01*
X012912Y014413D01*
X012922Y014402D01*
X012922Y013854D01*
X012656Y013588D01*
X012712Y013454D01*
X012712Y012302D01*
X012605Y012044D01*
X012408Y011846D01*
X012150Y011740D01*
X011870Y011740D01*
X011612Y011846D01*
X011510Y011949D01*
X011408Y011846D01*
X011150Y011740D01*
X010870Y011740D01*
X010612Y011846D01*
X010491Y011967D01*
X010393Y011869D01*
X010144Y011766D01*
X010010Y011766D01*
X010010Y012878D01*
X010010Y012878D01*
X010010Y012878D01*
X010010Y013990D01*
X010144Y013990D01*
X010393Y013887D01*
X010491Y013789D01*
X010612Y013910D01*
X010870Y014016D01*
X011150Y014016D01*
X011408Y013910D01*
X011510Y013807D01*
X011598Y013895D01*
X011598Y014402D01*
X011608Y014413D01*
X011600Y014431D01*
X011600Y015325D01*
X011641Y015422D01*
X011715Y015497D01*
X011813Y015538D01*
X012212Y015538D01*
X012434Y015686D01*
X012434Y015743D01*
X012444Y015765D01*
X012454Y015893D01*
X012408Y015846D01*
X012150Y015740D01*
X011870Y015740D01*
X011612Y015846D01*
X011510Y015949D01*
X011408Y015846D01*
X011150Y015740D01*
X010870Y015740D01*
X010612Y015846D01*
X010491Y015967D01*
X010393Y015869D01*
X010144Y015766D01*
X010010Y015766D01*
X010010Y016878D01*
X010010Y016878D01*
X010010Y016878D01*
X010010Y017990D01*
X010144Y017990D01*
X010393Y017887D01*
X010491Y017789D01*
X010612Y017910D01*
X010870Y018016D01*
X011150Y018016D01*
X011319Y017946D01*
X011004Y018128D01*
X010862Y018658D01*
X011137Y019133D01*
X011666Y019275D01*
X012099Y019025D01*
X012186Y019242D01*
X012186Y019250D01*
X012228Y019349D01*
X012268Y019448D01*
X012273Y019453D01*
X012276Y019460D01*
X012353Y019535D01*
X012428Y019612D01*
X012435Y019615D01*
X012440Y019620D01*
X012539Y019660D01*
X012638Y019702D01*
X012646Y019702D01*
X013350Y019984D01*
X013350Y019996D01*
X013262Y020033D01*
X013160Y020135D01*
X013058Y020033D01*
X012800Y019926D01*
X012520Y019926D01*
X012262Y020033D01*
X012141Y020153D01*
X012043Y020055D01*
X011794Y019952D01*
X011660Y019952D01*
X011660Y020628D01*
X011660Y020628D01*
X011660Y019952D01*
X011525Y019952D01*
X011277Y020055D01*
X011178Y020153D01*
X011058Y020033D01*
X010800Y019926D01*
X010520Y019926D01*
X010262Y020033D01*
X010065Y020230D01*
X009958Y020488D01*
X009958Y020768D01*
X010065Y021026D01*
X010123Y021084D01*
X008347Y021084D01*
X008350Y021080D01*
X008430Y020782D01*
X008430Y020474D01*
X008389Y020321D01*
X008424Y020382D01*
X008974Y020064D01*
X008975Y020065D01*
X009293Y020615D01*
X008975Y020064D01*
X008975Y020064D01*
X009526Y019746D01*
X009658Y019974D01*
X009521Y020483D01*
X009293Y020615D01*
X009065Y020747D01*
X008556Y020610D01*
X008424Y020382D01*
X008975Y020065D01*
X008975Y020064D01*
X009526Y019746D01*
X009394Y019518D01*
X008885Y019381D01*
X008657Y019513D01*
X008975Y020064D01*
X008974Y020064D01*
X008657Y019513D01*
X008429Y019645D01*
X008306Y020101D01*
X008196Y019910D01*
X007978Y019692D01*
X007711Y019538D01*
X007414Y019458D01*
X007106Y019458D01*
X006808Y019538D01*
X006541Y019692D01*
X006324Y019910D01*
X006170Y020176D01*
X006090Y020474D01*
X006090Y020782D01*
X006170Y021080D01*
X006172Y021084D01*
X001800Y021084D01*
X001800Y006656D01*
X001875Y006732D01*
X002124Y006835D01*
X002258Y006835D01*
X002258Y006159D01*
X002259Y006159D01*
X002935Y006159D01*
X003258Y006159D01*
X003258Y006159D01*
X003258Y006835D01*
X003124Y006835D01*
X002875Y006732D01*
X002759Y006615D01*
X002642Y006732D01*
X002393Y006835D01*
X002259Y006835D01*
X002259Y006159D01*
X002259Y006159D01*
X002935Y006159D01*
X003258Y006159D01*
X003259Y006159D01*
X003935Y006159D01*
X004258Y006159D01*
X004258Y006159D01*
X004258Y006835D01*
X004124Y006835D01*
X003875Y006732D01*
X003759Y006615D01*
X003642Y006732D01*
X003393Y006835D01*
X003259Y006835D01*
X003259Y006159D01*
X003259Y006159D01*
X003935Y006159D01*
X004258Y006159D01*
X004259Y006159D01*
X004935Y006159D01*
X004935Y006293D01*
X004832Y006542D01*
X004642Y006732D01*
X004393Y006835D01*
X004259Y006835D01*
X004259Y006159D01*
X004259Y006159D01*
X004935Y006159D01*
X004935Y006024D01*
X004832Y005776D01*
X004642Y005586D01*
X004393Y005483D01*
X004259Y005483D01*
X004259Y006158D01*
X004258Y006158D01*
X004258Y005483D01*
X004124Y005483D01*
X003875Y005586D01*
X003759Y005703D01*
X003642Y005586D01*
X003393Y005483D01*
X003259Y005483D01*
X003259Y006158D01*
X003258Y006158D01*
X003258Y005483D01*
X003124Y005483D01*
X002875Y005586D01*
X002759Y005703D01*
X002642Y005586D01*
X002393Y005483D01*
X002259Y005483D01*
X002259Y006158D01*
X002258Y006158D01*
X002258Y005483D01*
X002124Y005483D01*
X001875Y005586D01*
X001800Y005661D01*
X001800Y005491D02*
X002103Y005491D01*
X002258Y005491D02*
X002259Y005491D01*
X002414Y005491D02*
X003103Y005491D01*
X003258Y005491D02*
X003259Y005491D01*
X003414Y005491D02*
X004103Y005491D01*
X004258Y005491D02*
X004259Y005491D01*
X004414Y005491D02*
X005962Y005491D01*
X005862Y005533D02*
X006120Y005426D01*
X006400Y005426D01*
X006658Y005533D01*
X006760Y005635D01*
X006862Y005533D01*
X007120Y005426D01*
X007400Y005426D01*
X007658Y005533D01*
X007760Y005635D01*
X007862Y005533D01*
X008120Y005426D01*
X008400Y005426D01*
X008658Y005533D01*
X008855Y005730D01*
X008962Y005988D01*
X008962Y006268D01*
X008855Y006526D01*
X008658Y006723D01*
X008400Y006830D01*
X008120Y006830D01*
X007862Y006723D01*
X007760Y006621D01*
X007658Y006723D01*
X007400Y006830D01*
X007120Y006830D01*
X006862Y006723D01*
X006760Y006621D01*
X006658Y006723D01*
X006400Y006830D01*
X006120Y006830D01*
X005862Y006723D01*
X005665Y006526D01*
X005558Y006268D01*
X005558Y005988D01*
X005665Y005730D01*
X005862Y005533D01*
X005648Y005770D02*
X004826Y005770D01*
X004935Y006048D02*
X005558Y006048D01*
X005582Y006327D02*
X004921Y006327D01*
X004768Y006605D02*
X005744Y006605D01*
X004259Y006605D02*
X004258Y006605D01*
X004258Y006327D02*
X004259Y006327D01*
X004258Y006048D02*
X004259Y006048D01*
X004258Y005770D02*
X004259Y005770D01*
X003259Y005770D02*
X003258Y005770D01*
X003258Y006048D02*
X003259Y006048D01*
X003258Y006327D02*
X003259Y006327D01*
X003258Y006605D02*
X003259Y006605D01*
X002259Y006605D02*
X002258Y006605D01*
X002258Y006327D02*
X002259Y006327D01*
X002258Y006048D02*
X002259Y006048D01*
X002258Y005770D02*
X002259Y005770D01*
X001800Y005213D02*
X009495Y005213D01*
X009461Y005296D02*
X009562Y005052D01*
X009748Y004866D01*
X009991Y004765D01*
X011047Y004765D01*
X011291Y004866D01*
X011477Y005052D01*
X011578Y005296D01*
X011578Y005559D01*
X011477Y005802D01*
X011291Y005989D01*
X011047Y006089D01*
X009991Y006089D01*
X009748Y005989D01*
X009562Y005802D01*
X009461Y005559D01*
X009461Y005296D01*
X009461Y005491D02*
X008557Y005491D01*
X007962Y005491D02*
X007557Y005491D01*
X006962Y005491D02*
X006557Y005491D01*
X005305Y004443D02*
X005086Y004662D01*
X004801Y004780D01*
X003469Y004780D01*
X003183Y004662D01*
X002965Y004443D01*
X002846Y004158D01*
X002846Y003848D01*
X002965Y003563D01*
X003183Y003344D01*
X003469Y003226D01*
X004801Y003226D01*
X005086Y003344D01*
X005305Y003563D01*
X005423Y003848D01*
X005423Y004158D01*
X005305Y004443D01*
X005332Y004377D02*
X013945Y004377D01*
X013666Y004099D02*
X012547Y004099D01*
X012614Y004032D02*
X012413Y004232D01*
X012152Y004340D01*
X012010Y004340D01*
X012010Y003628D01*
X012722Y003628D01*
X012722Y003770D01*
X012614Y004032D01*
X012701Y003820D02*
X013385Y003820D01*
X013177Y003541D02*
X012722Y003541D01*
X012722Y003486D02*
X012722Y003628D01*
X012010Y003628D01*
X012010Y003628D01*
X012010Y003628D01*
X012010Y004340D01*
X011868Y004340D01*
X011606Y004232D01*
X011406Y004032D01*
X011297Y003770D01*
X011297Y003628D01*
X011297Y003486D01*
X011390Y003262D01*
X011384Y003262D01*
X011151Y003165D01*
X010973Y002987D01*
X010876Y002754D01*
X010876Y002628D01*
X010876Y002502D01*
X010973Y002269D01*
X011151Y002091D01*
X011384Y001994D01*
X011510Y001994D01*
X011636Y001994D01*
X011869Y002091D01*
X012047Y002269D01*
X012144Y002502D01*
X012144Y002628D01*
X012144Y002754D01*
X012077Y002916D01*
X012152Y002916D01*
X012413Y003024D01*
X012614Y003224D01*
X012722Y003486D01*
X012753Y003263D02*
X012630Y003263D01*
X012600Y002984D02*
X012317Y002984D01*
X012144Y002706D02*
X012600Y002706D01*
X012144Y002628D02*
X011510Y002628D01*
X011510Y002628D01*
X012144Y002628D01*
X012113Y002427D02*
X012600Y002427D01*
X012614Y002149D02*
X011927Y002149D01*
X011510Y002149D02*
X011510Y002149D01*
X011510Y001994D02*
X011510Y002628D01*
X011510Y002628D01*
X011510Y001994D01*
X011510Y002427D02*
X011510Y002427D01*
X011509Y002628D02*
X010876Y002628D01*
X011509Y002628D01*
X011509Y002628D01*
X010907Y002427D02*
X010391Y002427D01*
X010419Y002497D02*
X010419Y002759D01*
X010319Y003002D01*
X010134Y003187D01*
X009891Y003288D01*
X009890Y003288D01*
X009972Y003486D01*
X009972Y003628D01*
X009972Y003770D01*
X009864Y004032D01*
X009663Y004232D01*
X009402Y004340D01*
X009260Y004340D01*
X009260Y003628D01*
X009972Y003628D01*
X009260Y003628D01*
X009260Y003628D01*
X009260Y003628D01*
X009260Y004340D01*
X009118Y004340D01*
X008856Y004232D01*
X008656Y004032D01*
X008547Y003770D01*
X008547Y003628D01*
X008547Y003486D01*
X008656Y003224D01*
X008856Y003024D01*
X009118Y002916D01*
X009165Y002916D01*
X009100Y002759D01*
X009100Y002497D01*
X009201Y002254D01*
X009386Y002069D01*
X009629Y001968D01*
X009891Y001968D01*
X010134Y002069D01*
X010319Y002254D01*
X010419Y002497D01*
X010419Y002706D02*
X010876Y002706D01*
X010972Y002984D02*
X010326Y002984D01*
X009951Y003263D02*
X011390Y003263D01*
X011297Y003541D02*
X009972Y003541D01*
X009951Y003820D02*
X011318Y003820D01*
X011297Y003628D02*
X012009Y003628D01*
X011297Y003628D01*
X012009Y003628D02*
X012009Y003628D01*
X012010Y003820D02*
X012010Y003820D01*
X012010Y004099D02*
X012010Y004099D01*
X011473Y004099D02*
X009797Y004099D01*
X009260Y004099D02*
X009260Y004099D01*
X009260Y003820D02*
X009260Y003820D01*
X009259Y003628D02*
X009259Y003628D01*
X008547Y003628D01*
X009259Y003628D01*
X008723Y004099D02*
X005423Y004099D01*
X005411Y003820D02*
X008568Y003820D01*
X008547Y003541D02*
X005284Y003541D01*
X004890Y003263D02*
X008640Y003263D01*
X008952Y002984D02*
X001800Y002984D01*
X001800Y002706D02*
X003357Y002706D01*
X003474Y002754D02*
X003198Y002640D01*
X002987Y002429D01*
X002872Y002152D01*
X002872Y002003D01*
X002872Y001854D01*
X002987Y001577D01*
X003198Y001366D01*
X003474Y001252D01*
X004135Y001252D01*
X004795Y001252D01*
X005072Y001366D01*
X005283Y001577D01*
X005397Y001854D01*
X005397Y002003D01*
X005397Y002152D01*
X005283Y002429D01*
X005072Y002640D01*
X004795Y002754D01*
X004135Y002754D01*
X004135Y002003D01*
X005397Y002003D01*
X004135Y002003D01*
X004135Y002003D01*
X004135Y001252D01*
X004135Y002003D01*
X004135Y002003D01*
X004135Y002003D01*
X004135Y002754D01*
X003474Y002754D01*
X004135Y002706D02*
X004135Y002706D01*
X004135Y002427D02*
X004135Y002427D01*
X004135Y002149D02*
X004135Y002149D01*
X004134Y002003D02*
X004134Y002003D01*
X002872Y002003D01*
X004134Y002003D01*
X004135Y001870D02*
X004135Y001870D01*
X004135Y001592D02*
X004135Y001592D01*
X004135Y001313D02*
X004135Y001313D01*
X003326Y001313D02*
X001800Y001313D01*
X001800Y001592D02*
X002981Y001592D01*
X002872Y001870D02*
X001800Y001870D01*
X001800Y002149D02*
X002872Y002149D01*
X002986Y002427D02*
X001800Y002427D01*
X001800Y003263D02*
X003380Y003263D01*
X002986Y003541D02*
X001800Y003541D01*
X001800Y003820D02*
X002858Y003820D01*
X002846Y004099D02*
X001800Y004099D01*
X001800Y004377D02*
X002937Y004377D01*
X003177Y004656D02*
X001800Y004656D01*
X001800Y004934D02*
X009680Y004934D01*
X009548Y005770D02*
X008871Y005770D01*
X008962Y006048D02*
X009892Y006048D01*
X008938Y006327D02*
X012216Y006327D01*
X012147Y006605D02*
X008776Y006605D01*
X008277Y007569D02*
X008035Y007468D01*
X006985Y007468D01*
X006742Y007569D01*
X006557Y007754D01*
X006456Y007997D01*
X006456Y008259D01*
X006557Y008502D01*
X006742Y008687D01*
X006985Y008788D01*
X008035Y008788D01*
X008277Y008687D01*
X008463Y008502D01*
X008563Y008259D01*
X008563Y007997D01*
X008463Y007754D01*
X008277Y007569D01*
X008428Y007720D02*
X012121Y007720D01*
X012141Y007441D02*
X001800Y007441D01*
X001800Y007162D02*
X012296Y007162D01*
X012198Y006884D02*
X001800Y006884D01*
X001800Y007720D02*
X006592Y007720D01*
X006456Y007998D02*
X001800Y007998D01*
X001800Y008277D02*
X006464Y008277D01*
X006610Y008555D02*
X001800Y008555D01*
X001800Y008834D02*
X009826Y008834D01*
X009537Y009112D02*
X001800Y009112D01*
X001800Y009391D02*
X009461Y009391D01*
X009507Y009669D02*
X008378Y009669D01*
X008463Y009754D02*
X008563Y009997D01*
X008563Y010259D01*
X008463Y010502D01*
X008277Y010687D01*
X008035Y010788D01*
X006985Y010788D01*
X006742Y010687D01*
X006557Y010502D01*
X006456Y010259D01*
X006456Y009997D01*
X006557Y009754D01*
X006742Y009569D01*
X006985Y009468D01*
X008035Y009468D01*
X008277Y009569D01*
X008463Y009754D01*
X008543Y009948D02*
X009707Y009948D01*
X008563Y010226D02*
X012479Y010226D01*
X012591Y010505D02*
X008459Y010505D01*
X008045Y010784D02*
X012702Y010784D01*
X012814Y011062D02*
X001800Y011062D01*
X001800Y010784D02*
X006975Y010784D01*
X006560Y010505D02*
X001800Y010505D01*
X001800Y010226D02*
X006456Y010226D01*
X006477Y009948D02*
X001800Y009948D01*
X001800Y009669D02*
X006642Y009669D01*
X008409Y008555D02*
X012121Y008555D01*
X012209Y008277D02*
X008556Y008277D01*
X008563Y007998D02*
X012217Y007998D01*
X014303Y007998D02*
X014453Y007998D01*
X014348Y008277D02*
X014311Y008277D01*
X014371Y008834D02*
X014529Y008834D01*
X014205Y009112D02*
X016001Y009112D01*
X015848Y009391D02*
X013419Y009391D01*
X013496Y009669D02*
X015808Y009669D01*
X015882Y009948D02*
X013608Y009948D01*
X013719Y010226D02*
X015918Y010226D01*
X015808Y010505D02*
X013830Y010505D01*
X013942Y010784D02*
X014705Y010784D01*
X015010Y010784D02*
X015010Y010784D01*
X015010Y011062D02*
X015010Y011062D01*
X015315Y010784D02*
X015814Y010784D01*
X015951Y011062D02*
X015594Y011062D01*
X015646Y011341D02*
X017381Y011341D01*
X017348Y011260D02*
X017348Y010996D01*
X017448Y010753D01*
X017573Y010628D01*
X017448Y010503D01*
X017348Y010260D01*
X017348Y009996D01*
X017448Y009753D01*
X017635Y009567D01*
X017878Y009466D01*
X018142Y009466D01*
X018385Y009567D01*
X018528Y009710D01*
X018746Y009492D01*
X019010Y009492D01*
X019010Y010128D01*
X019010Y010764D01*
X019010Y011128D01*
X019010Y011764D01*
X018566Y011764D01*
X018478Y011728D01*
X018412Y011662D01*
X018385Y011689D01*
X018142Y011790D01*
X017878Y011790D01*
X017635Y011689D01*
X017448Y011503D01*
X017348Y011260D01*
X017348Y011062D02*
X017069Y011062D01*
X017205Y010784D02*
X017436Y010784D01*
X017450Y010505D02*
X017212Y010505D01*
X017101Y010226D02*
X017348Y010226D01*
X017368Y009948D02*
X017137Y009948D01*
X017212Y009669D02*
X017532Y009669D01*
X017172Y009391D02*
X019684Y009391D01*
X019613Y009112D02*
X017019Y009112D01*
X017185Y008834D02*
X019242Y008834D01*
X018870Y008555D02*
X017212Y008555D01*
X017124Y008277D02*
X018499Y008277D01*
X018127Y007998D02*
X017117Y007998D01*
X017212Y007720D02*
X017756Y007720D01*
X017385Y007441D02*
X017192Y007441D01*
X016642Y006884D02*
X014322Y006884D01*
X014224Y007162D02*
X015982Y007162D01*
X015827Y007441D02*
X014379Y007441D01*
X014398Y007720D02*
X014732Y007720D01*
X015288Y007720D02*
X015808Y007720D01*
X015903Y007998D02*
X015566Y007998D01*
X015672Y008277D02*
X015895Y008277D01*
X015808Y008555D02*
X015672Y008555D01*
X015835Y008834D02*
X015491Y008834D01*
X018488Y009669D02*
X018569Y009669D01*
X019010Y009669D02*
X019010Y009669D01*
X019010Y009948D02*
X019010Y009948D01*
X019451Y009669D02*
X019605Y009669D01*
X019010Y010226D02*
X019010Y010226D01*
X019010Y010505D02*
X019010Y010505D01*
X019010Y010784D02*
X019010Y010784D01*
X019010Y011062D02*
X019010Y011062D01*
X019010Y011341D02*
X019010Y011341D01*
X019010Y011619D02*
X019010Y011619D01*
X018994Y012176D02*
X019025Y012176D01*
X018025Y012176D02*
X017994Y012176D01*
X017025Y012176D02*
X016994Y012176D01*
X016025Y012176D02*
X015994Y012176D01*
X015390Y011898D02*
X037611Y011898D01*
X037558Y011619D02*
X033626Y011619D01*
X033646Y011341D02*
X037619Y011341D01*
X037701Y011062D02*
X033646Y011062D01*
X033646Y010784D02*
X037564Y010784D01*
X037558Y010505D02*
X033486Y010505D01*
X033010Y010505D02*
X033010Y010505D01*
X033010Y010784D02*
X033010Y010784D01*
X033010Y011062D02*
X033010Y011062D01*
X033010Y011341D02*
X033010Y011341D01*
X033010Y011619D02*
X033010Y011619D01*
X031565Y011619D02*
X031455Y011619D01*
X030565Y011619D02*
X030455Y011619D01*
X029565Y011619D02*
X029455Y011619D01*
X028565Y011619D02*
X028455Y011619D01*
X028025Y012176D02*
X027994Y012176D01*
X027025Y012176D02*
X026994Y012176D01*
X027010Y011619D02*
X027010Y011619D01*
X027010Y011341D02*
X027010Y011341D01*
X027010Y011062D02*
X027010Y011062D01*
X027010Y010784D02*
X027010Y010784D01*
X027010Y010505D02*
X027010Y010505D01*
X027010Y010226D02*
X027010Y010226D01*
X027533Y010505D02*
X027784Y010505D01*
X027850Y010226D02*
X027646Y010226D01*
X027646Y009948D02*
X027731Y009948D01*
X027563Y009669D02*
X027451Y009669D01*
X027010Y009669D02*
X027010Y009669D01*
X027010Y009948D02*
X027010Y009948D01*
X026569Y009669D02*
X026488Y009669D01*
X025532Y009669D02*
X024206Y009669D01*
X024039Y009948D02*
X025368Y009948D01*
X025348Y010226D02*
X023919Y010226D01*
X024236Y010505D02*
X024534Y010505D01*
X025010Y010505D02*
X025010Y010505D01*
X025010Y010784D02*
X025010Y010784D01*
X025010Y011062D02*
X025010Y011062D01*
X025010Y011341D02*
X025010Y011341D01*
X025010Y011619D02*
X025010Y011619D01*
X024994Y012176D02*
X025025Y012176D01*
X025994Y012176D02*
X026025Y012176D01*
X026359Y013290D02*
X037640Y013290D01*
X037558Y013569D02*
X026422Y013569D01*
X026422Y013848D02*
X037591Y013848D01*
X037765Y014126D02*
X026198Y014126D01*
X025321Y014126D02*
X018448Y014126D01*
X018672Y013848D02*
X025098Y013848D01*
X025098Y013569D02*
X018672Y013569D01*
X018609Y013290D02*
X025161Y013290D01*
X024025Y012176D02*
X023994Y012176D01*
X023025Y012176D02*
X022994Y012176D01*
X022025Y012176D02*
X021995Y012176D01*
X021025Y012176D02*
X020994Y012176D01*
X020025Y012176D02*
X019994Y012176D01*
X020455Y011619D02*
X020565Y011619D01*
X021455Y011619D02*
X021565Y011619D01*
X022455Y011619D02*
X022565Y011619D01*
X023455Y011619D02*
X023565Y011619D01*
X022600Y010505D02*
X022236Y010505D01*
X021922Y010226D02*
X022600Y010226D01*
X022600Y009948D02*
X021922Y009948D01*
X021738Y009669D02*
X022605Y009669D01*
X023031Y009391D02*
X020835Y009391D01*
X020835Y009112D02*
X023198Y009112D01*
X023280Y008834D02*
X020835Y008834D01*
X020749Y008555D02*
X023521Y008555D01*
X024010Y009128D02*
X024260Y008878D01*
X024010Y009128D02*
X023760Y009128D01*
X021605Y007720D02*
X029165Y007720D01*
X028886Y007441D02*
X021883Y007441D01*
X021922Y007162D02*
X028848Y007162D01*
X028848Y006884D02*
X021922Y006884D01*
X022469Y006605D02*
X022551Y006605D01*
X023469Y006605D02*
X023551Y006605D01*
X024469Y006605D02*
X024551Y006605D01*
X025469Y006605D02*
X025551Y006605D01*
X026469Y006605D02*
X026551Y006605D01*
X027469Y006605D02*
X027551Y006605D01*
X028469Y006605D02*
X028551Y006605D01*
X030172Y006884D02*
X035298Y006884D01*
X035304Y006878D02*
X035187Y006761D01*
X035084Y006513D01*
X035084Y006378D01*
X035084Y006244D01*
X035187Y005995D01*
X035304Y005878D01*
X035187Y005761D01*
X035084Y005513D01*
X035084Y005378D01*
X035084Y005244D01*
X035187Y004995D01*
X035304Y004878D01*
X035187Y004761D01*
X035084Y004513D01*
X035084Y004378D01*
X035084Y004244D01*
X035187Y003995D01*
X035377Y003805D01*
X035625Y003702D01*
X035760Y003702D01*
X035760Y004378D01*
X035760Y004702D01*
X035760Y005378D01*
X035760Y005702D01*
X035760Y006378D01*
X035760Y007054D01*
X035760Y007378D01*
X035760Y007378D01*
X035760Y007378D01*
X035760Y008054D01*
X035625Y008054D01*
X035377Y007951D01*
X035187Y007761D01*
X035084Y007513D01*
X035084Y007378D01*
X035084Y007244D01*
X035187Y006995D01*
X035304Y006878D01*
X035117Y007162D02*
X030172Y007162D01*
X030133Y007441D02*
X035084Y007441D01*
X035084Y007378D02*
X035759Y007378D01*
X035084Y007378D01*
X035169Y007720D02*
X029855Y007720D01*
X028249Y008555D02*
X037558Y008555D01*
X037585Y008834D02*
X028404Y008834D01*
X028572Y009112D02*
X037751Y009112D01*
X037598Y009391D02*
X028739Y009391D01*
X029988Y009669D02*
X037558Y009669D01*
X037632Y009948D02*
X030172Y009948D01*
X030172Y010226D02*
X037668Y010226D01*
X037645Y008277D02*
X020417Y008277D01*
X020046Y007998D02*
X035490Y007998D01*
X035760Y007998D02*
X035760Y007998D01*
X036030Y007998D02*
X037653Y007998D01*
X037558Y007720D02*
X036350Y007720D01*
X036436Y007441D02*
X037577Y007441D01*
X037468Y007162D02*
X037732Y007162D01*
X036551Y007162D02*
X036402Y007162D01*
X036356Y006884D02*
X036222Y006884D01*
X035760Y006884D02*
X035760Y006884D01*
X035760Y007162D02*
X035760Y007162D01*
X035759Y007378D02*
X035759Y007378D01*
X035760Y007441D02*
X035760Y007441D01*
X035760Y007720D02*
X035760Y007720D01*
X035760Y006605D02*
X035760Y006605D01*
X035759Y006378D02*
X035759Y006378D01*
X035084Y006378D01*
X035759Y006378D01*
X035760Y006327D02*
X035760Y006327D01*
X035760Y006048D02*
X035760Y006048D01*
X035760Y005770D02*
X035760Y005770D01*
X035760Y005491D02*
X035760Y005491D01*
X035759Y005378D02*
X035759Y005378D01*
X035084Y005378D01*
X035759Y005378D01*
X035760Y005213D02*
X035760Y005213D01*
X035760Y004934D02*
X035760Y004934D01*
X035760Y004656D02*
X035760Y004656D01*
X035759Y004378D02*
X035084Y004378D01*
X035759Y004378D01*
X035759Y004378D01*
X035760Y004377D02*
X035760Y004377D01*
X035760Y004099D02*
X035760Y004099D01*
X035760Y003820D02*
X035760Y003820D01*
X035776Y003541D02*
X035243Y003541D01*
X035362Y003820D02*
X031731Y003820D01*
X031731Y004099D02*
X032103Y004099D01*
X032135Y004067D02*
X032378Y003966D01*
X032642Y003966D01*
X032885Y004067D01*
X033028Y004210D01*
X033246Y003992D01*
X033510Y003992D01*
X033773Y003992D01*
X034146Y004364D01*
X034146Y004628D01*
X034146Y004892D01*
X033773Y005264D01*
X033510Y005264D01*
X033510Y004628D01*
X034146Y004628D01*
X033510Y004628D01*
X033510Y004628D01*
X033510Y003992D01*
X033510Y004628D01*
X033510Y004628D01*
X033510Y004628D01*
X033510Y005264D01*
X033246Y005264D01*
X033028Y005046D01*
X032885Y005189D01*
X032642Y005290D01*
X032378Y005290D01*
X032135Y005189D01*
X031948Y005003D01*
X031848Y004760D01*
X031848Y004496D01*
X031948Y004253D01*
X032135Y004067D01*
X031897Y004377D02*
X031524Y004377D01*
X031428Y004656D02*
X031848Y004656D01*
X031920Y004934D02*
X031462Y004934D01*
X031381Y005213D02*
X032191Y005213D01*
X032203Y005491D02*
X032817Y005491D01*
X032829Y005213D02*
X033195Y005213D01*
X033203Y005491D02*
X035084Y005491D01*
X035096Y005213D02*
X033825Y005213D01*
X033510Y005213D02*
X033510Y005213D01*
X033510Y004934D02*
X033510Y004934D01*
X033510Y004656D02*
X033510Y004656D01*
X033510Y004377D02*
X033510Y004377D01*
X033510Y004099D02*
X033510Y004099D01*
X033880Y004099D02*
X035144Y004099D01*
X035084Y004377D02*
X034146Y004377D01*
X034146Y004656D02*
X035143Y004656D01*
X035247Y004934D02*
X034103Y004934D01*
X033578Y005770D02*
X035195Y005770D01*
X035164Y006048D02*
X033672Y006048D01*
X033644Y006327D02*
X035084Y006327D01*
X035122Y006605D02*
X033469Y006605D01*
X032551Y006605D02*
X032469Y006605D01*
X031551Y006605D02*
X031469Y006605D01*
X030551Y006605D02*
X030469Y006605D01*
X031203Y005491D02*
X031817Y005491D01*
X030473Y004237D02*
X030407Y004170D01*
X030407Y003621D01*
X030448Y003580D01*
X030370Y003580D01*
X030112Y003473D01*
X030010Y003371D01*
X029908Y003473D01*
X029650Y003580D01*
X029370Y003580D01*
X029112Y003473D01*
X028915Y003276D01*
X028808Y003018D01*
X028808Y002738D01*
X028915Y002480D01*
X029112Y002283D01*
X029370Y002176D01*
X029650Y002176D01*
X029908Y002283D01*
X030010Y002385D01*
X030081Y002314D01*
X029862Y002223D01*
X029665Y002026D01*
X029558Y001768D01*
X029558Y001488D01*
X029665Y001230D01*
X029727Y001168D01*
X028793Y001168D01*
X028855Y001230D01*
X028962Y001488D01*
X028962Y001768D01*
X028855Y002026D01*
X028658Y002223D01*
X028400Y002330D01*
X028120Y002330D01*
X027862Y002223D01*
X027760Y002121D01*
X027658Y002223D01*
X027400Y002330D01*
X027120Y002330D01*
X026862Y002223D01*
X026760Y002121D01*
X026658Y002223D01*
X026400Y002330D01*
X026120Y002330D01*
X025862Y002223D01*
X025760Y002121D01*
X025658Y002223D01*
X025400Y002330D01*
X025120Y002330D01*
X024862Y002223D01*
X024760Y002121D01*
X024658Y002223D01*
X024400Y002330D01*
X024120Y002330D01*
X023862Y002223D01*
X023760Y002121D01*
X023658Y002223D01*
X023400Y002330D01*
X023120Y002330D01*
X022862Y002223D01*
X022760Y002121D01*
X022658Y002223D01*
X022400Y002330D01*
X022120Y002330D01*
X021862Y002223D01*
X021760Y002121D01*
X021658Y002223D01*
X021400Y002330D01*
X021120Y002330D01*
X020862Y002223D01*
X020665Y002026D01*
X020558Y001768D01*
X020558Y001488D01*
X020665Y001230D01*
X020727Y001168D01*
X019793Y001168D01*
X019855Y001230D01*
X019962Y001488D01*
X019962Y001768D01*
X019855Y002026D01*
X019658Y002223D01*
X019400Y002330D01*
X019120Y002330D01*
X018862Y002223D01*
X018741Y002103D01*
X018643Y002201D01*
X018394Y002304D01*
X018260Y002304D01*
X018260Y001628D01*
X018260Y001628D01*
X018260Y002304D01*
X018125Y002304D01*
X017877Y002201D01*
X017760Y002084D01*
X017643Y002201D01*
X017394Y002304D01*
X017260Y002304D01*
X017260Y001628D01*
X017584Y001628D01*
X018259Y001628D01*
X018259Y001628D01*
X017584Y001628D01*
X017260Y001628D01*
X017260Y001628D01*
X017260Y001628D01*
X017260Y002304D01*
X017125Y002304D01*
X016877Y002201D01*
X016778Y002103D01*
X016658Y002223D01*
X016400Y002330D01*
X016120Y002330D01*
X015862Y002223D01*
X015760Y002121D01*
X015658Y002223D01*
X015400Y002330D01*
X015120Y002330D01*
X014919Y002247D01*
X014919Y002660D01*
X014983Y002787D01*
X016998Y004802D01*
X017850Y004802D01*
X017834Y004763D01*
X017834Y004628D01*
X017834Y004494D01*
X017937Y004245D01*
X018127Y004055D01*
X018375Y003952D01*
X018510Y003952D01*
X018644Y003952D01*
X018893Y004055D01*
X018991Y004153D01*
X019112Y004033D01*
X019370Y003926D01*
X019650Y003926D01*
X019908Y004033D01*
X020028Y004153D01*
X020127Y004055D01*
X020375Y003952D01*
X020510Y003952D01*
X020644Y003952D01*
X020893Y004055D01*
X020991Y004153D01*
X021112Y004033D01*
X021370Y003926D01*
X021650Y003926D01*
X021908Y004033D01*
X022105Y004230D01*
X022212Y004488D01*
X022212Y004768D01*
X022198Y004802D01*
X022730Y004802D01*
X022700Y004729D01*
X022700Y004465D01*
X022801Y004222D01*
X022944Y004079D01*
X022726Y003861D01*
X022726Y003597D01*
X022726Y003334D01*
X023099Y002961D01*
X023362Y002961D01*
X023362Y003597D01*
X023362Y003597D01*
X023362Y002961D01*
X023626Y002961D01*
X023753Y003088D01*
X024108Y002734D01*
X024656Y002734D01*
X025044Y003121D01*
X025044Y003545D01*
X025060Y003543D01*
X025092Y003552D01*
X026172Y003552D01*
X026215Y003509D01*
X026313Y003468D01*
X026720Y003468D01*
X026720Y003121D01*
X027108Y002734D01*
X027656Y002734D01*
X028044Y003121D01*
X028044Y003234D01*
X028343Y003234D01*
X028731Y003621D01*
X028731Y004170D01*
X028725Y004176D01*
X028900Y004176D01*
X029158Y004283D01*
X029260Y004385D01*
X029362Y004283D01*
X029620Y004176D01*
X029900Y004176D01*
X030158Y004283D01*
X030260Y004385D01*
X030362Y004283D01*
X030473Y004237D01*
X030407Y004099D02*
X028731Y004099D01*
X028731Y003820D02*
X030407Y003820D01*
X030276Y003541D02*
X029743Y003541D01*
X029276Y003541D02*
X028651Y003541D01*
X028909Y003263D02*
X028372Y003263D01*
X028808Y002984D02*
X027907Y002984D01*
X028821Y002706D02*
X018495Y002706D01*
X018463Y002628D02*
X018573Y002893D01*
X018573Y003181D01*
X018463Y003446D01*
X018260Y003649D01*
X017994Y003759D01*
X017707Y003759D01*
X017442Y003649D01*
X017239Y003446D01*
X017129Y003181D01*
X017129Y002893D01*
X017239Y002628D01*
X017442Y002425D01*
X017707Y002315D01*
X017994Y002315D01*
X018260Y002425D01*
X018463Y002628D01*
X018262Y002427D02*
X028968Y002427D01*
X028732Y002149D02*
X029787Y002149D01*
X029600Y001870D02*
X028920Y001870D01*
X028962Y001592D02*
X029558Y001592D01*
X029630Y001313D02*
X028889Y001313D01*
X027787Y002149D02*
X027732Y002149D01*
X026787Y002149D02*
X026732Y002149D01*
X025787Y002149D02*
X025732Y002149D01*
X024787Y002149D02*
X024732Y002149D01*
X023787Y002149D02*
X023732Y002149D01*
X022787Y002149D02*
X022732Y002149D01*
X021787Y002149D02*
X021732Y002149D01*
X020787Y002149D02*
X019732Y002149D01*
X019920Y001870D02*
X020600Y001870D01*
X020558Y001592D02*
X019962Y001592D01*
X019889Y001313D02*
X020630Y001313D01*
X018787Y002149D02*
X018695Y002149D01*
X018260Y002149D02*
X018260Y002149D01*
X018260Y001870D02*
X018260Y001870D01*
X017824Y002149D02*
X017695Y002149D01*
X017439Y002427D02*
X014919Y002427D01*
X014942Y002706D02*
X017206Y002706D01*
X017129Y002984D02*
X015180Y002984D01*
X015459Y003263D02*
X017163Y003263D01*
X017334Y003541D02*
X015737Y003541D01*
X016016Y003820D02*
X022726Y003820D01*
X022726Y003597D02*
X023362Y003597D01*
X022726Y003597D01*
X022726Y003541D02*
X018368Y003541D01*
X018510Y003952D02*
X018510Y004628D01*
X018510Y003952D01*
X018510Y004099D02*
X018510Y004099D01*
X018510Y004377D02*
X018510Y004377D01*
X018510Y004628D02*
X018510Y004628D01*
X018509Y004628D02*
X017834Y004628D01*
X018509Y004628D01*
X018509Y004628D01*
X017882Y004377D02*
X016573Y004377D01*
X016294Y004099D02*
X018083Y004099D01*
X018937Y004099D02*
X019046Y004099D01*
X019973Y004099D02*
X020083Y004099D01*
X020510Y004099D02*
X020510Y004099D01*
X020510Y003952D02*
X020510Y004628D01*
X020510Y004628D01*
X020510Y003952D01*
X020937Y004099D02*
X021046Y004099D01*
X020510Y004377D02*
X020510Y004377D01*
X021973Y004099D02*
X022924Y004099D01*
X022736Y004377D02*
X022166Y004377D01*
X022212Y004656D02*
X022700Y004656D01*
X023362Y003597D02*
X023362Y003597D01*
X023362Y003541D02*
X023362Y003541D01*
X023362Y003263D02*
X023362Y003263D01*
X023362Y002984D02*
X023362Y002984D01*
X023075Y002984D02*
X018573Y002984D01*
X018539Y003263D02*
X022797Y003263D01*
X023649Y002984D02*
X023857Y002984D01*
X024907Y002984D02*
X026857Y002984D01*
X026720Y003263D02*
X025044Y003263D01*
X025044Y003541D02*
X026183Y003541D01*
X029252Y004377D02*
X029268Y004377D01*
X030252Y004377D02*
X030268Y004377D01*
X031743Y003541D02*
X032276Y003541D01*
X032743Y003541D02*
X033776Y003541D01*
X034243Y003541D02*
X034776Y003541D01*
X033409Y003263D02*
X033110Y003263D01*
X033212Y002984D02*
X033308Y002984D01*
X033321Y002706D02*
X033199Y002706D01*
X033052Y002427D02*
X033468Y002427D01*
X033732Y002149D02*
X033787Y002149D01*
X032787Y002149D02*
X032732Y002149D01*
X032917Y004099D02*
X033140Y004099D01*
X036158Y003820D02*
X037607Y003820D01*
X037584Y003541D02*
X037243Y003541D01*
X036776Y003541D02*
X036243Y003541D01*
X036376Y004099D02*
X036546Y004099D01*
X037473Y004099D02*
X037774Y004099D01*
X038260Y003541D02*
X038260Y003541D01*
X038260Y003263D02*
X038260Y003263D01*
X038260Y002984D02*
X038260Y002984D01*
X038473Y002984D02*
X039047Y002984D01*
X039260Y002984D02*
X039260Y002984D01*
X039473Y002984D02*
X040840Y002984D01*
X040840Y002706D02*
X039733Y002706D01*
X040115Y002427D02*
X040840Y002427D01*
X040840Y002149D02*
X040310Y002149D01*
X040406Y001870D02*
X040840Y001870D01*
X040840Y001592D02*
X040430Y001592D01*
X040387Y001313D02*
X040840Y001313D01*
X038405Y002427D02*
X037552Y002427D01*
X037732Y002149D02*
X038210Y002149D01*
X038114Y001870D02*
X037920Y001870D01*
X037962Y001592D02*
X038090Y001592D01*
X038133Y001313D02*
X037889Y001313D01*
X037699Y002706D02*
X038787Y002706D01*
X039260Y003263D02*
X039260Y003263D01*
X039840Y003263D02*
X040160Y003263D01*
X039260Y003541D02*
X039260Y003541D01*
X038047Y002984D02*
X037712Y002984D01*
X037679Y003263D02*
X037610Y003263D01*
X032534Y010505D02*
X032236Y010505D01*
X031784Y010505D02*
X031236Y010505D01*
X030784Y010505D02*
X030236Y010505D01*
X029995Y012176D02*
X037719Y012176D01*
X037571Y012455D02*
X030155Y012455D01*
X030172Y012733D02*
X037558Y012733D01*
X037659Y013012D02*
X030062Y013012D01*
X029025Y012176D02*
X028994Y012176D01*
X024415Y014962D02*
X037638Y014962D01*
X037660Y015240D02*
X024598Y015240D01*
X024765Y015519D02*
X037558Y015519D01*
X037570Y015797D02*
X036172Y015797D01*
X036395Y016076D02*
X037715Y016076D01*
X037613Y016354D02*
X036462Y016354D01*
X036414Y016633D02*
X037558Y016633D01*
X037617Y016911D02*
X036250Y016911D01*
X036414Y017190D02*
X037705Y017190D01*
X037566Y017469D02*
X036436Y017469D01*
X036436Y017378D02*
X035760Y017378D01*
X035760Y017378D01*
X036436Y017378D01*
X035759Y017378D02*
X035084Y017378D01*
X035759Y017378D01*
X035759Y017378D01*
X035084Y017378D02*
X034760Y017378D01*
X034760Y017378D01*
X035084Y017378D01*
X034759Y017378D02*
X034084Y017378D01*
X034759Y017378D01*
X034759Y017378D01*
X034084Y017378D02*
X033760Y017378D01*
X033760Y017378D01*
X034084Y017378D01*
X033759Y017378D02*
X033436Y017378D01*
X033759Y017378D01*
X033759Y017378D01*
X033436Y017378D02*
X032760Y017378D01*
X032760Y017378D01*
X033436Y017378D01*
X032759Y017378D02*
X032084Y017378D01*
X031760Y017378D01*
X031760Y017378D01*
X032084Y017378D01*
X032759Y017378D01*
X032759Y017378D01*
X031759Y017378D02*
X031084Y017378D01*
X030760Y017378D01*
X031084Y017378D01*
X031759Y017378D01*
X031759Y017378D01*
X030760Y017378D02*
X030760Y017378D01*
X030270Y016911D02*
X026413Y016911D01*
X026422Y016633D02*
X030105Y016633D01*
X030058Y016354D02*
X026422Y016354D01*
X026144Y016076D02*
X030125Y016076D01*
X030347Y015797D02*
X024933Y015797D01*
X025371Y016076D02*
X025376Y016076D01*
X023510Y016076D02*
X023510Y016076D01*
X023510Y016354D02*
X023510Y016354D01*
X023162Y016076D02*
X022894Y016076D01*
X022126Y016076D02*
X020439Y016076D01*
X020216Y016354D02*
X021906Y016354D01*
X021848Y016633D02*
X019993Y016633D01*
X019919Y016911D02*
X021911Y016911D01*
X021510Y017190D02*
X021510Y017190D01*
X021510Y017469D02*
X021510Y017469D01*
X021510Y017747D02*
X021510Y017747D01*
X021510Y018026D02*
X021510Y018026D01*
X021736Y018861D02*
X021783Y018861D01*
X022736Y018861D02*
X022783Y018861D01*
X023736Y018861D02*
X030250Y018861D01*
X030085Y018583D02*
X016844Y018583D01*
X016737Y018304D02*
X030058Y018304D01*
X029510Y018026D02*
X029510Y018026D01*
X029510Y017747D02*
X029510Y017747D01*
X029510Y017469D02*
X029510Y017469D01*
X029510Y017190D02*
X029510Y017190D01*
X028011Y017190D02*
X028008Y017190D01*
X027011Y017190D02*
X027008Y017190D01*
X023510Y017190D02*
X023510Y017190D01*
X023510Y016911D02*
X023510Y016911D01*
X023510Y016633D02*
X023510Y016633D01*
X023510Y017469D02*
X023510Y017469D01*
X023510Y017747D02*
X023510Y017747D01*
X023510Y018026D02*
X023510Y018026D01*
X023921Y019140D02*
X037755Y019140D01*
X037596Y018861D02*
X036270Y018861D01*
X036435Y018583D02*
X037558Y018583D01*
X037634Y018304D02*
X036462Y018304D01*
X036374Y018026D02*
X037664Y018026D01*
X037558Y017747D02*
X036339Y017747D01*
X037587Y019418D02*
X023962Y019418D01*
X023888Y019697D02*
X036036Y019697D01*
X035786Y019975D02*
X035519Y019975D01*
X035000Y019975D02*
X034519Y019975D01*
X034000Y019975D02*
X033519Y019975D01*
X033000Y019975D02*
X032519Y019975D01*
X032000Y019975D02*
X031519Y019975D01*
X031000Y019975D02*
X030519Y019975D01*
X030000Y019975D02*
X029519Y019975D01*
X029000Y019975D02*
X028519Y019975D01*
X028000Y019975D02*
X026519Y019975D01*
X026865Y020254D02*
X027655Y020254D01*
X027558Y020533D02*
X026962Y020533D01*
X026944Y020811D02*
X027576Y020811D01*
X026000Y019975D02*
X025519Y019975D01*
X025000Y019975D02*
X024519Y019975D01*
X024000Y019975D02*
X023652Y019975D01*
X020783Y018861D02*
X020736Y018861D01*
X019783Y018861D02*
X016911Y018861D01*
X017152Y019140D02*
X019598Y019140D01*
X019558Y019418D02*
X017169Y019418D01*
X017169Y019697D02*
X019632Y019697D01*
X019519Y019975D02*
X019867Y019975D01*
X019000Y019975D02*
X017919Y019975D01*
X018265Y020254D02*
X018655Y020254D01*
X018558Y020533D02*
X018362Y020533D01*
X018344Y020811D02*
X018576Y020811D01*
X017400Y019975D02*
X017169Y019975D01*
X013329Y019975D02*
X012919Y019975D01*
X012626Y019697D02*
X009497Y019697D01*
X009657Y019975D02*
X010400Y019975D01*
X010055Y020254D02*
X009583Y020254D01*
X009436Y020533D02*
X009958Y020533D01*
X009245Y020533D02*
X009245Y020533D01*
X009085Y020254D02*
X009084Y020254D01*
X009128Y019975D02*
X009129Y019975D01*
X008924Y019975D02*
X008923Y019975D01*
X008763Y019697D02*
X008763Y019697D01*
X008415Y019697D02*
X007983Y019697D01*
X008234Y019975D02*
X008340Y019975D01*
X008646Y020254D02*
X008646Y020254D01*
X008511Y020533D02*
X008430Y020533D01*
X008422Y020811D02*
X009976Y020811D01*
X010919Y019975D02*
X011468Y019975D01*
X011660Y019975D02*
X011660Y019975D01*
X011851Y019975D02*
X012400Y019975D01*
X011660Y020254D02*
X011660Y020254D01*
X011660Y020533D02*
X011660Y020533D01*
X012256Y019418D02*
X009023Y019418D01*
X008821Y019418D02*
X001800Y019418D01*
X001800Y019140D02*
X011163Y019140D01*
X010980Y018861D02*
X001800Y018861D01*
X001800Y018583D02*
X006638Y018583D01*
X006557Y018502D02*
X006456Y018259D01*
X006456Y017997D01*
X006557Y017754D01*
X006742Y017569D01*
X006985Y017468D01*
X008035Y017468D01*
X008277Y017569D01*
X008463Y017754D01*
X008563Y017997D01*
X008563Y018259D01*
X008463Y018502D01*
X008277Y018687D01*
X008035Y018788D01*
X006985Y018788D01*
X006742Y018687D01*
X006557Y018502D01*
X006475Y018304D02*
X001800Y018304D01*
X001800Y018026D02*
X006456Y018026D01*
X006564Y017747D02*
X001800Y017747D01*
X001800Y017469D02*
X006984Y017469D01*
X006985Y016788D02*
X006742Y016687D01*
X006557Y016502D01*
X006456Y016259D01*
X006456Y015997D01*
X006557Y015754D01*
X006742Y015569D01*
X006985Y015468D01*
X008035Y015468D01*
X008277Y015569D01*
X008463Y015754D01*
X008563Y015997D01*
X008563Y016259D01*
X008463Y016502D01*
X008277Y016687D01*
X008035Y016788D01*
X006985Y016788D01*
X006688Y016633D02*
X001800Y016633D01*
X001800Y016911D02*
X009334Y016911D01*
X009334Y016878D02*
X010009Y016878D01*
X009334Y016878D01*
X009334Y016307D01*
X009437Y016059D01*
X009627Y015869D01*
X009875Y015766D01*
X010010Y015766D01*
X010010Y016878D01*
X010010Y017990D01*
X009875Y017990D01*
X009627Y017887D01*
X009437Y017697D01*
X009334Y017449D01*
X009334Y016878D01*
X009334Y016633D02*
X008331Y016633D01*
X008524Y016354D02*
X009334Y016354D01*
X009429Y016076D02*
X008563Y016076D01*
X008481Y015797D02*
X009799Y015797D01*
X010010Y015797D02*
X010010Y015797D01*
X010221Y015797D02*
X010731Y015797D01*
X010010Y016076D02*
X010010Y016076D01*
X010010Y016354D02*
X010010Y016354D01*
X010010Y016633D02*
X010010Y016633D01*
X010009Y016878D02*
X010009Y016878D01*
X010010Y016911D02*
X010010Y016911D01*
X010010Y017190D02*
X010010Y017190D01*
X010010Y017469D02*
X010010Y017469D01*
X010010Y017747D02*
X010010Y017747D01*
X009486Y017747D02*
X008456Y017747D01*
X008563Y018026D02*
X011181Y018026D01*
X010957Y018304D02*
X008545Y018304D01*
X008382Y018583D02*
X010882Y018583D01*
X011900Y019140D02*
X012145Y019140D01*
X009342Y017469D02*
X008035Y017469D01*
X009334Y017190D02*
X001800Y017190D01*
X001800Y016354D02*
X006496Y016354D01*
X006456Y016076D02*
X001800Y016076D01*
X001800Y015797D02*
X006539Y015797D01*
X006863Y015519D02*
X001800Y015519D01*
X001800Y015240D02*
X011600Y015240D01*
X011600Y014962D02*
X001800Y014962D01*
X001800Y014683D02*
X006738Y014683D01*
X006742Y014687D02*
X006557Y014502D01*
X006456Y014259D01*
X006456Y013997D01*
X006557Y013754D01*
X006742Y013569D01*
X001800Y013569D01*
X001800Y013848D02*
X006518Y013848D01*
X006456Y014126D02*
X001800Y014126D01*
X001800Y014405D02*
X006517Y014405D01*
X006742Y014687D02*
X006985Y014788D01*
X008035Y014788D01*
X008277Y014687D01*
X008463Y014502D01*
X008563Y014259D01*
X008563Y013997D01*
X008463Y013754D01*
X008277Y013569D01*
X008035Y013468D01*
X006985Y013468D01*
X006742Y013569D01*
X008277Y013569D02*
X009383Y013569D01*
X009334Y013449D02*
X009437Y013697D01*
X009627Y013887D01*
X009875Y013990D01*
X010010Y013990D01*
X010010Y012878D01*
X010010Y011766D01*
X009875Y011766D01*
X009627Y011869D01*
X009437Y012059D01*
X009334Y012307D01*
X009334Y012878D01*
X010009Y012878D01*
X010009Y012878D01*
X009334Y012878D01*
X009334Y013449D01*
X009334Y013290D02*
X001800Y013290D01*
X001800Y013012D02*
X009334Y013012D01*
X009334Y012733D02*
X008166Y012733D01*
X008277Y012687D02*
X008035Y012788D01*
X006985Y012788D01*
X006742Y012687D01*
X006557Y012502D01*
X006456Y012259D01*
X006456Y011997D01*
X006557Y011754D01*
X006742Y011569D01*
X006985Y011468D01*
X008035Y011468D01*
X008277Y011569D01*
X008463Y011754D01*
X008563Y011997D01*
X008563Y012259D01*
X008463Y012502D01*
X008277Y012687D01*
X008482Y012455D02*
X009334Y012455D01*
X009388Y012176D02*
X008563Y012176D01*
X008522Y011898D02*
X009598Y011898D01*
X010010Y011898D02*
X010010Y011898D01*
X010422Y011898D02*
X010561Y011898D01*
X010010Y012176D02*
X010010Y012176D01*
X010010Y012455D02*
X010010Y012455D01*
X010010Y012733D02*
X010010Y012733D01*
X010010Y013012D02*
X010010Y013012D01*
X010010Y013290D02*
X010010Y013290D01*
X010010Y013569D02*
X010010Y013569D01*
X010010Y013848D02*
X010010Y013848D01*
X010433Y013848D02*
X010550Y013848D01*
X011470Y013848D02*
X011550Y013848D01*
X011598Y014126D02*
X008563Y014126D01*
X008501Y013848D02*
X009587Y013848D01*
X008503Y014405D02*
X011600Y014405D01*
X011600Y014683D02*
X008281Y014683D01*
X008156Y015519D02*
X011768Y015519D01*
X011731Y015797D02*
X011289Y015797D01*
X012289Y015797D02*
X012446Y015797D01*
X013005Y014683D02*
X013184Y014683D01*
X013184Y014405D02*
X012920Y014405D01*
X012922Y014126D02*
X013184Y014126D01*
X013184Y013848D02*
X012916Y013848D01*
X012664Y013569D02*
X013184Y013569D01*
X013184Y013290D02*
X012712Y013290D01*
X012712Y013012D02*
X013184Y013012D01*
X013184Y012733D02*
X012712Y012733D01*
X012712Y012455D02*
X013184Y012455D01*
X013184Y012176D02*
X012660Y012176D01*
X012459Y011898D02*
X013148Y011898D01*
X013036Y011619D02*
X008328Y011619D01*
X006692Y011619D02*
X001800Y011619D01*
X001800Y011341D02*
X012925Y011341D01*
X014053Y011062D02*
X014426Y011062D01*
X014374Y011341D02*
X014165Y011341D01*
X014276Y011619D02*
X014374Y011619D01*
X014335Y011898D02*
X014630Y011898D01*
X015010Y011898D02*
X015010Y011898D01*
X015010Y011619D02*
X015010Y011619D01*
X015010Y011341D02*
X015010Y011341D01*
X015646Y011619D02*
X017565Y011619D01*
X015025Y012176D02*
X014994Y012176D01*
X014335Y013290D02*
X017411Y013290D01*
X017348Y013569D02*
X015601Y013569D01*
X015523Y013492D02*
X015260Y013492D01*
X015260Y014128D01*
X015896Y014128D01*
X015896Y014392D01*
X015523Y014764D01*
X015260Y014764D01*
X015260Y014128D01*
X015260Y014128D01*
X015896Y014128D01*
X015896Y013864D01*
X015523Y013492D01*
X015260Y013492D02*
X015260Y014128D01*
X015260Y014128D01*
X015260Y014128D01*
X015260Y014764D01*
X014996Y014764D01*
X014624Y014392D01*
X014624Y014128D01*
X014624Y013864D01*
X014996Y013492D01*
X015260Y013492D01*
X015260Y013569D02*
X015260Y013569D01*
X015260Y013848D02*
X015260Y013848D01*
X015260Y014126D02*
X015260Y014126D01*
X015259Y014128D02*
X014624Y014128D01*
X015259Y014128D01*
X015259Y014128D01*
X014624Y014126D02*
X014335Y014126D01*
X014335Y013848D02*
X014641Y013848D01*
X014919Y013569D02*
X014335Y013569D01*
X014335Y014405D02*
X014637Y014405D01*
X014915Y014683D02*
X014335Y014683D01*
X014335Y014962D02*
X019856Y014962D01*
X019633Y015240D02*
X014335Y015240D01*
X014335Y015519D02*
X019410Y015519D01*
X019187Y015797D02*
X014335Y015797D01*
X014894Y016076D02*
X015162Y016076D01*
X015510Y016076D02*
X015510Y016076D01*
X015510Y016354D02*
X015510Y016354D01*
X015857Y016076D02*
X017626Y016076D01*
X017348Y016354D02*
X016136Y016354D01*
X016146Y016633D02*
X017348Y016633D01*
X017357Y016911D02*
X016126Y016911D01*
X015510Y016911D02*
X015510Y016911D01*
X015510Y016633D02*
X015510Y016633D01*
X015510Y017190D02*
X015510Y017190D01*
X015510Y017469D02*
X015510Y017469D01*
X017008Y017190D02*
X017011Y017190D01*
X018394Y016076D02*
X018648Y016076D01*
X020008Y017190D02*
X020011Y017190D01*
X015604Y014683D02*
X037558Y014683D01*
X037592Y014405D02*
X015883Y014405D01*
X015896Y014126D02*
X017571Y014126D01*
X017348Y013848D02*
X015879Y013848D01*
X015260Y014405D02*
X015260Y014405D01*
X015260Y014683D02*
X015260Y014683D01*
X011561Y011898D02*
X011459Y011898D01*
X011331Y009948D02*
X012166Y009948D01*
X012100Y009669D02*
X011532Y009669D01*
X011578Y009391D02*
X012100Y009391D01*
X013260Y006605D02*
X013260Y006605D01*
X013260Y006327D02*
X013260Y006327D01*
X013260Y006048D02*
X013260Y006048D01*
X012456Y006048D02*
X011147Y006048D01*
X011490Y005770D02*
X014300Y005770D01*
X014316Y006048D02*
X014064Y006048D01*
X014303Y006327D02*
X014462Y006327D01*
X014372Y006605D02*
X016270Y006605D01*
X015895Y006327D02*
X015582Y006327D01*
X014396Y005491D02*
X011578Y005491D01*
X011543Y005213D02*
X014711Y005213D01*
X014502Y004934D02*
X011359Y004934D01*
X014223Y004656D02*
X005093Y004656D01*
X004912Y002706D02*
X006787Y002706D01*
X006405Y002427D02*
X005283Y002427D01*
X005397Y002149D02*
X006210Y002149D01*
X006114Y001870D02*
X005397Y001870D01*
X005289Y001592D02*
X006090Y001592D01*
X006133Y001313D02*
X004943Y001313D01*
X007733Y002706D02*
X009100Y002706D01*
X009129Y002427D02*
X008115Y002427D01*
X008310Y002149D02*
X009306Y002149D01*
X010213Y002149D02*
X011093Y002149D01*
X013600Y001870D02*
X008406Y001870D01*
X008430Y001592D02*
X013558Y001592D01*
X013630Y001313D02*
X008387Y001313D01*
X015732Y002149D02*
X015787Y002149D01*
X016732Y002149D02*
X016824Y002149D01*
X017260Y002149D02*
X017260Y002149D01*
X017260Y001870D02*
X017260Y001870D01*
X016851Y004656D02*
X017834Y004656D01*
X018469Y006605D02*
X018551Y006605D01*
X018560Y006884D02*
X020598Y006884D01*
X020598Y007162D02*
X018932Y007162D01*
X019303Y007441D02*
X020636Y007441D01*
X020915Y007720D02*
X019674Y007720D01*
X019551Y006605D02*
X019469Y006605D01*
X020469Y006605D02*
X020551Y006605D01*
X006854Y012733D02*
X001800Y012733D01*
X001800Y012455D02*
X006537Y012455D01*
X006456Y012176D02*
X001800Y012176D01*
X001800Y011898D02*
X006497Y011898D01*
X006536Y019697D02*
X001800Y019697D01*
X001800Y019975D02*
X006286Y019975D01*
X006149Y020254D02*
X001800Y020254D01*
X001800Y020533D02*
X006090Y020533D01*
X006098Y020811D02*
X001800Y020811D01*
X031172Y015797D02*
X031347Y015797D01*
X032172Y015797D02*
X032347Y015797D01*
X033172Y015797D02*
X033347Y015797D01*
X034172Y015797D02*
X034347Y015797D01*
X035172Y015797D02*
X035347Y015797D01*
X037483Y019697D02*
X037558Y019697D01*
D23*
X024760Y016628D03*
X019260Y016628D03*
X016510Y019628D03*
X015260Y019628D03*
X014010Y019628D03*
X012260Y017878D03*
X012260Y014878D03*
X020260Y010128D03*
X023260Y010128D03*
X028510Y010128D03*
X026760Y004128D03*
X014260Y002628D03*
X013260Y002628D03*
X012760Y009378D03*
D24*
X013760Y011878D01*
X013760Y018128D01*
X014260Y018378D01*
X016260Y018628D01*
X016510Y019628D01*
X015260Y019628D02*
X015010Y019128D01*
X013260Y018628D01*
X013010Y015628D01*
X013010Y015378D01*
X012260Y014878D01*
X012260Y017878D02*
X012760Y019128D01*
X014010Y019628D01*
X019260Y016628D02*
X020260Y015378D01*
X024010Y015378D01*
X024760Y016628D01*
X023260Y010128D02*
X024010Y008878D01*
X024260Y008878D01*
X027760Y008878D01*
X028510Y010128D01*
X020260Y010128D02*
X020260Y008878D01*
X016260Y005878D01*
X013760Y003378D01*
X013260Y002628D01*
X014260Y002628D02*
X014510Y003128D01*
X016760Y005378D01*
X024010Y005378D01*
X025010Y004128D01*
X026760Y004128D01*
M02*
